<?xml version="1.0" encoding="UTF-8"?>
<svg xmlns="http://www.w3.org/2000/svg" width="70" height="71" viewBox="0 0 70 71" fill="none">
  <path d="M35.0077 0.572075C54.3455 0.595236 69.9616 16.3346 70 35.7102C70.0409 55.5542 53.7393 71.2858 34.4475 70.995C15.5624 70.7119 -0.404154 54.849 0.00767122 34.987C0.393917 16.3423 15.6775 0.538619 35.0077 0.572075ZM19.9594 37.5656C19.9185 35.3885 20.3661 33.4275 21.1847 31.5386C21.9214 29.8375 23.0366 28.3706 24.0521 26.8446C25.8375 24.163 28.3648 23.0564 31.5263 23.5094C33.7108 23.8233 35.8825 23.9288 38.0669 23.5608C41.6736 22.9509 44.4387 24.2068 46.3546 27.3567C46.8764 28.2137 47.4545 29.0346 48.0045 29.8736C48.1477 30.0923 48.2935 30.3522 48.603 30.1669C48.9304 29.9713 48.8102 29.6986 48.6567 29.4464C48.557 29.2817 48.4649 29.1092 48.3447 28.9625C48.1144 28.6795 48.1963 28.5534 48.5186 28.4247C49.3985 28.0747 50.2247 28.2677 51.0612 28.5791C54.21 29.7475 57.3613 30.9029 60.5101 32.0687C61.0473 32.2669 61.541 32.2308 61.8684 31.7264C62.1676 31.2658 62.096 30.7923 61.7251 30.3728C58.7733 27.0016 55.5171 23.9597 51.7902 21.4763C48.5723 19.3326 44.2187 19.6363 41.2541 22.1223C40.7655 22.5315 40.2974 22.655 39.6989 22.6344C39.3382 22.6215 39.2282 22.4877 39.1643 22.1712C38.8752 20.6863 38.9469 19.2477 39.5326 17.8297C40.0519 16.5739 40.1695 15.2563 39.8421 13.9284C39.6426 13.1203 39.415 12.3174 39.1438 11.5299C38.269 8.97959 35.2583 7.84726 32.9076 9.15716C31.6466 9.85971 31.048 10.992 30.6208 12.3302C29.9635 14.3813 29.8304 16.3654 30.7001 18.3959C31.2399 19.6569 31.1606 20.9874 30.8306 22.305C30.7922 22.4594 30.7692 22.619 30.5748 22.6087C30.0248 22.5804 29.4954 22.7245 28.9659 22.269C25.7506 19.4948 21.2026 19.3275 17.7468 21.798C16.2019 22.902 14.7208 24.0884 13.3012 25.3494C11.5592 26.8935 9.91705 28.5405 8.38741 30.2956C7.86816 30.8926 7.84258 31.4305 8.30044 31.8834C8.71483 32.2926 9.18037 32.2077 9.66637 32.0301C12.8561 30.8489 16.0458 29.6754 19.2355 28.4967C19.9083 28.2471 20.5836 28.1416 21.2947 28.3475C21.7704 28.4865 21.9469 28.5945 21.6067 29.1401C18.8672 33.5485 18.3991 38.2142 20.251 43.0729C21.0772 45.2449 22.3562 47.1724 23.7605 49.0098C23.9805 49.2981 24.0035 49.4834 23.7784 49.7793C23.2745 50.4407 22.7885 51.1175 22.3332 51.8149C20.9954 53.8711 20.5912 56.0997 21.1693 58.4982C21.2333 58.7658 21.2947 59.103 21.6809 59.0052C22.0416 58.9151 21.9776 58.632 21.9162 58.3309C21.6067 56.8615 21.6323 55.4075 22.1209 53.9638C22.5711 52.6359 23.4791 51.6039 24.2286 50.4664C24.4767 50.0907 24.6302 50.083 24.9192 50.4278C25.9092 51.6065 27.0091 52.6796 28.1831 53.6755C28.9914 54.3601 29.0068 54.3832 28.1371 55.0395C26.6868 56.1358 25.4257 57.3839 24.73 59.1107C24.3795 59.9831 24.0572 60.8658 23.7298 61.7459C23.6454 61.9724 23.5687 62.2143 23.2719 62.1963C22.9803 62.1783 22.9189 61.9261 22.8524 61.6996C22.7527 61.3522 22.6478 61.0022 22.5532 60.6522C22.4764 60.3691 22.392 60.0654 22.0186 60.1838C21.6502 60.3022 21.7551 60.6162 21.8293 60.8864C21.9239 61.2364 22.0467 61.5812 22.1183 61.9364C22.2462 62.5591 22.6043 62.9477 23.2336 62.9838C23.8731 63.0198 24.2337 62.6363 24.4486 62.0496C24.8246 61.0279 25.1981 60.0037 25.638 59.0078C26.4233 57.2269 27.9836 56.1692 29.4288 55.0086C29.5593 54.9031 29.677 54.8568 29.8228 54.9803C30.4571 55.5078 31.2066 55.8836 31.6977 56.599C32.859 58.2846 33.7287 60.1015 34.271 62.0805C34.381 62.4819 34.4603 62.9786 35.0205 62.9812C35.5755 62.9812 35.6574 62.5102 35.775 62.0933C36.3506 60.0371 37.2305 58.1251 38.5069 56.4111C39.0006 55.7472 39.6759 55.1913 40.41 54.9726C40.8397 54.8439 41.3001 55.5928 41.758 55.9299C41.8782 56.0174 41.9908 56.1152 42.111 56.2052C43.2518 57.0828 44.1139 58.1765 44.6459 59.5224C44.9759 60.3562 45.3007 61.1926 45.6 62.0367C45.8072 62.626 46.1704 63.0043 46.8073 62.9838C47.4494 62.9632 47.7819 62.5437 47.9431 61.9492C48.1707 61.1026 48.3958 60.2559 48.6491 59.4195C49.3116 57.2346 49.3295 55.0832 48.3677 52.973C47.8407 51.8149 47.0222 50.8473 46.2958 49.8205C46.086 49.522 46.0349 49.3161 46.2958 48.9995C47.1476 47.9573 47.8612 46.8172 48.5442 45.654C51.0944 41.3049 51.6316 36.755 49.8948 31.9812C49.7899 31.693 49.7157 31.2709 49.2783 31.4202C48.8307 31.5746 49.0455 31.9298 49.1581 32.2257C49.7464 33.7543 50.061 35.3422 50.1173 36.9789C50.2222 40.1417 49.2348 42.9776 47.6463 45.6695C45.0219 50.119 41.3206 53.4697 37.1 56.2979C36.1178 56.9567 35.0102 57.0622 33.8566 56.7122C33.0125 56.4549 32.3858 55.8707 31.69 55.3869C28.2036 52.9678 25.2083 50.0624 22.9113 46.457C21.1591 43.7085 19.8929 40.8082 19.9646 37.5708L19.9594 37.5656ZM35.0128 44.5114C35.9285 44.5114 36.8417 44.4908 37.7574 44.5166C38.6655 44.5449 39.2896 44.1486 39.7296 43.3662C40.6095 41.8041 41.4869 40.2395 42.4103 38.7057C42.9193 37.859 42.9168 37.0895 42.4128 36.2455C41.492 34.7065 40.6044 33.1496 39.7321 31.5849C39.2896 30.7897 38.6527 30.4294 37.7574 30.4371C35.949 30.4526 34.1405 30.4577 32.3321 30.4371C31.4061 30.4268 30.7615 30.8 30.3062 31.6132C29.4033 33.2345 28.4671 34.8403 27.5411 36.4488C27.1549 37.1179 27.1318 37.7895 27.513 38.4586C28.485 40.1648 29.4698 41.8633 30.452 43.5618C30.828 44.2103 31.401 44.514 32.1402 44.514C33.0969 44.514 34.0536 44.514 35.0128 44.514V44.5114ZM35.0384 46.1662C34.0817 46.1662 33.1225 46.1662 32.1658 46.1662C31.4036 46.1687 30.8152 46.4801 30.429 47.1569C29.9123 48.0654 29.3828 48.9687 28.8661 49.8771C28.4747 50.5668 28.5233 50.8421 29.1142 51.38C30.539 52.6745 32.1121 53.7733 33.6699 54.8902C34.5114 55.495 35.463 55.5259 36.3045 54.9391C37.9263 53.8042 39.5377 52.6487 41.0137 51.3157C41.4664 50.9065 41.5432 50.4741 41.2362 49.9492C40.699 49.0279 40.1772 48.0963 39.6401 47.175C39.241 46.4904 38.6399 46.1559 37.847 46.1636C36.9108 46.1713 35.9746 46.1636 35.0384 46.1636V46.1662ZM23.5022 36.6495C23.8219 36.6495 24.1416 36.6624 24.4588 36.6469C25.1392 36.6109 25.6943 36.3227 26.0422 35.7205C27.0449 33.9834 28.0399 32.2386 29.0298 30.4938C29.3751 29.8838 29.347 29.2688 29.0017 28.664C28.6308 28.0155 28.2727 27.3593 27.889 26.7185C27.4746 26.0262 26.9656 25.9464 26.3721 26.4817C26.1368 26.6953 25.9015 26.9244 25.7224 27.1843C24.7402 28.6074 23.7247 30.0099 22.9087 31.5386C22.3946 32.5036 22.0313 33.5304 21.8063 34.6036C21.4098 36.5105 21.5326 36.6572 23.4996 36.6521L23.5022 36.6495ZM46.4569 36.6495C48.7514 36.791 48.557 36.0576 48.2321 34.547C47.585 31.5412 45.7381 29.2019 44.0064 26.7957C43.8964 26.6413 43.7455 26.5126 43.5946 26.3942C43.0626 25.9748 42.5612 26.0623 42.2057 26.6541C41.8092 27.3104 41.4255 27.9795 41.0495 28.6486C40.699 29.2739 40.6811 29.9173 41.0392 30.5427C42.024 32.2669 43.0165 33.9859 44.0064 35.705C44.3569 36.3124 44.9017 36.6006 45.5795 36.6443C45.8967 36.6649 46.2165 36.6469 46.4569 36.6469V36.6495ZM23.5584 38.3197C23.3461 38.3197 23.1338 38.3197 22.9215 38.3197C21.7295 38.3197 21.5044 38.6362 21.7244 39.802C22.3664 43.1758 24.2593 45.8728 26.3261 48.4746C26.8147 49.087 27.4055 49.0124 27.8276 48.3304C28.2215 47.6948 28.5668 47.0334 28.9505 46.3926C29.3777 45.6798 29.3572 44.9901 28.9403 44.2747C27.9836 42.6328 27.05 40.9806 26.1036 39.3336C25.7071 38.6439 25.1264 38.2862 24.3207 38.3171C24.0649 38.3274 23.8091 38.3171 23.5559 38.3171L23.5584 38.3197ZM46.5388 38.3197C45.0066 37.9877 44.1625 38.7855 43.5076 40.0645C42.7889 41.4696 41.9754 42.8258 41.1646 44.1794C40.6837 44.9824 40.676 45.7312 41.1748 46.5213C41.5278 47.0797 41.8322 47.6691 42.1673 48.2378C42.6431 49.0459 43.2084 49.0922 43.8223 48.3639C44.7303 47.283 45.5258 46.125 46.2574 44.918C47.2831 43.2273 48.1017 41.4541 48.3933 39.4726C48.5058 38.7057 48.1937 38.3403 47.4315 38.3197C47.1348 38.3119 46.8355 38.3197 46.5388 38.3197ZM35.0409 28.7695C36.0206 28.7695 36.9977 28.7695 37.9774 28.7695C38.645 28.7695 39.1796 28.4942 39.5352 27.928C39.8856 27.367 40.2258 26.7983 40.5277 26.2089C40.8372 25.6067 40.4893 25.0148 39.814 24.9788C39.4764 24.9608 39.131 24.9943 38.7985 25.0483C36.7291 25.3931 34.6547 25.4678 32.57 25.2284C31.8512 25.1461 31.1375 25.0123 30.4188 24.9788C29.5491 24.9376 29.1884 25.5656 29.6028 26.3453C29.8509 26.8163 30.1425 27.2666 30.4009 27.735C30.7871 28.4401 31.3754 28.7773 32.1735 28.7721C33.1302 28.767 34.0894 28.7721 35.046 28.7695H35.0409Z" fill="#303030"></path>
  <path d="M35.0359 23.077C34.0562 22.9869 33.0637 22.884 32.0687 22.8093C31.685 22.781 31.5494 22.6601 31.6415 22.2509C32.0124 20.5961 31.8385 19.0006 31.1939 17.4231C30.7232 16.2727 30.6772 15.0529 31.0327 13.8382C31.2348 13.1434 31.4011 12.4331 31.6466 11.7537C32.1863 10.2585 33.5778 9.3501 35.1663 9.40414C36.7318 9.45561 38.0542 10.4901 38.5044 12.0111C38.9239 13.4213 39.4278 14.8136 39.149 16.3345C39.0671 16.7797 38.9699 17.2172 38.796 17.6264C38.1642 19.1138 38.0414 20.6425 38.4123 22.2046C38.5146 22.6343 38.4046 22.781 37.9775 22.8119C37.0029 22.8814 36.0309 22.9869 35.0384 23.077H35.0359Z" fill="#303030"></path>
  <path d="M41.6633 22.8222C44.2136 20.4958 48.4188 20.1612 51.363 22.1248C54.9978 24.549 58.1773 27.5162 61.0651 30.7999C61.1879 30.9415 61.3746 31.083 61.2084 31.294C61.0498 31.4948 60.8631 31.3558 60.6891 31.294C57.6785 30.1875 54.6601 29.0963 51.6571 27.9666C50.4268 27.5033 49.2169 27.2048 47.9609 27.8276C47.7384 27.9383 47.6079 27.8791 47.4903 27.6809C47.347 27.4441 47.1808 27.2177 47.0401 26.9809C45.8046 24.9221 44.1087 23.4527 41.6633 22.8222Z" fill="#303030"></path>
  <path d="M28.3059 22.8118C27.4337 23.1129 26.5896 23.4398 25.8196 23.9339C24.469 24.8011 23.5661 26.0621 22.7527 27.4029C22.5071 27.8095 22.3076 27.951 21.8114 27.7194C20.9493 27.318 20.0336 27.3772 19.1409 27.7066C16.01 28.862 12.8817 30.0175 9.7431 31.155C9.46941 31.2528 9.10874 31.5951 8.88109 31.2785C8.61506 30.9079 9.09339 30.6892 9.29291 30.4627C11.9838 27.4389 14.9664 24.7342 18.2635 22.3923C21.1131 20.367 24.8502 20.3284 27.7329 22.274C27.935 22.4104 28.1806 22.5133 28.3085 22.8093L28.3059 22.8118Z" fill="#303030"></path>
  <path d="M48.3652 56.5937C48.3166 58.3797 47.5722 60.1065 47.1322 61.9027C47.0888 62.0829 46.9532 62.1987 46.7588 62.1961C46.4953 62.1961 46.4084 61.9799 46.3316 61.7818C46.0323 61.0072 45.7356 60.23 45.4543 59.4477C44.7918 57.6076 43.5281 56.2617 42.0087 55.1062C41.0521 54.3805 41.07 54.3573 41.9576 53.5982C43.1265 52.5997 44.1983 51.5059 45.2138 50.353C45.3519 50.196 45.4517 49.9567 45.6794 50.2758C46.7511 51.7839 47.9482 53.2224 48.2424 55.15C48.3115 55.5977 48.3217 56.0404 48.3652 56.5911V56.5937Z" fill="#303030"></path>
  <path d="M35.0205 61.6352C34.5319 60.1606 33.9283 58.7555 33.0995 57.3143C34.404 57.7415 35.619 57.7982 36.9619 57.2783C36.1409 58.7426 35.527 60.1477 35.0205 61.6352Z" fill="#303030"></path>
</svg>
