<?xml version="1.0" encoding="UTF-8"?>
<svg xmlns="http://www.w3.org/2000/svg" width="68" height="68" viewBox="0 0 68 68" fill="none">
  <path d="M33.9724 67.9996C15.1115 67.9453 -0.0649856 52.6623 -0.000405006 33.7838C0.0641756 15.0889 15.3562 -0.051337 34.122 -0.000359928C52.9421 0.0506171 68.0744 15.3233 67.9996 34.1883C67.9248 52.8527 52.6294 68.0506 33.9724 67.9996ZM51.6029 48.0132C52.6566 48.0132 53.7103 48.0336 54.7606 48.003C55.25 47.9894 55.991 48.2545 56.1779 47.8535C56.4533 47.2554 56.0012 46.6097 55.6239 46.0693C55.4812 45.8654 55.2772 45.7023 55.0971 45.5222C54.0978 44.5196 53.1087 43.5069 52.0958 42.5213C51.7287 42.1645 51.5791 41.7838 51.5859 41.2707C51.6097 39.5646 51.5655 37.8586 51.6097 36.1526C51.6301 35.4049 51.4398 34.8306 50.8721 34.331C48.3705 32.1356 46.4569 29.5731 45.8688 26.1951C45.8314 25.981 45.7499 25.777 45.6853 25.5697C45.5833 25.2401 45.4032 25.0158 45.0463 24.8968C42.3339 23.986 39.6283 23.0617 36.9193 22.1339C36.4571 21.9742 36.2599 22.0965 36.2531 22.6131C36.2361 24.003 36.1444 25.3998 37.8336 25.9979C38.7038 26.3038 38.7378 26.9257 38.3571 27.6564C38.2415 27.8807 38.1599 28.1254 38.0274 28.3395C37.7215 28.8357 37.7725 29.9436 36.8887 29.5527C36.0492 29.1823 36.797 28.4075 36.9975 27.8569C37.1878 27.3335 37.3952 26.9155 36.6916 26.6572C35.3388 26.1645 34.9785 25.1347 35.1281 23.8059C35.1688 23.4491 35.0839 23.0787 35.1145 22.7184C35.179 22.0013 34.9173 21.8586 34.2307 22.0285C31.9092 22.6029 29.5775 23.133 27.2458 23.6564C26.5966 23.8025 26.3315 24.1016 26.4301 24.7915C26.5354 25.5256 26.1615 26.0081 25.475 26.3174C24.751 26.6437 23.9862 26.8917 23.3506 27.4049C22.093 28.4177 21.9502 29.1891 22.8068 30.5077C23.0039 30.8102 23.235 31.1024 23.3812 31.4287C23.8978 32.5842 24.717 33.1789 26.0256 32.9682C26.9569 32.8187 27.375 33.2435 27.3682 34.1645C27.3682 34.416 27.4566 34.6708 27.4396 34.9223C27.4022 35.4831 27.8984 36.3871 27.0589 36.4958C26.0766 36.625 26.3859 35.5748 26.2805 35.0209C26.1649 34.4296 26.1106 33.9436 25.3322 34.0693C24.0202 34.28 23.2214 33.6479 22.6946 32.5026C22.4838 32.0472 22.1032 31.67 21.8924 31.2112C21.5729 30.5247 21.1684 30.6029 20.5906 30.8646C17.4432 32.3021 16.3657 35.2044 17.7457 38.5961C18.2283 39.7833 17.9088 40.6975 16.7872 41.3386C14.5189 42.6346 13.4222 44.5672 13.4969 47.1364C13.4969 47.2078 13.5071 47.2826 13.4969 47.3539C13.4256 47.9011 13.7111 48.0166 14.2005 48.0132C16.8144 47.9962 19.4282 47.9894 22.042 48.02C22.6334 48.0268 22.817 47.8127 22.7626 47.2656C22.6504 46.1067 23.1602 45.3115 24.2207 44.8595C24.785 44.6182 24.8495 44.2749 24.7068 43.6632C24.4145 42.4126 24.598 41.1687 25.5463 40.2239C26.4301 39.3471 27.3818 38.5519 28.1907 37.5799C28.6462 37.0328 29.3328 36.6725 29.6693 35.9589C29.863 35.551 30.3253 35.4185 30.7604 35.3166C32.0996 35.0039 33.4388 34.6776 34.778 34.3582C35.2164 34.2528 35.6413 34.3242 36.0628 34.4635C37.402 34.9155 38.7344 35.3947 40.0872 35.7991C41.1001 36.1016 41.6643 36.7269 41.9158 37.7363C42.1436 38.6403 42.3475 39.5646 43.1768 40.19C44.5092 41.1959 44.9851 42.5553 44.7778 44.2036C44.7166 44.6861 44.6962 45.1789 45.0803 45.6377C47.0551 47.9962 47.0415 48.0064 50.1821 48.0064C50.6546 48.0064 51.1271 48.0064 51.5995 48.0064L51.6029 48.0132ZM27.0045 16.7439C24.3635 16.8017 22.1983 17.8892 20.7198 20.1356C19.0373 22.6912 19.0237 25.3658 20.4479 28.0506C20.5838 28.3021 20.7946 29.0736 21.1854 28.2953C21.94 26.7898 23.1772 25.9504 24.6898 25.4134C25.1249 25.2605 25.271 25.0022 25.2812 24.523C25.3016 23.2724 25.7503 22.8 26.9705 22.5281C28.9113 22.0965 30.8419 21.6207 32.7896 21.2197C33.6597 21.0396 33.7549 20.7371 33.2348 20.0404C31.6849 17.964 29.6557 16.8289 27.0011 16.7473L27.0045 16.7439ZM35.1145 49.2197C27.3138 49.2197 19.5097 49.2129 11.7091 49.2333C11.1924 49.2333 10.3189 48.9342 10.2951 49.7668C10.2713 50.7422 11.2094 50.365 11.7363 50.365C27.2662 50.3854 42.7996 50.382 58.3295 50.382C58.547 50.382 58.7646 50.382 58.9821 50.382C59.3696 50.382 59.7571 50.3174 59.7775 49.845C59.8047 49.2945 59.3798 49.2333 58.9549 49.2265C58.666 49.2265 58.3737 49.2265 58.0848 49.2265C50.4269 49.2265 42.7724 49.2265 35.1145 49.2265V49.2197ZM37.9424 18.2188C37.871 17.862 37.5821 17.6343 37.2558 17.7906C36.4843 18.1645 35.7501 18.6165 35.0193 19.0651C34.7882 19.2078 34.7236 19.4661 34.8799 19.7278C35.0499 20.0098 35.2776 20.1356 35.5971 19.9623C36.2871 19.5816 36.9805 19.2078 37.6603 18.8068C37.8506 18.6946 37.939 18.4839 37.9424 18.2154V18.2188ZM22.1813 16.4856C22.7354 16.3633 22.8237 15.9928 22.579 15.5273C22.2629 14.9223 21.8992 14.3446 21.5593 13.7499C21.352 13.3862 21.0529 13.2027 20.6722 13.4304C20.3221 13.6377 20.3901 13.9911 20.5498 14.2902C20.8727 14.8917 21.2228 15.4763 21.5593 16.0676C21.6919 16.2987 21.8686 16.4652 22.1779 16.4822L22.1813 16.4856ZM19.2106 19.4933C19.1596 19.3777 19.1359 19.1942 19.0373 19.133C18.2725 18.664 17.5009 18.1951 16.709 17.7736C16.4677 17.6445 16.2297 17.8348 16.0802 18.0693C15.9034 18.3514 16.0428 18.5927 16.2535 18.7252C16.9537 19.1636 17.6675 19.5884 18.4017 19.9657C18.8231 20.1832 19.0611 19.9079 19.214 19.4899L19.2106 19.4933ZM16.726 30.8408C17.4806 30.4601 18.3711 30.0761 19.0883 29.4134C19.2514 29.2639 19.2106 29.0056 19.0781 28.8119C18.9081 28.5638 18.6328 28.5128 18.4085 28.6352C17.6811 29.0226 16.9639 29.4338 16.2705 29.8756C16.0734 30.0013 15.9374 30.2596 16.0666 30.5417C16.1685 30.766 16.3623 30.8408 16.7226 30.8408H16.726ZM32.9697 13.3216C32.8677 13.3726 32.6876 13.4032 32.6264 13.5052C32.1607 14.2698 31.7019 15.0379 31.2838 15.8263C31.1479 16.0846 31.3688 16.3157 31.6033 16.4244C31.9058 16.5672 32.1641 16.4516 32.3341 16.1662C32.7148 15.5171 33.1057 14.8713 33.4558 14.2052C33.6937 13.7499 33.4931 13.461 32.9731 13.325L32.9697 13.3216ZM16.1957 24.8832C16.1957 24.8832 16.1957 24.8934 16.1957 24.8968C16.556 24.8968 16.9163 24.9104 17.2732 24.8934C17.6471 24.8764 17.8884 24.6691 17.8816 24.2851C17.8748 23.9351 17.6165 23.7821 17.3004 23.7753C16.5118 23.7651 15.7199 23.7651 14.9313 23.7889C14.6628 23.7957 14.4521 23.9521 14.4385 24.2579C14.4249 24.5842 14.5744 24.8425 14.9075 24.8731C15.3358 24.9138 15.7675 24.8832 16.1991 24.8832H16.1957ZM27.5177 13.444C27.5177 13.1585 27.5177 12.8696 27.5177 12.5842C27.5177 12.2171 27.5211 11.7957 27.0385 11.7719C26.549 11.7482 26.3723 12.0948 26.3825 12.557C26.3927 13.1653 26.3893 13.777 26.3893 14.3854C26.3893 14.783 26.5082 15.1228 26.9603 15.1466C27.4634 15.1738 27.5109 14.7966 27.5143 14.4126C27.5143 14.0897 27.5143 13.7668 27.5143 13.444H27.5177Z" fill="#303030"></path>
</svg>
