<?xml version="1.0" encoding="UTF-8"?>
<svg xmlns="http://www.w3.org/2000/svg" width="68" height="68" viewBox="0 0 68 68" fill="none">
  <g clip-path="url(#clip0_564_134)">
    <path d="M33.9119 67.9988C14.9608 67.8947 -0.0239982 52.703 2.88535e-05 33.8316C0.023166 15.3551 15.2251 -0.0625616 34.1122 -0.000300366C52.8977 0.0619609 68.4565 15.5588 67.9902 34.8811C67.5497 53.0988 52.5587 68.102 33.9119 67.9979V67.9988ZM34.138 23.49C32.6679 22.2038 31.2289 20.859 29.701 19.6253C25.7926 16.4687 21.3761 14.6186 16.2788 14.6293C15.2251 14.6311 14.9742 14.8552 14.9519 15.8808C14.9253 17.0922 14.9199 18.3045 14.9333 19.5159C14.9377 19.9331 14.8122 20.127 14.3851 20.2435C13.4792 20.489 12.5662 20.7487 11.7101 21.125C10.7632 21.5412 10.5942 22.0526 10.7917 23.0479C10.8745 23.466 10.9056 23.9009 10.9056 24.3287C10.8967 32.1932 10.8807 40.0568 10.8638 47.9213C10.862 48.6213 10.8175 49.3222 10.8407 50.0213C10.8763 51.1224 11.2073 51.3074 12.2627 51.0628C13.9348 50.675 15.6096 50.193 17.3084 50.0489C22.8088 49.5837 28.036 50.5043 32.7729 53.5275C33.4634 53.9678 34.2109 53.9678 34.8953 53.5275C38.5055 51.2096 42.5127 50.1814 46.7379 49.935C49.8276 49.7554 52.863 50.1592 55.8237 51.0886C56.6201 51.3386 56.9948 51.0637 57.0597 50.2437C57.0829 49.9493 57.0677 49.6513 57.0677 49.3551C57.0508 40.9792 57.033 32.6033 57.0143 24.2273C57.0126 23.5282 57.017 22.8291 56.9974 22.13C56.9796 21.4914 56.6984 21.0983 56.015 20.9604C55.1189 20.7798 54.2495 20.4748 53.3551 20.2818C52.8862 20.1804 52.7616 19.9624 52.774 19.5079C52.8043 18.4317 52.79 17.3537 52.7776 16.2766C52.7598 14.712 52.5275 14.511 50.9827 14.5804C45.4983 14.8268 40.8121 16.9499 36.8201 20.6491C35.7593 21.6328 34.8258 22.7535 34.1362 23.4891L34.138 23.49Z" fill="#303030"></path>
    <path d="M52.7857 22.198C52.9272 22.198 53.0117 22.1793 53.0838 22.2007C53.7779 22.407 54.4693 22.6196 55.1955 22.8402V48.836C44.531 47.2537 43.3947 48.2428 36.9038 50.2093C38.656 48.4731 40.4723 47.0429 42.5048 45.8742C45.2581 44.2901 48.265 43.6835 51.385 43.4789C52.6851 43.3935 52.783 43.3019 52.7839 41.9722C52.7883 35.6722 52.7857 29.3723 52.7866 23.0714C52.7866 22.7806 52.7866 22.4897 52.7866 22.198H52.7857Z" fill="#303030"></path>
    <path d="M29.894 49.8038C24.1943 47.7474 18.5248 47.2973 12.7209 48.8966V22.8242C13.4062 22.576 14.1234 22.3172 14.9261 22.0264V23.0101C14.9261 29.4177 14.9261 35.8261 14.9261 42.2337C14.9261 43.696 15.1147 43.9157 16.5822 43.961C21.6403 44.1176 25.8762 46.2069 29.6217 49.4622C29.6956 49.5263 29.7463 49.617 29.8931 49.8038H29.894Z" fill="#303030"></path>
  </g>
  <defs>
    <clipPath id="clip0_564_134">
      <rect width="68" height="68" fill="white"></rect>
    </clipPath>
  </defs>
</svg>
