<?xml version="1.0" encoding="UTF-8"?>
<svg xmlns="http://www.w3.org/2000/svg" width="68" height="68" viewBox="0 0 68 68" fill="none">
  <g clip-path="url(#clip0_564_118)">
    <path d="M27.1718 19.9634C27.1744 17.626 25.2725 15.7064 22.9388 15.6925C20.5799 15.6785 18.6476 17.5943 18.6438 19.9482C18.64 22.2844 20.5457 24.2065 22.8768 24.2192C25.2345 24.2331 27.168 22.3161 27.1718 19.9622V19.9634Z" fill="#303030"></path>
    <path d="M50.1082 20.0014C50.1272 17.6399 48.219 15.7025 45.8663 15.6924C43.5289 15.6836 41.6004 17.5816 41.5814 19.9115C41.5624 22.2717 43.4719 24.2116 45.8233 24.2204C48.1607 24.2293 50.0892 22.3312 50.1082 20.0014Z" fill="#303030"></path>
    <path d="M32.9585 44.3926C32.9585 44.1837 32.8864 44.1178 32.6838 44.1229C32.2254 44.133 31.767 44.1343 31.3099 44.1204C29.1953 44.0609 27.4606 42.4553 27.1947 40.3179C26.9427 38.2894 28.2976 36.3217 30.3147 35.7544C31.0617 35.5442 31.8189 35.5962 32.5736 35.6038C32.8914 35.6063 32.9649 35.505 32.9623 35.2024C32.9484 33.5917 32.9446 31.9798 32.9649 30.3692C32.9699 30.0007 32.875 29.8982 32.4989 29.8994C28.3761 29.9134 24.2533 29.9007 20.1304 29.9108C16.0899 29.9197 12.9674 33.0561 12.9573 37.103C12.9522 39.0618 12.9573 41.0207 12.9573 42.9795C12.9573 45.1283 12.9636 47.2758 12.9509 49.4246C12.9497 49.731 13.0294 49.8247 13.3435 49.8222C14.9858 49.807 16.6293 49.8057 18.2716 49.8222C18.6059 49.826 18.6641 49.6994 18.6502 49.4119C18.6312 49.0181 18.6388 48.6218 18.6502 48.228C18.7199 46.0894 20.4495 44.2926 22.5818 44.1394C24.7635 43.9811 26.7085 45.4892 27.0985 47.6253C27.2137 48.2546 27.163 48.8852 27.1706 49.5158C27.1732 49.7323 27.2251 49.8209 27.4606 49.8197C29.1979 49.8121 30.9351 49.8133 32.6736 49.8184C32.861 49.8184 32.9611 49.7817 32.9611 49.5613C32.9547 47.8393 32.9547 46.1185 32.9611 44.3964L32.9585 44.3926Z" fill="#303030"></path>
    <path d="M33.9994 0C15.2225 0 0 15.2225 0 33.9994C0 52.7762 15.2225 67.9987 33.9994 67.9987C52.7762 67.9987 67.9987 52.7762 67.9987 33.9994C67.9987 15.2225 52.7775 0 33.9994 0ZM58.2298 52.6635C54.7236 52.6508 51.2162 52.6508 47.71 52.6635C47.3682 52.6635 47.2504 52.5964 47.258 52.2279C47.2833 50.9959 47.2707 49.7638 47.2669 48.5318C47.2631 47.6125 46.673 46.9706 45.8462 46.9706C45.018 46.9706 44.4292 47.6138 44.4255 48.5318C44.4217 49.7638 44.409 50.9959 44.4343 52.2279C44.4419 52.5977 44.3229 52.6635 43.9823 52.6635C37.5689 52.6534 31.1554 52.6534 24.742 52.6635C24.409 52.6635 24.3178 52.5761 24.3229 52.2444C24.3431 51.0123 24.3343 49.7803 24.3292 48.5483C24.3267 47.6227 23.7506 46.9807 22.9237 46.9718C22.0791 46.9617 21.4903 47.6125 21.4878 48.5647C21.4853 49.7499 21.4701 50.9351 21.4967 52.119C21.5055 52.5356 21.4144 52.6711 20.9649 52.6686C17.3473 52.6483 13.7297 52.6572 10.1133 52.6572V36.0709C10.226 35.5328 10.3109 34.987 10.4539 34.4577C11.6341 30.0893 15.5201 27.101 20.0469 27.0681C20.6622 27.0643 21.2776 27.0681 21.9019 27.0377C19.938 26.6768 18.3311 25.7385 17.1586 24.1228C15.9785 22.4957 15.572 20.6698 15.9114 18.692C16.5128 15.1871 19.7189 12.6762 23.3378 12.8585C26.8199 13.0345 29.717 15.8708 29.9968 19.4036C30.2665 22.7971 28.0279 26.2969 23.9329 27.0389H44.8243C42.8579 26.6705 41.2422 25.7233 40.0709 24.0874C38.8997 22.4527 38.4957 20.623 38.8591 18.6502C39.5074 15.1212 42.7173 12.6458 46.3197 12.8623C49.812 13.0725 52.6952 15.9367 52.9408 19.4492C53.1827 22.9022 50.8705 26.3286 46.8718 27.0693C47.4846 27.0693 48.0988 27.0592 48.7116 27.0706C51.8303 27.1276 54.4071 28.3406 56.3963 30.7439C57.8664 32.5204 58.6249 34.5882 58.6337 36.894C58.6553 42.012 58.6375 47.1301 58.6489 52.2482C58.6489 52.5799 58.5641 52.6686 58.2311 52.6673L58.2298 52.6635Z" fill="#303030"></path>
    <path d="M55.7961 37.1472C55.7911 33.0408 52.6749 29.9183 48.5774 29.9082C46.6034 29.9031 44.6306 29.9082 42.6565 29.9082C40.5407 29.9082 38.4248 29.9196 36.309 29.8981C35.9012 29.8943 35.7822 29.9816 35.786 30.4096C35.8101 32.9205 35.786 35.4302 35.8101 37.9411C35.8139 38.378 35.6822 38.4565 35.2833 38.4476C34.0677 38.421 32.8522 38.4362 31.6366 38.4387C30.673 38.44 30.0247 39.0085 30.0184 39.8493C30.012 40.6914 30.6641 41.2789 31.6151 41.2814C32.8471 41.2839 34.0791 41.2979 35.3099 41.2726C35.6974 41.265 35.8113 41.3561 35.8088 41.7588C35.7885 44.3001 35.7999 46.8427 35.7974 49.3852C35.7974 49.6334 35.7683 49.8272 36.1469 49.8221C37.8525 49.7993 39.5568 49.8082 41.2624 49.817C41.5093 49.8183 41.5954 49.7487 41.5853 49.4967C41.5688 49.0712 41.5726 48.6445 41.5866 48.2178C41.6587 46.0817 43.3922 44.2862 45.522 44.1355C47.705 43.981 49.6436 45.4865 50.0348 47.6239C50.1412 48.2051 50.1171 48.7889 50.1019 49.3713C50.0931 49.717 50.1754 49.8272 50.54 49.8221C52.1342 49.8006 53.7297 49.7968 55.3238 49.8221C55.7328 49.8284 55.8075 49.7018 55.8063 49.3207C55.7923 45.2624 55.8012 41.2054 55.7961 37.1472Z" fill="#303030"></path>
  </g>
  <defs>
    <clipPath id="clip0_564_118">
      <rect width="68" height="68" fill="white"></rect>
    </clipPath>
  </defs>
</svg>
