<?xml version="1.0" encoding="UTF-8"?>
<svg xmlns="http://www.w3.org/2000/svg" width="68" height="68" viewBox="0 0 68 68" fill="none">
  <path d="M34.0005 67.9997C15.2307 68.0727 -0.329997 52.5983 0.00531997 33.3755C0.31894 15.295 15.0117 -0.0354484 34.0794 6.15659e-05C53.2319 0.0355716 68.0845 15.6856 67.9996 34.1212C67.9128 52.8488 52.7625 68.0057 34.0005 67.9997ZM43.5452 33.9989C43.5452 36.7726 43.5452 39.5483 43.5452 42.3221C43.5452 42.8646 43.5334 43.4071 43.561 43.9476C43.5965 44.6125 43.991 45.0761 44.6261 45.0859C46.5295 45.1155 48.4329 45.1175 50.3363 45.08C51.0129 45.0662 51.3916 44.6065 51.4508 43.9279C51.4666 43.7484 51.4685 43.5669 51.4685 43.3874C51.4685 37.1337 51.4685 30.878 51.4685 24.6243C51.4685 24.4763 51.4686 24.3284 51.4587 24.1824C51.4015 23.3795 51.0484 22.9474 50.2397 22.9237C48.4862 22.8685 46.7288 22.8369 44.9772 22.8882C43.8509 22.9198 43.5472 23.3361 43.5452 24.498C43.5432 27.6663 43.5452 30.8346 43.5452 34.0029V33.9989ZM24.4598 33.995H24.4578C24.4578 30.7932 24.4637 27.5913 24.4538 24.3915C24.4519 23.3735 24.0988 22.9494 23.0968 22.9099C21.5405 22.8488 19.9803 22.8586 18.4221 22.8567C16.9151 22.8567 16.5325 23.2493 16.5325 24.7505C16.5325 30.9234 16.5325 37.0962 16.5325 43.269C16.5325 43.4663 16.5325 43.6636 16.5463 43.8589C16.5996 44.6203 16.996 45.0761 17.7475 45.0879C19.5858 45.1175 21.4242 45.1175 23.2625 45.0879C24.0041 45.0761 24.4124 44.5947 24.4479 43.847C24.4598 43.6004 24.4598 43.3538 24.4598 43.1092C24.4598 40.0711 24.4598 37.035 24.4598 33.9969V33.995ZM41.9239 30.8583H26.0989V37.1632C26.2093 37.1771 26.2744 37.1909 26.3375 37.1909C31.4067 37.1909 36.474 37.1909 41.5432 37.1988C41.8667 37.1988 41.9633 37.0942 41.9613 36.7746C41.9495 34.9044 41.9554 33.0342 41.9534 31.164C41.9534 31.0693 41.9357 30.9746 41.9239 30.8583ZM14.9111 41.9413V27.6722C13.7158 27.6722 12.5521 27.6426 11.3903 27.6821C10.623 27.7077 10.1792 28.1891 10.1753 28.9565C10.1634 32.8429 10.1634 36.7312 10.1753 40.6176C10.1772 41.4008 10.6329 41.8999 11.4159 41.9295C12.56 41.9729 13.7079 41.9413 14.9111 41.9413ZM53.1037 41.9492C54.2162 41.9492 55.2635 41.9551 56.3129 41.9492C57.3642 41.9413 57.8356 41.46 57.8396 40.4025C57.8435 38.8934 57.8396 37.3822 57.8396 35.8731C57.8396 33.6083 57.8435 31.3436 57.8376 29.0788C57.8356 28.3055 57.5023 27.7689 56.8277 27.7294C55.5929 27.6584 54.3503 27.7097 53.1057 27.7097V41.9532L53.1037 41.9492Z" fill="#303030"></path>
</svg>
