<?xml version="1.0" encoding="UTF-8"?>
<svg xmlns="http://www.w3.org/2000/svg" width="68" height="64" viewBox="0 0 68 64" fill="none">
  <path d="M47.385 52.6727C53.3615 47.27 54.2861 40.0798 54.9422 32.6023C54.2465 32.8257 53.6951 32.9897 53.152 33.1782C49.226 34.5398 45.5125 36.3058 42.1678 38.7924C41.7055 39.1359 41.5783 39.4928 41.5634 40.056C41.5267 41.4889 41.3831 42.9195 41.2619 44.3494C41.2439 44.5653 41.1152 44.7724 40.9843 44.9779C41.2918 37.5858 38.0092 31.493 33.9994 25.4737C29.9702 31.4722 26.7437 37.5754 27.0392 44.9423C26.9509 44.9438 26.8634 44.946 26.7751 44.9475C26.6479 43.8582 26.52 42.7689 26.3951 41.6796C26.3831 41.5742 26.3689 41.4607 26.3928 41.3605C26.811 39.6049 25.843 38.6877 24.4658 37.804C21.0343 35.6024 17.3507 33.9781 13.4883 32.7137C13.4165 32.6899 13.3305 32.7107 13.0694 32.7107C13.6798 40.0263 14.6231 47.1506 20.563 52.4694C20.5024 52.5332 20.441 52.5978 20.3804 52.6616C19.3002 51.8246 18.113 51.0907 17.1667 50.1246C15.9196 48.8506 14.8251 47.4221 13.7456 45.9997C13.409 45.5559 13.1098 45.3727 12.5749 45.3808C9.47929 45.4305 6.41137 45.7348 3.38909 46.4004C2.73451 46.5443 2.54001 46.3521 2.29089 45.7823C0.259829 41.1201 -0.267575 36.2116 0.116195 31.2348C1.29893 15.9134 12.4619 3.96152 26.6517 0.809377C45.0293 -3.27401 63.4884 8.50719 67.267 26.8227C68.4512 32.5638 68.2133 38.2559 66.4605 43.8693C66.3969 44.0719 66.3468 44.2826 66.2555 44.4726C65.9301 45.1486 65.7498 46.1273 65.2097 46.4026C64.6778 46.6734 63.7809 46.1815 63.035 46.1065C60.4758 45.8483 57.9121 45.6316 55.3506 45.386C54.8232 45.3356 54.5352 45.5545 54.2644 45.9989C52.7675 48.4551 50.7985 50.4749 48.3942 52.0732C48.0687 52.2899 47.7216 52.4746 47.3842 52.6735L47.385 52.6727Z" fill="#303030"></path>
  <path d="M47.7922 60.5864C45.7312 61.6764 43.5542 62.4808 41.2838 63.0254C34.2465 64.712 27.4486 64.0116 20.9088 60.9321C20.641 60.806 20.4517 60.5159 20.2266 60.3022C20.5348 60.1716 20.858 59.903 21.1475 59.9349C22.4753 60.084 23.4261 59.5008 24.3912 58.6712C26.2143 57.104 26.9437 55.0701 27.3746 52.8173C27.6521 51.3629 28.1077 49.9397 28.5146 48.5113C28.8917 47.1861 29.8328 46.3802 31.0514 45.7851C32.9134 44.8754 32.9201 44.7782 31.8668 43.0107C31.7187 42.7621 31.5429 42.5209 31.3394 42.3169C30.818 41.7952 30.8255 41.2639 31.2033 40.6651C31.3761 40.3913 31.5242 40.0767 31.5826 39.7621C31.7539 38.833 31.8811 37.9144 32.9037 37.4454C33.0765 37.366 33.075 36.9698 33.2269 36.7769C33.4356 36.512 33.7333 36.0957 33.9563 36.1165C34.2503 36.1447 34.5405 36.5083 34.7732 36.7776C34.9318 36.9616 34.928 37.3601 35.1016 37.441C36.1182 37.9151 36.2372 38.8375 36.4145 39.7613C36.4751 40.0774 36.6217 40.3913 36.7893 40.671C37.1484 41.2706 37.1873 41.8153 36.6382 42.3221C36.5409 42.4118 36.4422 42.5031 36.3606 42.607C34.9729 44.3804 35.0612 44.8338 37.0982 45.8519C38.3176 46.4611 39.1817 47.3419 39.5288 48.6627C40.0681 50.7166 40.5806 52.778 41.1102 54.8349C41.6788 57.0409 43.172 58.5502 45.0474 59.6774C45.5591 59.9846 46.3499 59.8161 47.0029 59.9193C47.3067 59.9675 47.5894 60.1456 47.8812 60.2643C47.8513 60.3712 47.8221 60.4788 47.7922 60.5856V60.5864ZM41.9982 60.0246C42.0401 59.9556 42.0813 59.8859 42.1231 59.8169C42.079 59.7516 42.0498 59.6662 41.99 59.624C39.5924 57.9388 38.6243 55.5228 38.3191 52.729C38.2368 51.9759 37.9279 51.2472 37.7221 50.5074C37.6062 50.5222 37.4902 50.5371 37.3743 50.5519C37.3743 52.2808 37.3406 54.0105 37.387 55.7387C37.4154 56.7879 37.5718 57.8832 38.6049 58.4538C39.6926 59.0548 40.8641 59.5075 41.999 60.0246H41.9982ZM25.844 59.7605C25.8896 59.8436 25.9345 59.9267 25.9801 60.0098C27.0252 59.5535 28.0748 59.1082 29.1131 58.6378C29.85 58.3039 30.3826 57.7006 30.4096 56.9259C30.4814 54.8408 30.4342 52.7513 30.4342 50.6632C30.3482 50.655 30.2622 50.6476 30.1762 50.6395C29.9413 51.6724 29.6271 52.6941 29.4879 53.7397C29.2021 55.8915 28.3703 57.7162 26.6138 59.0734C26.3422 59.2834 26.1006 59.5305 25.8447 59.7605H25.844Z" fill="#303030"></path>
</svg>
