<?xml version="1.0" encoding="UTF-8"?>
<svg xmlns="http://www.w3.org/2000/svg" width="830" height="855" viewBox="0 0 830 855" fill="none">
  <path opacity="0.43" d="M385.287 448.264C385.287 448.264 501.758 681.914 603.152 780.229C704.545 878.543 830 851.636 830 851.636C827.237 852.099 821.178 848.692 818.513 847.725C748.481 822.381 696.698 766.365 652.958 708.135C544.109 563.225 476.526 392.634 379.81 240.057C341.161 179.093 298.719 120.056 247.426 69.2626C226.107 48.1516 202.992 28.3093 176.069 15.0624C153.999 4.20555 131.824 -0.714684 108.057 0.0843256L108.057 -0.00679987L-88.4319 -0.00681705C-88.446 3.8691 -169.046 3.06306 -169.046 3.06306C-169.046 3.06306 -173.794 64.0339 -175.007 87.5979C-89.2034 209.834 67.5855 448.257 67.5855 448.257C67.5855 448.257 184.057 681.914 285.45 780.222C386.851 878.543 512.306 851.636 512.306 851.636C509.543 852.098 503.483 848.692 500.818 847.725C430.787 822.388 379.003 766.365 335.27 708.142C226.422 563.232 158.838 392.641 62.1224 240.064C30.6062 190.342 -3.44183 141.91 -42.7565 98.1814C-34.5232 88.7895 -26.3181 80.0003 -18.1971 71.961C96.5701 185.534 227.081 448.271 227.081 448.271C227.081 448.271 343.553 681.928 444.946 780.236C546.34 878.543 671.795 851.636 671.795 851.636C669.031 852.099 662.972 848.692 660.307 847.725C590.276 822.388 538.492 766.365 494.759 708.142C385.911 563.232 318.327 392.641 221.611 240.064C182.963 179.1 140.52 120.063 89.2275 69.2696C74.0584 54.2494 57.9637 39.8811 40.249 28.0641C47.3461 24.7979 54.2468 22.562 60.9091 21.4616C183.292 41.6193 385.294 448.271 385.294 448.271L385.287 448.264Z" fill="url(#paint0_linear_700_699)" fill-opacity="0.5"></path>
  <defs>
    <linearGradient id="paint0_linear_700_699" x1="-175" y1="427.497" x2="830" y2="427.497" gradientUnits="userSpaceOnUse">
      <stop></stop>
      <stop offset="1" stop-color="#3C3C3C"></stop>
    </linearGradient>
  </defs>
</svg>
