<?xml version="1.0" encoding="UTF-8"?>
<svg xmlns="http://www.w3.org/2000/svg" width="62" height="59" viewBox="0 0 62 59" fill="none">
  <path d="M31.4248 16.7247C35.842 16.7247 40.2592 16.7397 44.6727 16.7134C45.5087 16.7096 46.0584 16.9695 46.5329 17.6887C49.3196 21.9214 52.1514 26.1277 54.9719 30.3415C55.8832 31.7047 55.8757 31.8026 54.7573 33.0679C47.4405 41.3487 40.1274 49.6296 32.8106 57.9142C32.6449 58.1024 32.483 58.2907 32.306 58.4715C31.6056 59.1907 31.1198 59.1832 30.4232 58.4037C28.4462 56.1819 26.4804 53.9526 24.511 51.7233C18.9565 45.4346 13.4059 39.1458 7.85142 32.8608C7.12464 32.0361 7.02296 31.3056 7.65937 30.5072C9.43302 28.2704 10.8565 25.8038 12.4682 23.4578C13.7787 21.5486 15.0552 19.6168 16.2979 17.6623C16.7385 16.9695 17.2846 16.7134 18.0829 16.7172C22.5302 16.7398 26.9775 16.7285 31.4248 16.7285V16.7247ZM31.3571 55.3346C31.5152 55.0259 31.5679 54.9468 31.5943 54.8602C34.1814 47.3852 36.7571 39.9027 39.3592 32.4315C39.6417 31.6219 39.1898 31.7085 38.6927 31.7085C33.8989 31.7085 29.1089 31.7085 24.3152 31.7085C23.5444 31.7085 23.2884 32.0851 23.547 32.8382C25.6106 38.8107 27.6704 44.7793 29.734 50.7518C30.2424 52.2166 30.7658 53.674 31.3533 55.3309L31.3571 55.3346ZM34.1475 53.0413C40.391 45.9693 46.6007 38.9312 52.9723 31.7123C49.0296 31.7123 45.3693 31.716 41.709 31.7047C41.2346 31.7047 41.1668 32.021 41.0538 32.3487C38.768 38.9688 36.4747 45.589 34.1927 52.2129C34.1136 52.4388 33.9516 52.661 34.1475 53.0376V53.0413ZM9.87738 31.7123C16.2904 38.9726 22.5189 46.0333 28.7512 53.0903C28.239 51.0191 27.5612 49.0459 26.8796 47.0726C25.1926 42.1998 23.5055 37.3307 21.8223 32.4579C21.6904 32.0775 21.6264 31.6972 21.0503 31.701C17.4239 31.7198 13.7975 31.7123 9.87738 31.7123ZM23.5771 29.9725C23.739 30.0629 23.7917 30.1156 23.8444 30.1156C28.7022 30.1231 33.5562 30.1269 38.414 30.1382C38.9563 30.1382 38.9977 29.965 38.7002 29.547C36.3429 26.267 33.9893 22.9871 31.6508 19.6921C31.3156 19.2214 31.1161 19.3306 30.8374 19.7297C28.4386 23.1264 26.0286 26.5193 23.5808 29.9725H23.5771ZM33.0516 18.9954C35.5671 22.5239 37.9471 25.8641 40.455 29.3813C41.6563 25.9244 42.7785 22.6896 43.9082 19.4586C44.0588 19.0255 43.8291 18.9917 43.4978 18.9954C40.0935 18.9954 36.6893 18.9954 33.0479 18.9954H33.0516ZM22.3344 29.1704C24.7896 25.6909 27.1018 22.4185 29.5156 18.9954C25.9834 18.9954 22.6658 18.9992 19.3519 18.9916C18.9038 18.9916 18.9 19.2063 19.0093 19.5226C20.0863 22.6519 21.167 25.7813 22.3344 29.1704ZM45.3354 20.0649C44.1643 23.4013 43.0722 26.5156 41.9764 29.6298C41.8032 30.1231 42.0329 30.2248 42.4659 30.2248C45.4371 30.2173 48.4083 30.2173 51.3756 30.2248C51.9141 30.2248 51.9706 30.0365 51.6957 29.6223C49.6208 26.5043 47.5459 23.3863 45.3354 20.0611V20.0649ZM17.518 20.0686C15.2925 23.4126 13.1912 26.5532 11.105 29.7051C10.7096 30.3001 11.233 30.2173 11.5494 30.2173C14.4301 30.2248 17.3109 30.2097 20.1917 30.2286C20.7829 30.2323 20.9938 30.1043 20.7566 29.4792C20.3724 28.4549 20.0524 27.408 19.6984 26.3725C19.0017 24.3427 18.2975 22.313 17.5218 20.0649L17.518 20.0686Z" fill="#BEAF87"></path>
  <path d="M38.9764 1.62414C38.709 3.41285 38.4605 5.20534 38.1667 6.99029C38.0425 7.75097 37.5153 8.12378 36.7583 8.056C35.9713 7.98821 35.4215 7.54009 35.4855 6.72293C35.6437 4.76475 35.9261 2.8141 36.3404 0.893585C36.4797 0.245881 37.0219 -0.0629086 37.7111 0.0462973C38.5395 0.174332 39.014 0.780614 38.9764 1.62414Z" fill="#BEAF87"></path>
  <path d="M26.3447 6.63256C26.3823 7.33298 26.0999 7.89407 25.2526 8.00704C24.4053 8.12002 23.8141 7.66436 23.6974 6.77189C23.4752 5.03965 23.2718 3.30742 23.0911 1.57142C22.9932 0.626229 23.381 0.0990218 24.153 0.0124101C24.9965 -0.0817329 25.6028 0.362622 25.7158 1.24757C25.9455 3.00992 26.13 4.77605 26.3447 6.62879V6.63256Z" fill="#BEAF87"></path>
  <path d="M1.31118 15.7381C1.68775 15.7268 1.98901 15.8849 2.28273 16.077C3.69112 17.0109 5.11079 17.9297 6.51164 18.8749C7.38153 19.4624 7.4945 19.9745 6.99742 20.7578C6.53424 21.4883 5.879 21.6314 5.06184 21.108C3.58568 20.1628 2.13211 19.1837 0.671006 18.2159C0.113679 17.8469 -0.14239 17.3423 0.0797872 16.687C0.279371 16.1109 0.659709 15.723 1.31118 15.7381Z" fill="#BEAF87"></path>
  <path d="M55.9662 21.3377C55.2131 21.3377 54.8666 20.9084 54.6294 20.3661C54.411 19.8653 54.588 19.4021 54.9984 19.1197C56.6139 17.9937 58.2369 16.8791 59.8939 15.8171C60.5039 15.4255 61.1064 15.6213 61.5282 16.2238C61.9387 16.8075 62.014 17.4778 61.4152 17.9034C59.7847 19.0594 58.0976 20.1327 56.4219 21.2247C56.275 21.3189 56.0641 21.3151 55.9624 21.3377H55.9662Z" fill="#BEAF87"></path>
  <path d="M13.8692 9.55474C13.8203 10.1911 13.504 10.6317 12.9165 10.8313C12.3554 11.0196 11.8094 10.8953 11.5194 10.3719C10.5742 8.64721 9.65539 6.90745 8.78175 5.14885C8.46919 4.51621 8.82317 3.98901 9.38426 3.65386C9.92276 3.33377 10.5818 3.31495 10.9131 3.84215C12.0052 5.58568 12.9278 7.43088 13.8128 9.29115C13.8504 9.37399 13.8504 9.4719 13.8692 9.55474Z" fill="#BEAF87"></path>
  <path d="M53.2023 4.73839C53.2211 5.04342 53.0742 5.28442 52.9424 5.53295C52.1592 7.02418 51.3797 8.5154 50.5889 10.0029C50.1332 10.8614 49.4968 11.11 48.7625 10.741C47.9642 10.3418 47.7872 9.70538 48.2654 8.78654C49.0713 7.23883 49.9035 5.70241 50.7169 4.15847C51.0445 3.54089 51.5567 3.33754 52.2044 3.52206C52.7994 3.69152 53.1383 4.11328 53.1985 4.73462L53.2023 4.73839Z" fill="#BEAF87"></path>
</svg>
