<?xml version="1.0" encoding="UTF-8"?>
<svg xmlns="http://www.w3.org/2000/svg" width="66" height="53" viewBox="0 0 66 53" fill="none">
  <path d="M38.8781 21.3379C38.8781 15.7959 38.8636 10.2575 38.8927 4.71548C38.8963 3.93625 38.7616 3.63039 37.8731 3.63403C31.9961 3.67773 26.1191 3.67045 20.242 3.64132C19.4919 3.63768 19.2807 3.83795 19.2807 4.59534C19.3062 13.5565 19.2917 22.5177 19.3099 31.4789C19.3099 32.2181 19.2298 32.6077 18.334 32.4657C17.6859 32.3638 17.0013 32.4366 16.3422 32.5021C15.7997 32.5567 15.6213 32.3492 15.6686 31.8467C15.6795 31.7265 15.6686 31.6063 15.6686 31.4825C15.6686 21.3416 15.6795 11.197 15.6504 1.05602C15.6504 0.229451 15.8579 -0.00359943 16.6991 4.18522e-05C24.9684 0.0328134 33.2378 0.0291721 41.5071 4.18522e-05C42.2973 4.18522e-05 42.5376 0.182102 42.523 0.997749C42.4684 3.60127 42.5303 6.20476 42.4866 8.80828C42.4757 9.51469 42.6978 9.79509 43.3824 9.97352C50.5229 11.8561 57.6526 13.7823 64.7968 15.6612C65.5505 15.8578 65.7763 16.171 65.7726 16.9429C65.7435 25.1467 65.7399 33.3505 65.7726 41.558C65.7763 42.4428 65.5214 42.6577 64.6584 42.6577C54.6012 42.6285 44.544 42.6322 34.4867 42.654C33.8058 42.654 33.4016 42.4647 33.0193 41.8784C31.246 39.1657 28.7991 37.2649 25.8168 35.9977C24.455 35.4188 24.3822 35.0037 25.0631 33.6418C25.9916 31.7884 27.9725 30.8162 29.9898 31.224C32.018 31.6355 33.4417 33.2559 33.5619 35.3678C33.6201 36.3655 33.5983 37.3669 33.5801 38.3646C33.5728 38.827 33.733 39.0164 34.2064 39.0091C35.5099 38.9909 36.8135 38.969 38.1135 39.0164C38.8162 39.0419 38.8854 38.7105 38.8818 38.1388C38.8636 34.96 38.8745 31.7811 38.8745 28.6023C38.8745 26.1808 38.8745 23.7594 38.8745 21.3379H38.8781ZM42.5413 26.1918C42.5413 30.1862 42.5522 34.1771 42.5303 38.1716C42.5303 38.7797 42.6687 39.0237 43.3314 39.02C49.325 38.9982 55.3185 38.9982 61.3084 39.02C61.9347 39.02 62.1386 38.838 62.1386 38.2007C62.1168 31.9705 62.1204 25.7366 62.1386 19.5064C62.1386 18.9675 61.993 18.7053 61.4395 18.5596C55.4205 16.9611 49.4014 15.3481 43.3933 13.7095C42.676 13.5128 42.5267 13.6913 42.5303 14.3977C42.5595 18.3303 42.5449 22.2628 42.5449 26.1954L42.5413 26.1918Z" fill="#BCB08A"></path>
  <path d="M17.5514 52.886C12.3152 52.886 7.07908 52.886 1.84291 52.886C0.728682 52.886 0.164283 52.5401 0.0259144 51.7827C-0.123378 50.9743 0.375477 50.2752 1.44237 49.9948C2.10509 49.8237 2.06503 49.3175 2.13422 48.8733C2.31992 47.6389 2.61122 46.4373 3.121 45.3012C4.21339 42.8616 5.92115 40.9426 8.11684 39.4351C8.66303 39.06 8.94705 39.0382 8.91428 39.8465C8.88151 40.6913 8.91428 41.5398 8.95798 42.3882C9.0126 43.4769 9.33303 43.8484 10.156 43.8484C10.9898 43.8484 11.3539 43.4514 11.3685 42.3991C11.3831 41.3431 11.3685 40.2799 11.303 39.2275C11.2229 37.8803 11.5433 37.3923 12.8469 37.1229C13.7645 36.9335 14.6238 36.7405 14.8022 35.5753C14.8605 35.1894 15.3266 35.102 15.6907 35.0692C16.8668 34.9563 18.0466 34.9272 19.2264 35.0474C19.6925 35.0947 20.1513 35.2076 20.2496 35.7683C20.3916 36.5694 20.9706 36.8134 21.6588 36.9663C23.6688 37.4106 23.7889 37.6072 23.7088 39.6536C23.6688 40.6185 23.7307 41.5871 23.7489 42.5557C23.7634 43.3058 24.1093 43.7682 24.8995 43.7755C25.7406 43.7828 26.0866 43.2803 26.0975 42.5011C26.1084 41.6235 26.1339 40.746 26.0975 39.8684C26.072 39.1729 26.2504 38.9836 26.8986 39.3696C28.7083 40.4474 30.092 41.9476 31.2135 43.6954C32.1894 45.2138 32.7865 46.8888 33.0378 48.6839C33.1324 49.3649 33.289 49.9111 34.1411 50.1077C34.924 50.2898 35.3063 50.9816 35.1606 51.8045C35.015 52.6238 34.4105 52.8969 33.6204 52.8933C28.2641 52.886 22.9041 52.8896 17.5478 52.8896L17.5514 52.886Z" fill="#BCB08A"></path>
  <path d="M29.1415 7.3008C31.075 7.3008 33.0122 7.32632 34.9457 7.28627C35.5574 7.27534 35.7322 7.4829 35.7104 8.06186C35.6776 9.11783 35.6812 10.1774 35.7104 11.2334C35.7249 11.7541 35.5938 11.9944 35.0076 11.9908C31.0787 11.9689 27.1497 11.9726 23.2171 11.9908C22.66 11.9908 22.4779 11.7942 22.4925 11.2516C22.5253 10.1957 22.5398 9.13601 22.4889 8.08004C22.4561 7.4064 22.7401 7.28263 23.3373 7.29356C25.2708 7.32269 27.208 7.30445 29.1415 7.30445V7.3008Z" fill="#BCB08A"></path>
  <path d="M29.116 19.6411C27.1789 19.6411 25.2417 19.6156 23.3045 19.6557C22.6527 19.6702 22.467 19.4408 22.4925 18.8218C22.5326 17.795 22.5362 16.7645 22.4925 15.7377C22.4634 15.0859 22.711 14.9184 23.33 14.922C27.1752 14.9439 31.0168 14.9439 34.862 14.922C35.4628 14.922 35.7431 15.0531 35.714 15.7195C35.6667 16.7754 35.674 17.8387 35.714 18.8947C35.7359 19.4955 35.5174 19.6666 34.9275 19.6557C32.9903 19.6229 31.0532 19.6447 29.116 19.6447V19.6411Z" fill="#BCB08A"></path>
  <path d="M29.1458 27.2805C27.1759 27.2805 25.2096 27.2659 23.2397 27.2914C22.7044 27.2987 22.475 27.1567 22.4932 26.5814C22.5296 25.4926 22.5223 24.4039 22.4932 23.3115C22.4786 22.7835 22.6279 22.5541 23.2032 22.5541C27.1395 22.5723 31.0757 22.5723 35.0156 22.5541C35.5253 22.5541 35.7183 22.718 35.7074 23.2314C35.6819 24.3493 35.6746 25.4708 35.7074 26.5887C35.7256 27.1749 35.4816 27.2914 34.9537 27.2841C33.0165 27.2586 31.0757 27.2732 29.1385 27.2732L29.1458 27.2805Z" fill="#BCB08A"></path>
  <path d="M52.373 26.9128C51.4372 26.9128 50.5014 26.8945 49.5656 26.92C49.1032 26.9309 48.9138 26.778 48.9211 26.3046C48.9393 24.7061 48.932 23.1039 48.9211 21.5054C48.9211 21.1012 49.0449 20.8937 49.4928 20.8974C51.3935 20.9083 53.2979 20.9083 55.1987 20.8974C55.6247 20.8974 55.7813 21.0503 55.7776 21.48C55.7631 23.1112 55.7594 24.7389 55.7776 26.3702C55.7813 26.8254 55.5846 26.9309 55.1805 26.9236C54.2446 26.9054 53.3088 26.9164 52.373 26.9164V26.9128Z" fill="#BCB08A"></path>
  <path d="M52.3329 35.3532C51.4262 35.3532 50.5196 35.335 49.6129 35.3605C49.1177 35.3751 48.9065 35.2185 48.9174 34.6942C48.9429 33.1539 48.9392 31.6136 48.9174 30.0734C48.9101 29.5818 49.0521 29.3634 49.5801 29.3706C51.4517 29.3925 53.327 29.3852 55.1986 29.3743C55.6174 29.3743 55.7849 29.509 55.7812 29.9496C55.7594 31.5481 55.7557 33.1503 55.7812 34.7488C55.7885 35.244 55.5882 35.3678 55.1403 35.3569C54.2045 35.335 53.2687 35.3496 52.3293 35.3496L52.3329 35.3532Z" fill="#BCB08A"></path>
</svg>
