<?xml version="1.0" encoding="UTF-8"?>
<svg xmlns="http://www.w3.org/2000/svg" width="118" height="118" viewBox="0 0 118 118" fill="none">
  <g clip-path="url(#clip0_685_338)">
    <path d="M59 118C91.5848 118 118 91.5848 118 59C118 26.4152 91.5848 0 59 0C26.4152 0 0 26.4152 0 59C0 91.5848 26.4152 118 59 118Z" fill="url(#paint0_linear_685_338)"></path>
    <path d="M64.8781 54.3379C64.8781 48.7959 64.8636 43.2575 64.8927 37.7155C64.8963 36.9362 64.7616 36.6304 63.8731 36.634C57.9961 36.6777 52.1191 36.6705 46.242 36.6413C45.4919 36.6377 45.2807 36.838 45.2807 37.5953C45.3062 46.5565 45.2917 55.5177 45.3099 64.4789C45.3099 65.2181 45.2298 65.6077 44.334 65.4657C43.6859 65.3638 43.0013 65.4366 42.3422 65.5021C41.7997 65.5567 41.6213 65.3492 41.6686 64.8467C41.6795 64.7265 41.6686 64.6063 41.6686 64.4825C41.6686 54.3416 41.6795 44.197 41.6504 34.056C41.6504 33.2295 41.8579 32.9964 42.6991 33C50.9684 33.0328 59.2378 33.0292 67.5071 33C68.2973 33 68.5376 33.1821 68.523 33.9977C68.4684 36.6013 68.5303 39.2048 68.4866 41.8083C68.4757 42.5147 68.6978 42.7951 69.3824 42.9735C76.5229 44.8561 83.6526 46.7823 90.7968 48.6612C91.5505 48.8578 91.7763 49.171 91.7726 49.9429C91.7435 58.1467 91.7399 66.3505 91.7726 74.558C91.7763 75.4428 91.5214 75.6577 90.6584 75.6577C80.6012 75.6285 70.544 75.6322 60.4867 75.654C59.8058 75.654 59.4016 75.4647 59.0193 74.8784C57.246 72.1657 54.7991 70.2649 51.8168 68.9977C50.455 68.4188 50.3822 68.0037 51.0631 66.6418C51.9916 64.7884 53.9725 63.8162 55.9898 64.224C58.018 64.6355 59.4417 66.2559 59.5619 68.3678C59.6201 69.3655 59.5983 70.3669 59.5801 71.3646C59.5728 71.827 59.733 72.0164 60.2064 72.0091C61.5099 71.9909 62.8135 71.969 64.1135 72.0164C64.8162 72.0419 64.8854 71.7105 64.8818 71.1388C64.8636 67.96 64.8745 64.7811 64.8745 61.6023C64.8745 59.1808 64.8745 56.7594 64.8745 54.3379H64.8781ZM68.5413 59.1918C68.5413 63.1862 68.5522 67.1771 68.5303 71.1716C68.5303 71.7797 68.6687 72.0237 69.3314 72.02C75.325 71.9982 81.3185 71.9982 87.3084 72.02C87.9347 72.02 88.1386 71.838 88.1386 71.2007C88.1168 64.9705 88.1204 58.7366 88.1386 52.5064C88.1386 51.9675 87.993 51.7053 87.4395 51.5596C81.4205 49.9611 75.4014 48.3481 69.3933 46.7095C68.676 46.5128 68.5267 46.6913 68.5303 47.3977C68.5595 51.3303 68.5449 55.2628 68.5449 59.1954L68.5413 59.1918Z" fill="#212121"></path>
    <path d="M43.5514 85.886C38.3152 85.886 33.0791 85.886 27.8429 85.886C26.7287 85.886 26.1643 85.5401 26.0259 84.7827C25.8766 83.9743 26.3755 83.2752 27.4424 82.9948C28.1051 82.8237 28.065 82.3175 28.1342 81.8733C28.3199 80.6389 28.6112 79.4373 29.121 78.3012C30.2134 75.8616 31.9211 73.9426 34.1168 72.4351C34.663 72.06 34.9471 72.0382 34.9143 72.8465C34.8815 73.6913 34.9143 74.5398 34.958 75.3882C35.0126 76.4769 35.333 76.8484 36.156 76.8484C36.9898 76.8484 37.3539 76.4514 37.3685 75.3991C37.3831 74.3431 37.3685 73.2799 37.303 72.2275C37.2229 70.8803 37.5433 70.3923 38.8469 70.1229C39.7645 69.9335 40.6238 69.7405 40.8022 68.5753C40.8605 68.1894 41.3266 68.102 41.6907 68.0692C42.8668 67.9563 44.0466 67.9272 45.2264 68.0474C45.6925 68.0947 46.1513 68.2076 46.2496 68.7683C46.3916 69.5694 46.9706 69.8134 47.6588 69.9663C49.6688 70.4106 49.7889 70.6072 49.7088 72.6536C49.6688 73.6185 49.7307 74.5871 49.7489 75.5557C49.7634 76.3058 50.1093 76.7682 50.8995 76.7755C51.7406 76.7828 52.0866 76.2803 52.0975 75.5011C52.1084 74.6235 52.1339 73.746 52.0975 72.8684C52.072 72.1729 52.2504 71.9836 52.8986 72.3696C54.7083 73.4474 56.092 74.9476 57.2135 76.6954C58.1894 78.2138 58.7865 79.8888 59.0378 81.6839C59.1324 82.3649 59.289 82.9111 60.1411 83.1077C60.924 83.2898 61.3063 83.9816 61.1606 84.8045C61.015 85.6238 60.4105 85.8969 59.6204 85.8933C54.2641 85.886 48.9041 85.8896 43.5478 85.8896L43.5514 85.886Z" fill="#212121"></path>
    <path d="M55.1415 40.3008C57.075 40.3008 59.0122 40.3264 60.9457 40.2863C61.5574 40.2754 61.7322 40.4829 61.7104 41.0619C61.6776 42.1179 61.6812 43.1775 61.7104 44.2334C61.7249 44.7541 61.5938 44.9944 61.0076 44.9908C57.0787 44.969 53.1497 44.9726 49.2171 44.9908C48.66 44.9908 48.4779 44.7942 48.4925 44.2517C48.5253 43.1957 48.5398 42.136 48.4889 41.0801C48.4561 40.4064 48.7401 40.2827 49.3373 40.2936C51.2708 40.3227 53.208 40.3045 55.1415 40.3045V40.3008Z" fill="#212121"></path>
    <path d="M55.116 52.6411C53.1789 52.6411 51.2417 52.6157 49.3045 52.6557C48.6527 52.6703 48.467 52.4409 48.4925 51.8219C48.5326 50.795 48.5362 49.7645 48.4925 48.7377C48.4634 48.0859 48.711 47.9184 49.33 47.9221C53.1752 47.9439 57.0168 47.9439 60.862 47.9221C61.4628 47.9221 61.7431 48.0532 61.714 48.7195C61.6667 49.7755 61.674 50.8387 61.714 51.8947C61.7359 52.4955 61.5174 52.6666 60.9275 52.6557C58.9903 52.6229 57.0532 52.6448 55.116 52.6448V52.6411Z" fill="#212121"></path>
    <path d="M55.1458 60.2805C53.1759 60.2805 51.2096 60.2659 49.2397 60.2914C48.7044 60.2987 48.475 60.1567 48.4932 59.5814C48.5296 58.4926 48.5223 57.4039 48.4932 56.3115C48.4786 55.7835 48.6279 55.5541 49.2032 55.5541C53.1395 55.5723 57.0757 55.5723 61.0156 55.5541C61.5253 55.5541 61.7183 55.7179 61.7074 56.2314C61.6819 57.3492 61.6746 58.4708 61.7074 59.5886C61.7256 60.1749 61.4816 60.2914 60.9537 60.2841C59.0165 60.2586 57.0757 60.2732 55.1385 60.2732L55.1458 60.2805Z" fill="#212121"></path>
    <path d="M78.373 59.9128C77.4372 59.9128 76.5014 59.8945 75.5656 59.92C75.1032 59.931 74.9138 59.778 74.9211 59.3047C74.9393 57.7062 74.932 56.104 74.9211 54.5055C74.9211 54.1013 75.0449 53.8937 75.4928 53.8974C77.3935 53.9083 79.2979 53.9083 81.1987 53.8974C81.6247 53.8974 81.7813 54.0503 81.7776 54.48C81.7631 56.1113 81.7594 57.7389 81.7776 59.3702C81.7813 59.8254 81.5846 59.931 81.1805 59.9237C80.2446 59.9055 79.3088 59.9164 78.373 59.9164V59.9128Z" fill="#212121"></path>
    <path d="M78.3329 68.3533C77.4262 68.3533 76.5196 68.3351 75.6129 68.3605C75.1177 68.3751 74.9065 68.2186 74.9174 67.6942C74.9429 66.1539 74.9392 64.6137 74.9174 63.0734C74.9101 62.5818 75.0521 62.3634 75.5801 62.3707C77.4517 62.3925 79.327 62.3852 81.1986 62.3743C81.6174 62.3743 81.7849 62.509 81.7812 62.9496C81.7594 64.5481 81.7557 66.1503 81.7812 67.7488C81.7885 68.244 81.5882 68.3678 81.1403 68.3569C80.2045 68.3351 79.2687 68.3496 78.3293 68.3496L78.3329 68.3533Z" fill="#212121"></path>
  </g>
  <defs>
    <linearGradient id="paint0_linear_685_338" x1="0" y1="59" x2="118" y2="59" gradientUnits="userSpaceOnUse">
      <stop stop-color="#AA9573"></stop>
      <stop offset="1" stop-color="#E5D399"></stop>
    </linearGradient>
    <clipPath id="clip0_685_338">
      <rect width="118" height="118" fill="white"></rect>
    </clipPath>
  </defs>
</svg>
