<?xml version="1.0" encoding="UTF-8"?>
<svg xmlns="http://www.w3.org/2000/svg" width="54" height="54" viewBox="0 0 54 54" fill="none">
  <g clip-path="url(#clip0_672_127)">
    <path d="M52.9688 17.4069C44.3298 17.4317 35.6908 17.4211 27.0518 17.4211C18.3844 17.4211 9.71706 17.4282 1.04969 17.4069C0.31589 17.4069 0.000390839 17.5205 0.00393577 18.3765C0.0358402 27.7778 0.0145706 37.1792 0.0287503 46.5805C0.0358402 50.974 3.09157 53.9965 7.50502 54C20.4937 54.0036 33.4788 54.0036 46.4674 54C50.9234 54 53.972 50.9669 53.9756 46.513C53.9862 37.1401 53.9685 27.7672 53.9968 18.3978C53.9968 17.5667 53.7274 17.4069 52.9688 17.4104V17.4069ZM38.665 29.2873C36.4246 31.5533 34.17 33.8015 31.919 36.0568C29.5864 38.3938 27.2503 40.7309 24.9213 43.0714C24.4498 43.5438 23.9571 43.9416 23.2764 43.8954C22.6064 43.9096 22.1172 43.629 21.7273 43.1354C19.5401 40.3544 17.3351 37.5876 15.1621 34.7995C14.4176 33.8441 14.5524 32.7005 15.4102 32.047C16.3106 31.3615 17.328 31.5 18.1221 32.4838C19.7457 34.5047 21.3586 36.5399 22.9397 38.5963C23.3296 39.1042 23.5459 39.1077 23.9961 38.6531C27.938 34.6681 31.9048 30.7151 35.8574 26.7407C36.4317 26.1618 37.0627 25.7747 37.8993 25.9949C39.3953 26.3891 39.8065 28.1294 38.665 29.2837V29.2873Z" fill="#BCB08A"></path>
    <path d="M1.0497 14.601C17.6081 14.5762 34.1665 14.5797 50.7213 14.5797C51.5579 14.5797 52.3945 14.5406 53.2276 14.5904C53.8551 14.6294 54.0181 14.3844 53.9898 13.7983C53.9472 12.8785 53.9969 11.9515 53.972 11.0316C53.8799 7.60418 51.7246 4.89069 48.3746 4.16259C46.3185 3.71507 44.2093 3.97435 42.1213 4.01342C42.1178 5.7573 42.132 7.50473 42.1001 9.24862C42.0788 10.371 41.1358 11.0422 40.1681 10.6657C39.6434 10.4633 39.296 10.0726 39.2925 9.49724C39.2747 7.66811 39.1967 5.84254 39.3315 4.01342C35.7085 3.91752 32.0892 3.92818 28.4662 4.00631C28.4485 5.83899 28.4237 7.67166 28.4131 9.50434C28.4095 10.1081 28.289 10.6551 27.7324 10.9961C26.7505 11.5963 25.6196 10.925 25.5877 9.67482C25.5452 8.09432 25.5807 6.51026 25.57 4.9262C25.57 4.62076 25.531 4.31176 25.5062 4.00631C21.94 3.92462 18.3773 3.92462 14.8111 4.00631C14.6481 5.69692 14.7721 7.39108 14.7438 9.08169C14.7331 9.7281 14.5914 10.2857 13.9781 10.6125C12.9678 11.1488 11.8937 10.4313 11.8759 9.17758C11.8511 7.45501 11.8582 5.73244 11.8511 4.01342C10.0184 3.91042 8.17147 3.82873 6.35647 4.02407C3.63041 4.32241 1.69488 5.82478 0.567588 8.36069C-0.180393 10.0442 0.117381 11.82 0.00748814 13.5639C-0.0456859 14.4092 0.220184 14.6046 1.0497 14.6046V14.601Z" fill="#BCB08A"></path>
    <path d="M28.4693 4.01388C28.4693 4.01388 28.4693 3.99936 28.4693 3.9921L28.4512 4.01388C28.4512 4.01388 28.462 4.01388 28.4693 4.01388Z" fill="#BCB08A"></path>
    <path d="M42.1247 4.01733C42.1247 4.01733 42.1247 3.99935 42.1247 3.98856L42.0996 4.01733C42.0996 4.01733 42.1176 4.01733 42.1247 4.01733Z" fill="#BCB08A"></path>
    <path d="M14.8143 4.01388C14.8143 4.01388 14.8143 3.99936 14.8143 3.9921L14.7998 4.01388C14.7998 4.01388 14.807 4.01388 14.8143 4.01388Z" fill="#BCB08A"></path>
    <path d="M14.8143 3.9921H14.7998C14.7998 3.9921 14.7998 4.00662 14.7998 4.01388L14.8143 3.9921Z" fill="#BCB08A"></path>
    <path d="M14.7363 1.51302C14.6937 0.58603 14.1265 0 13.3112 0C12.4959 0 11.9074 0.596685 11.879 1.51302C11.8542 2.33702 11.8755 3.16456 11.879 3.99211C12.8539 3.99211 13.8288 3.99211 14.8036 3.99211C14.7823 3.16456 14.7753 2.34057 14.7398 1.51302H14.7363Z" fill="#BCB08A"></path>
    <path d="M11.8762 3.98856C11.8762 3.98856 11.8617 3.98856 11.8545 3.98856C11.8545 3.99581 11.8545 4.0067 11.8545 4.01396C11.8617 4.01396 11.869 4.01396 11.8762 4.01396C11.8762 4.0067 11.8762 3.99581 11.8762 3.98856Z" fill="#BCB08A"></path>
    <path d="M42.1247 3.98856C42.1247 3.98856 42.1068 3.98856 42.0996 3.98856C42.0996 3.99935 42.0996 4.00654 42.0996 4.01733L42.1247 3.98856Z" fill="#BCB08A"></path>
    <path d="M39.3702 3.98856C39.3702 3.98856 39.3487 3.98856 39.3379 3.98856C39.3379 3.99935 39.3379 4.01014 39.3379 4.02093C39.3522 4.02093 39.3666 4.02093 39.381 4.02093C39.381 4.01014 39.3774 3.99935 39.3738 3.98856H39.3702Z" fill="#BCB08A"></path>
    <path d="M42.0921 1.33899C42.046 0.529205 41.4328 -0.00354931 40.6741 2.39151e-06C39.9084 0.00355409 39.3093 0.53986 39.2916 1.35675C39.2739 2.23402 39.1534 3.11839 39.3696 3.98856C40.2807 3.98856 41.1882 3.98856 42.0992 3.98856C42.0992 3.10419 42.1417 2.21981 42.0921 1.33544V1.33899Z" fill="#BCB08A"></path>
    <path d="M28.4087 1.94988C28.3661 1.01934 27.7989 0.422653 26.9942 0.422653C26.1895 0.422653 25.6259 1.01579 25.5763 1.95343C25.5408 2.63181 25.5373 3.31373 25.5195 3.99566C26.4979 3.99566 27.4728 3.99566 28.4512 3.99566C28.437 3.31373 28.4406 2.63536 28.4087 1.95343V1.94988Z" fill="#BCB08A"></path>
    <path d="M28.4693 3.9921H28.4512C28.4512 3.9921 28.4512 4.00662 28.4512 4.01388L28.4693 3.9921Z" fill="#BCB08A"></path>
    <path d="M25.5243 3.9921H25.5098C25.5098 3.9921 25.5098 4.00662 25.5098 4.01388C25.5134 4.01388 25.5206 4.01388 25.5243 4.01388C25.5243 4.00662 25.5243 3.99936 25.5243 3.9921Z" fill="#BCB08A"></path>
  </g>
  <defs>
    <clipPath id="clip0_672_127">
      <rect width="54" height="54" fill="white"></rect>
    </clipPath>
  </defs>
</svg>
