<?xml version="1.0" encoding="UTF-8"?>
<svg xmlns="http://www.w3.org/2000/svg" width="58" height="66" viewBox="0 0 58 66" fill="none">
  <g clip-path="url(#clip0_661_5495)">
    <path d="M0.0126942 21.6424C0.0126942 17.3259 0.0222149 13.0093 0 8.69282C0 8.16427 0.0856862 7.91257 0.691836 7.8528C7.75618 7.16064 14.024 4.4172 19.8125 0.471923C20.2918 0.144723 20.7646 0 21.3454 0C26.4643 0.0157308 31.5833 0.0157308 36.7022 0C37.2322 0 37.6575 0.135285 38.0891 0.434169C42.7574 3.65268 47.8097 6.03747 53.3793 7.27076C54.6868 7.56021 56.0134 7.77414 57.3526 7.86853C57.8667 7.90314 57.9873 8.11393 57.9873 8.59844C57.9714 16.9704 58.0413 25.3423 57.9461 33.7142C57.8953 38.0968 56.61 42.2245 54.4075 46.0125C48.8475 55.5705 40.7009 62.061 30.2472 65.764C29.384 66.0692 28.5938 66.0849 27.7242 65.7672C16.0804 61.5136 7.19129 54.2177 2.03425 42.8443C0.599803 39.673 -0.0253885 36.2877 0.00317356 32.7892C0.0349092 29.0736 0.00952068 25.358 0.00952068 21.6455L0.0126942 21.6424ZM11.7898 30.5271C11.7898 39.9404 19.5047 47.551 29.019 47.5289C38.5175 47.5069 46.1118 39.9499 46.1531 30.5334C46.1912 21.5921 39.0412 13.4939 28.9841 13.4844C19.3048 13.475 11.8469 21.1421 11.7898 30.5271Z" fill="#BCB08A"></path>
    <path d="M25.6421 38.4523C25.0423 38.4649 24.6044 38.2163 24.2553 37.779C22.2972 35.3156 20.3232 32.8647 18.3779 30.395C17.7114 29.5487 17.832 28.5356 18.6 27.9567C19.4061 27.3495 20.3169 27.4722 21.0278 28.3437C22.4813 30.1339 23.9252 31.9366 25.3406 33.7582C25.6897 34.2081 25.8833 34.2113 26.2864 33.8086C29.8154 30.2786 33.3666 26.7769 36.9051 23.2564C37.4192 22.7435 37.9841 22.4006 38.7331 22.5957C40.0723 22.9449 40.4404 24.4865 39.4186 25.509C37.4129 27.5163 35.3945 29.5078 33.3793 31.5056C31.2911 33.5758 29.1997 35.6459 27.1147 37.7192C26.6926 38.1377 26.2515 38.4932 25.6421 38.4491V38.4523Z" fill="#BCB08A"></path>
  </g>
  <defs>
    <clipPath id="clip0_661_5495">
      <rect width="58" height="66" fill="white"></rect>
    </clipPath>
  </defs>
</svg>
