<?xml version="1.0" encoding="UTF-8"?>
<svg xmlns="http://www.w3.org/2000/svg" width="56" height="56" viewBox="0 0 56 56" fill="none">
  <path d="M11.1006 54.9768C8.66817 54.9768 6.23569 54.9839 3.80321 54.9768C2.33017 54.9732 1.74524 54.4062 1.7488 52.9367C1.7488 52.3446 1.6846 51.9701 0.981968 51.806C0.368499 51.6634 0.0439311 51.0713 0.0296644 50.4364C-0.00243571 49.1025 -0.0167024 47.7685 0.0296644 46.4346C0.0688979 45.3503 0.782234 44.7048 1.86651 44.6905C3.11128 44.6763 4.35961 44.6905 5.60439 44.6834C7.10239 44.6762 6.89552 44.8046 6.91336 43.4243C6.91336 43.2745 6.92049 43.1283 6.91336 42.9785C6.87412 42.1546 7.17016 41.6446 8.09393 41.7444C8.61823 41.8015 8.76447 41.5839 8.69313 41.0739C8.41136 39.0302 7.86566 37.0507 6.83489 35.2709C6.28206 34.315 5.35472 33.591 4.96952 32.4925C4.10638 30.0386 4.47018 27.7952 6.18219 25.8549C7.8942 23.9182 10.1055 23.187 12.6165 23.8254C15.1809 24.4781 16.8394 26.1652 17.4315 28.776C17.9237 30.9517 17.2817 32.8242 15.9157 34.5683C14.3713 36.5371 13.8149 38.9054 13.5403 41.3485C13.4868 41.8372 13.8327 41.7551 14.1181 41.773C15.2915 41.8514 15.4734 42.0476 15.4912 43.2424C15.5055 44.2055 15.9977 44.6869 16.9678 44.6869C18.1234 44.6869 19.2826 44.6727 20.4382 44.6905C21.6866 44.7083 22.407 45.436 22.4249 46.695C22.4427 47.9112 22.4177 49.1275 22.432 50.3401C22.4427 51.164 22.1039 51.7347 21.2764 51.8845C20.777 51.9737 20.6879 52.2091 20.6807 52.6656C20.6522 54.4347 20.0815 54.9768 18.3089 54.9804C15.905 54.9839 13.501 54.9804 11.1006 54.9804V54.9768ZM11.2005 51.9772C8.8893 51.9772 6.57809 51.9772 4.26331 51.9772C3.82105 51.9772 3.38591 51.8881 3.38591 52.6121C3.38591 53.3147 3.78181 53.2684 4.24548 53.2648C8.8679 53.2612 13.4939 53.2577 18.1163 53.2648C18.6156 53.2648 18.9545 53.247 18.9473 52.58C18.9402 51.9202 18.5621 51.9737 18.1341 51.9737C15.8229 51.9737 13.5117 51.9737 11.1969 51.9737L11.2005 51.9772ZM10.9009 26.636C9.2959 26.6289 7.62669 28.3408 7.66593 29.9423C7.68019 30.5023 7.9156 30.8625 8.4934 30.891C9.03197 30.916 9.29947 30.6057 9.34583 30.0778C9.43857 29.047 9.98784 28.4621 11.0364 28.3622C11.5964 28.3087 11.9317 27.9877 11.8889 27.4278C11.8461 26.8678 11.4573 26.6182 10.9009 26.636Z" fill="#BCB08A"></path>
  <path d="M35.7353 48.7316C35.0898 45.5073 36.5771 42.9036 37.9823 40.2393C41.2173 34.1117 44.381 27.9485 47.5731 21.7996C48.2116 20.5655 48.7359 20.3943 49.9914 21.0506C51.3039 21.7389 52.6129 22.4309 53.9183 23.1335C55.1381 23.7898 55.3164 24.339 54.6744 25.5838C51.789 31.1585 48.8928 36.7261 46.0002 42.2973C45.0729 44.0842 44.1384 45.8675 43.2289 47.6616C43.0078 48.0967 42.726 48.4462 42.3337 48.7351C40.4433 50.1154 38.5637 51.5136 36.6805 52.901C36.3987 53.1079 36.1063 53.4075 35.7282 53.2078C35.343 53.0045 35.4571 52.5871 35.4536 52.2412C35.4464 51.057 35.4536 49.8729 35.4536 48.6888L35.746 48.728L35.7353 48.7316ZM37.4045 45.6642C37.3403 47.1087 37.2833 48.3999 37.2262 49.691C37.2084 50.0833 37.3617 50.1832 37.6899 49.9407C38.6172 49.2594 39.5445 48.5782 40.4683 47.8934C40.6752 47.7436 40.8785 47.5902 40.5111 47.3869C39.5124 46.8341 38.5173 46.2813 37.4045 45.6642Z" fill="#BCB08A"></path>
  <path d="M43.4857 25.327C43.4857 19.5454 43.4857 13.7674 43.4857 7.9858C43.4857 6.1775 43.4571 4.3692 43.4999 2.5609C43.5178 1.89393 43.3216 1.70846 42.6546 1.71202C37.7005 1.74056 32.7428 1.72628 27.7887 1.72628C22.535 1.72628 17.2848 1.74055 12.0311 1.70845C11.2892 1.70489 11.0824 1.91531 11.0859 2.65361C11.1145 8.75977 11.1002 14.8695 11.1002 20.9757C11.1002 21.6997 10.4118 22.3274 9.7199 22.249C9.33113 22.2026 9.47023 21.8994 9.46666 21.6997C9.44883 20.7224 9.45953 19.7416 9.45953 18.7643C9.45953 13.2502 9.45953 7.73614 9.45953 2.21849C9.45953 0.52788 9.99453 0 11.7065 0C22.0927 0 32.4789 0 42.8615 0C44.6627 0 45.1228 0.463688 45.1228 2.272C45.1228 8.43879 45.0621 14.6056 45.162 20.7724C45.1905 22.5628 44.3345 23.9003 43.4857 25.3234V25.327Z" fill="#BCB08A"></path>
  <path d="M24.6225 23.6114C23.0817 23.6114 21.5373 23.6221 19.9965 23.6079C18.7553 23.5936 18.0634 22.9266 18.0527 21.6783C18.0313 18.9819 18.042 16.2855 18.0491 13.5855C18.0491 12.9043 18.2952 12.3265 18.7874 11.8343C21.2449 9.38752 23.688 6.9265 26.1526 4.48689C27.0229 3.62375 27.936 3.6202 28.8134 4.47977C31.3065 6.93365 33.7782 9.40892 36.2642 11.8699C36.7813 12.38 37.0096 12.9899 37.0096 13.7068C37.0096 16.314 37.0203 18.9248 37.006 21.5321C36.9953 23.1727 35.7006 24.0822 34.1455 23.5579C33.7175 23.4153 33.5249 23.0943 33.5784 22.6663C33.6284 22.2418 33.8994 21.8887 34.3381 21.9565C35.2441 22.0992 35.269 21.6105 35.2619 20.9328C35.2334 18.6216 35.2405 16.3104 35.2619 13.9957C35.2655 13.5142 35.1299 13.1611 34.7875 12.8222C32.5049 10.5752 30.2293 8.32464 27.9823 6.04553C27.5508 5.61039 27.3189 5.6853 26.9337 6.07764C24.7259 8.31395 22.5003 10.5324 20.264 12.7438C19.9216 13.0826 19.7718 13.4286 19.7754 13.9136C19.7968 16.314 19.8075 18.7144 19.7718 21.1148C19.7611 21.7532 19.9823 21.9137 20.585 21.9066C23.0781 21.878 25.5677 21.8816 28.0608 21.9066C28.6243 21.9101 28.8597 21.7603 28.8348 21.1576C28.792 20.1803 28.8098 19.203 28.8276 18.2222C28.8348 17.7763 28.6957 17.541 28.2177 17.5873C28.1286 17.5945 28.0394 17.5873 27.9502 17.5873C26.3381 17.5659 26.3238 17.5659 26.2418 19.1567C26.2097 19.7523 25.9707 20.1589 25.3608 20.1553C24.8008 20.1518 24.5298 19.763 24.5298 19.203C24.5298 16.9703 24.0911 15.7398 27.6043 15.8717C30.3328 15.9716 30.5325 16.0893 30.5325 18.8107C30.5325 19.8486 30.5325 20.8865 30.5325 21.9244C30.5325 23.5294 30.4612 23.6007 28.899 23.6043C27.4759 23.6043 26.0527 23.6043 24.6261 23.6043L24.6225 23.6114Z" fill="#BCB08A"></path>
  <path d="M27.6148 35.6561C30.8748 35.6561 34.1347 35.6561 37.3947 35.6561C38.3755 35.6561 38.3184 35.6347 37.9404 36.5086C37.6301 37.2219 37.1914 37.4038 36.4388 37.4002C30.0973 37.3681 23.7557 37.3859 17.4141 37.3681C17.0682 37.3681 16.5153 37.6534 16.3905 37.1006C16.2728 36.5834 17.0789 35.6846 17.5675 35.6597C17.9527 35.6383 18.3379 35.6525 18.7231 35.6525C21.687 35.6525 24.6509 35.6525 27.6148 35.6525V35.6561Z" fill="#BCB08A"></path>
  <path d="M28.8808 33.9191C25.7386 33.9191 22.5928 33.9299 19.4505 33.9049C19.1616 33.9049 18.5268 34.1331 18.6124 33.6659C18.7087 33.1559 18.6659 32.357 19.4898 32.2107C19.661 32.1822 19.8464 32.2036 20.0212 32.2036C26.0418 32.2036 32.0623 32.2036 38.0793 32.2036C38.7463 32.2036 39.613 32.0645 39.6415 33.0489C39.67 34.0796 38.7962 33.9084 38.1328 33.912C35.0476 33.9191 31.966 33.912 28.8808 33.912V33.9191Z" fill="#BCB08A"></path>
  <path d="M26.1056 39.0908C29.3335 39.0908 32.5649 39.1051 35.7927 39.0801C36.5417 39.073 36.531 39.2442 36.2421 39.8612C35.9033 40.5924 35.4646 40.7993 34.6728 40.7957C28.8056 40.76 22.942 40.7779 17.0748 40.7743C16.6646 40.7743 16.2759 40.7743 15.8907 40.5246C15.4876 40.2607 15.4377 39.9789 15.5269 39.5581C15.6267 39.0694 15.9584 39.0873 16.3294 39.0873C19.5893 39.0908 22.8457 39.0873 26.1056 39.0873V39.0908Z" fill="#BCB08A"></path>
  <path d="M26.0419 42.5077C28.6777 42.5077 31.3134 42.5256 33.9457 42.497C34.6982 42.4899 34.7624 42.6219 34.4486 43.3245C34.1133 44.0842 33.671 44.2554 32.9006 44.2447C29.8511 44.2019 26.8016 44.2197 23.7521 44.234C23.292 44.234 22.9068 44.1591 22.5323 43.8452C21.9224 43.3316 21.1698 43.1569 20.378 43.1604C19.5505 43.1604 18.7195 43.1747 17.892 43.1533C17.6103 43.1462 17.1395 43.3281 17.1609 42.7966C17.1823 42.3365 17.6138 42.522 17.8671 42.522C20.592 42.5077 23.3134 42.5113 26.0383 42.5113L26.0419 42.5077Z" fill="#BCB08A"></path>
  <path d="M35.0403 54.9768C33.1179 54.9768 31.3738 54.9768 29.6261 54.9768C27.3434 54.9768 25.0572 54.9911 22.7745 54.959C22.4999 54.959 21.8579 55.2087 21.9827 54.6558C22.0933 54.1636 21.7473 53.1935 22.8637 53.2541C23.4272 53.2862 23.9908 53.2577 24.5543 53.2577C27.3434 53.2577 30.1326 53.272 32.9182 53.247C33.4746 53.2434 33.8847 53.3112 34.0666 53.9175C34.1879 54.3241 34.6337 54.4918 35.0368 54.9697L35.0403 54.9768Z" fill="#BCB08A"></path>
  <path d="M36.8232 54.9198C38.0858 53.6465 39.4626 53.1043 41.2281 53.222C43.5536 53.3754 43.6427 53.2577 43.5357 50.9857C43.468 49.5804 44.809 49.0133 45.1728 47.8613C45.1728 49.7909 45.2156 51.7205 45.1479 53.6465C45.1265 54.3063 44.6164 54.877 43.9423 54.8948C41.5919 54.9554 39.2379 54.9198 36.8232 54.9198Z" fill="#BCB08A"></path>
  <path d="M28.9455 49.3985C30.3651 49.3985 31.7846 49.4092 33.2041 49.3914C33.6321 49.3878 33.9389 49.477 33.8105 49.9728C33.6999 50.4043 34.1243 51.1426 33.1827 51.1391C30.2866 51.1355 27.3869 51.1248 24.4907 51.1498C23.9379 51.1533 23.8131 50.9215 23.9058 50.4614C23.9914 50.0441 23.6062 49.3807 24.5121 49.395C25.9887 49.4199 27.4689 49.4021 28.9455 49.4021V49.3985Z" fill="#BCB08A"></path>
  <path d="M28.9879 45.9639C30.4395 45.9639 31.8876 45.9781 33.3392 45.9567C33.8421 45.9496 34.0633 46.1208 33.9741 46.6237C33.8992 47.0588 34.1917 47.6901 33.3214 47.6865C30.3896 47.6687 27.4613 47.6651 24.5295 47.6865C23.727 47.6937 23.9374 47.1515 23.8982 46.7164C23.8554 46.2385 23.9374 45.9389 24.5438 45.9531C26.024 45.9888 27.5041 45.9639 28.9843 45.9639H28.9879Z" fill="#BCB08A"></path>
</svg>
