<?xml version="1.0" encoding="UTF-8"?>
<svg xmlns="http://www.w3.org/2000/svg" width="53" height="54" viewBox="0 0 53 54" fill="none">
  <path d="M25.7985 53.2199C18.9143 53.2199 12.0337 53.2199 5.14947 53.2199C3.17997 53.2199 2.5584 52.7103 2.29459 50.7734C1.52486 45.1503 0.776814 39.5273 0.0287652 33.9043C-0.148309 32.5745 0.498554 31.6349 1.79228 31.447C2.35603 31.3638 2.37048 31.0892 2.37048 30.6664C2.36326 28.0211 2.36687 25.3795 2.36687 22.7342C2.36687 20.5515 3.05348 19.8106 5.19645 19.8793C6.10711 19.9082 6.33478 19.6661 6.32755 18.7518C6.28057 12.9842 6.30226 7.21307 6.30587 1.44551C6.30587 0.130095 6.42151 0.0180688 7.7586 0.0180688C16.204 0.0108413 24.6493 0.0180688 33.0947 0C33.7524 0 34.2113 0.195143 34.6667 0.664932C37.9516 4.05103 41.2546 7.42267 44.5756 10.7726C45.1068 11.3075 45.3309 11.8531 45.3164 12.6048C45.2767 14.708 45.3345 16.8112 45.2839 18.9144C45.2658 19.6408 45.4212 19.9697 46.2054 19.8685C46.6174 19.8143 47.051 19.8468 47.4594 19.9227C48.576 20.1214 49.1832 20.902 49.2012 22.1957C49.2265 24.0568 49.2193 25.9215 49.2012 27.7862C49.1976 28.2994 49.241 28.5632 49.8987 28.6029C51.6188 28.7113 52.3344 29.669 52.085 31.3928C51.1382 37.9301 50.1842 44.4637 49.2301 50.9974C48.9952 52.5947 48.2689 53.2235 46.6246 53.2235C39.6826 53.2271 32.7405 53.2235 25.7985 53.2235V53.2199ZM8.01879 16.4968C8.01879 21.1514 8.03686 25.8095 8.00073 30.464C7.99711 31.2157 8.21032 31.4181 8.95837 31.4144C14.5163 31.3819 20.0779 31.3349 25.6323 31.4361C27.1862 31.465 28.2667 31.1687 28.8413 29.6329C29.1521 28.8017 29.8134 28.5451 30.7096 28.5523C34.7064 28.5921 38.7033 28.5523 42.6965 28.5812C43.3506 28.5849 43.5746 28.4331 43.571 27.7392C43.5421 22.9944 43.5457 18.2459 43.571 13.501C43.571 12.8794 43.3975 12.6771 42.7615 12.6843C39.9066 12.7132 37.0518 12.7024 34.1969 12.6951C33.0043 12.6951 32.7984 12.4819 32.7948 11.2641C32.7948 8.38032 32.7658 5.49653 32.8128 2.61275C32.8237 1.85747 32.6105 1.67679 31.866 1.67679C24.2627 1.7057 16.6629 1.7057 9.05956 1.67679C8.25369 1.67679 7.98988 1.85747 7.99711 2.70671C8.04048 7.30341 8.01518 11.9001 8.01879 16.4932V16.4968ZM6.27335 26.6515C6.27335 25.2747 6.22998 23.8942 6.29142 22.5174C6.32755 21.744 6.05291 21.52 5.32293 21.585C4.67968 21.6428 4.00029 21.426 4.0292 22.521C4.09063 24.9747 4.03281 27.4357 4.0545 29.893C4.06895 31.6096 3.75455 31.3494 5.58312 31.4072C6.14687 31.4253 6.29864 31.2446 6.28419 30.6953C6.24805 29.3474 6.27335 27.9994 6.27335 26.6515ZM47.463 25.206C47.463 24.2483 47.4449 23.2871 47.4666 22.3294C47.4919 21.267 46.7005 21.6645 46.1874 21.6067C45.6923 21.5525 45.255 21.538 45.2803 22.3078C45.3345 24.0749 45.3453 25.8456 45.2767 27.6128C45.2442 28.4331 45.5152 28.7005 46.2849 28.5776C46.462 28.5487 46.6463 28.5523 46.8234 28.5776C47.351 28.6463 47.4883 28.3969 47.4702 27.9055C47.4377 27.0056 47.463 26.1058 47.4594 25.2096L47.463 25.206Z" fill="#BCB08A"></path>
  <path d="M26.2 17.5087C22.1743 17.5087 18.1522 17.5087 14.1264 17.5087C13.8301 17.5087 13.5229 17.5051 13.2374 17.4328C12.8038 17.3244 12.6195 16.9883 12.6231 16.551C12.6267 16.1138 12.9375 15.9114 13.288 15.803C13.5085 15.7343 13.765 15.7705 14.0036 15.7705C22.0514 15.7705 30.0993 15.7705 38.1507 15.7705C38.3025 15.7705 38.4507 15.7705 38.6024 15.7705C39.2096 15.7741 39.7191 15.9692 39.6902 16.6667C39.6649 17.3533 39.1517 17.5159 38.5446 17.5159C34.4285 17.5087 30.3161 17.5159 26.2 17.5159V17.5087Z" fill="#BCB08A"></path>
  <path d="M23.8356 21.8813C20.5037 21.8813 17.1719 21.8777 13.84 21.8886C13.3268 21.8886 12.8353 21.8452 12.6655 21.2887C12.4993 20.743 12.7522 20.3419 13.3232 20.2262C13.6123 20.1684 13.9195 20.1937 14.2194 20.1937C20.6736 20.1937 27.1278 20.1937 33.5783 20.1937C33.8168 20.1937 34.059 20.1865 34.2975 20.2046C34.8251 20.2371 35.1576 20.5226 35.1467 21.0538C35.1359 21.5814 34.8034 21.8741 34.2758 21.8813C33.076 21.8958 31.8763 21.8886 30.6729 21.8886C28.3926 21.8886 26.1087 21.8886 23.8284 21.8886L23.8356 21.8813Z" fill="#BCB08A"></path>
  <path d="M21.126 12.9987C18.8421 12.9987 16.5582 12.9987 14.2743 12.9987C14.0647 12.9987 13.8515 13.0096 13.6419 12.9951C13.1142 12.9626 12.6553 12.7674 12.6408 12.1784C12.63 11.5713 13.0275 11.2677 13.631 11.2605C14.1406 11.2533 14.6537 11.2605 15.1632 11.2605C19.3408 11.2605 23.5183 11.2605 27.6922 11.2605C27.9018 11.2605 28.1114 11.2641 28.3246 11.2605C28.975 11.246 29.5207 11.4809 29.5063 12.182C29.4918 12.8469 28.9425 13.0096 28.3354 13.0059C25.9323 12.9951 23.5291 13.0023 21.1223 13.0023L21.126 12.9987Z" fill="#BCB08A"></path>
  <path d="M20.2909 7.40822C22.3616 7.40822 24.4322 7.40822 26.5029 7.40822C27.1173 7.40822 27.7172 7.49495 27.7497 8.24661C27.7822 9.01273 27.1715 9.14644 26.5644 9.14644C22.3037 9.15367 18.0431 9.15367 13.7789 9.14644C13.1754 9.14644 12.6478 8.91154 12.6514 8.25022C12.6514 7.56722 13.2187 7.40822 13.8078 7.40822C15.9688 7.40822 18.1299 7.40822 20.2909 7.40822Z" fill="#BCB08A"></path>
  <path d="M25.4886 26.1962C24.4984 26.1962 23.5119 26.1926 22.5217 26.1962C21.9291 26.1998 21.4954 25.9577 21.4846 25.3361C21.4737 24.6965 21.9291 24.4724 22.5109 24.4724C24.5165 24.4724 26.5258 24.4724 28.5314 24.4724C29.1096 24.4724 29.5649 24.6784 29.5649 25.3289C29.5649 25.9685 29.1277 26.1926 28.5422 26.1926C27.5232 26.1926 26.5041 26.1926 25.485 26.1926L25.4886 26.1962Z" fill="#BCB08A"></path>
  <path d="M15.8471 26.1925C15.0954 26.1925 14.3438 26.1962 13.5957 26.1925C13.032 26.1889 12.6525 25.9215 12.6381 25.3433C12.6236 24.7506 13.0211 24.4832 13.5704 24.476C15.1027 24.4616 16.6349 24.4616 18.1671 24.476C18.7237 24.4832 19.1103 24.7796 19.085 25.3578C19.0561 25.9251 18.6694 26.1889 18.1057 26.1889C17.354 26.1889 16.6024 26.1889 15.8543 26.1889L15.8471 26.1925Z" fill="#BCB08A"></path>
</svg>
