<?xml version="1.0" encoding="UTF-8"?>
<svg xmlns="http://www.w3.org/2000/svg" width="46" height="53" viewBox="0 0 46 53" fill="none">
  <g clip-path="url(#clip0_661_5490)">
    <path d="M22.9988 23.269C30.3546 23.269 37.7105 23.2806 45.0663 23.2515C45.7978 23.2515 46.0205 23.4382 45.9974 24.1792C45.9453 25.8013 45.9655 27.4291 45.9887 29.0541C45.9974 29.5793 45.847 29.7922 45.2976 29.7747C44.7049 29.7572 43.9473 29.5122 43.5541 29.8797C43.1522 30.2532 43.4413 31.0263 43.4008 31.6214C42.8948 39.0228 40.0005 45.1697 33.8995 49.4962C25.7746 55.258 14.8536 53.7643 8.29869 46.1266C4.47042 41.663 2.64591 36.4497 2.58519 30.5858C2.57941 29.9002 2.39436 29.731 1.74378 29.7455C0.0146993 29.7835 0.0118077 29.7543 0.0118077 28.0155C0.0118077 26.6823 0.0436136 25.3461 -0.00264949 24.0129C-0.0228896 23.3886 0.199752 23.2515 0.780932 23.2515C8.18592 23.269 15.5909 23.2631 22.993 23.2631L22.9988 23.269ZM22.9988 29.7631C18.3609 29.7631 13.723 29.7631 9.08516 29.7601C8.63988 29.7601 8.31604 29.7514 8.32182 30.3874C8.34784 34.6526 9.54779 38.5035 12.2195 41.8439C17.6294 48.6006 26.9398 49.0469 32.9107 42.8066C36.1607 39.4108 37.5543 35.2536 37.6902 30.5945C37.7105 29.9002 37.482 29.7485 36.8401 29.7514C32.2254 29.7747 27.6135 29.7631 22.9988 29.7631Z" fill="#BCB08A"></path>
    <path d="M28.333 13.099C28.333 10.4792 28.3417 7.85944 28.3243 5.23963C28.3214 4.71742 28.4776 4.53946 28.9951 4.67074C35.1395 6.24613 39.7716 9.64487 42.1657 15.7509C42.8336 17.4547 43.1574 19.2372 43.383 21.0489C43.4524 21.6032 43.2384 21.6995 42.7555 21.6966C38.1871 21.6849 33.6215 21.6791 29.053 21.7024C28.4747 21.7024 28.3157 21.5215 28.3214 20.9555C28.3446 18.3357 28.333 15.7159 28.333 13.0961V13.099Z" fill="#BCB08A"></path>
    <path d="M17.6606 13.1223C17.6606 15.7159 17.6461 18.3094 17.6722 20.9059C17.6779 21.4865 17.5334 21.7082 16.9117 21.7024C12.3953 21.679 7.87595 21.6761 3.35951 21.7024C2.68869 21.7053 2.56147 21.4981 2.62797 20.8622C3.48384 12.5972 8.82723 6.55241 16.9493 4.68237C17.4987 4.55692 17.6751 4.69404 17.6693 5.26585C17.649 7.88273 17.6606 10.5025 17.6606 13.1223Z" fill="#BCB08A"></path>
    <path d="M19.248 11.4741C19.248 8.44292 19.2451 5.41177 19.248 2.38061C19.248 0.75855 19.9767 0.0204531 21.5756 0.00878364C22.5847 3.1504e-05 23.5939 -0.00580325 24.603 0.011701C25.9446 0.0379574 26.7224 0.796476 26.7253 2.13847C26.7369 8.44292 26.7282 14.7503 26.7397 21.0547C26.7397 21.5099 26.6212 21.7024 26.1325 21.6966C24.042 21.6761 21.9486 21.6703 19.8581 21.6966C19.3087 21.7053 19.2364 21.4661 19.2393 20.9993C19.2538 17.8223 19.248 14.6453 19.248 11.4682V11.4741Z" fill="#BCB08A"></path>
  </g>
  <defs>
    <clipPath id="clip0_661_5490">
      <rect width="46" height="53" fill="white"></rect>
    </clipPath>
  </defs>
</svg>
