<?xml version="1.0" encoding="UTF-8"?>
<svg xmlns="http://www.w3.org/2000/svg" width="124" height="115" viewBox="0 0 124 115" fill="none">
  <path opacity="0.4" d="M87.2542 10.3791L94.6758 25.2934C95.2225 26.3739 96.2662 27.1243 97.4698 27.2911L114.14 29.719C115.114 29.8557 115.997 30.3693 116.594 31.153C117.184 31.9267 117.437 32.9072 117.294 33.871C117.177 34.6713 116.801 35.412 116.224 35.9787L104.145 47.688C103.261 48.5053 102.861 49.7157 103.074 50.8997L106.048 67.3613C106.365 69.349 105.048 71.2233 103.074 71.6003C102.261 71.7303 101.427 71.5937 100.694 71.22L85.8238 63.4727C84.7202 62.916 83.4168 62.916 82.3132 63.4727L67.4433 71.22C65.6162 72.1907 63.3524 71.5303 62.3355 69.7293C61.9587 69.0123 61.8254 68.1953 61.9487 67.398L64.9227 50.933C65.1361 49.7523 64.7327 48.5353 63.8525 47.718L51.7732 36.0153C50.3362 34.628 50.2929 32.3436 51.6765 30.9062C51.7065 30.8762 51.7399 30.8429 51.7732 30.8095C52.3467 30.2259 53.1002 29.8557 53.9137 29.759L70.5839 27.3277C71.7842 27.1577 72.8277 26.4139 73.3779 25.3267L80.5328 10.3791C81.1695 9.09848 82.4898 8.30141 83.9235 8.33475H84.3702C85.6138 8.48485 86.6975 9.25521 87.2542 10.3791Z" fill="#BCB08A"></path>
  <path d="M83.9732 63.0573C83.3275 63.0773 82.6985 63.251 82.1328 63.5613L67.3356 71.291C65.525 72.155 63.3584 71.4843 62.3433 69.753C61.9672 69.0457 61.8307 68.235 61.9572 67.441L64.9126 51.011C65.1123 49.8167 64.713 48.6023 63.8443 47.7617L51.7596 36.062C50.3252 34.6577 50.2985 32.3523 51.703 30.9144C51.723 30.8944 51.7397 30.8777 51.7596 30.8611C52.3321 30.2939 53.0709 29.9203 53.8664 29.8035L70.5506 27.3482C71.7587 27.1947 72.8071 26.4408 73.3396 25.3465L80.5918 10.2108C81.2808 8.9898 82.6018 8.26253 83.9998 8.33927C83.9732 9.33007 83.9732 62.3837 83.9732 63.0573Z" fill="#BCB08A"></path>
  <g clip-path="url(#clip0_342_2240)">
    <path d="M90.8276 51.0131C90.4703 49.6387 89.6 48.4878 88.3766 47.7669C87.8553 47.4592 87.3045 47.261 86.7411 47.1472V41.8522C86.7411 40.9838 86.039 40.2755 85.1688 40.2755H67.8895C65.9514 38.2562 63.2354 36.9957 60.2252 36.9957C57.215 36.9957 54.4991 38.2562 52.561 40.2755H24.3255C22.3874 38.2604 19.6673 36.9999 16.6613 36.9999C13.6553 36.9999 10.9351 38.2604 8.997 40.2797H1.57237C0.706306 40.2797 0 40.9838 0 41.8564V59.4362C0 60.3046 0.702102 61.0129 1.57237 61.0129H5.50751C4.64985 63.829 4.2042 67.1173 4.2042 70.7597V110.282C4.2042 112.884 6.31472 115.004 8.91291 115.004H24.4096C27.0036 115.004 29.1183 112.888 29.1183 110.282V70.7597C29.1183 69.8322 29.0132 68.7741 28.8156 67.6358L32.385 69.516C33.1417 69.9165 33.9952 70.1273 34.8486 70.1273C36.7237 70.1273 38.4769 69.1198 39.427 67.4967L43.215 61.0171H49.0715C48.2138 63.8332 47.7682 67.1215 47.7682 70.7639V110.287C47.7682 112.888 49.8787 115.008 52.4769 115.008H67.9778C70.5718 115.008 72.6865 112.892 72.6865 110.287V70.7597C72.6865 69.8322 72.5814 68.7699 72.3838 67.6358L75.9532 69.516C76.7099 69.9165 77.5634 70.1273 78.4168 70.1273C80.2919 70.1273 82.0493 69.1198 82.9952 67.4967L90.2727 55.0518C90.9874 53.825 91.185 52.3958 90.8276 51.0215V51.0131ZM83.6006 43.4289V47.4803C82.5958 47.9145 81.7129 48.6522 81.1201 49.6682L76.403 57.7372L68.9279 53.8039C70.1471 52.067 70.8661 49.9549 70.8661 47.6742C70.8661 46.1692 70.5508 44.7358 69.9874 43.4331H83.5964L83.6006 43.4289ZM67.7255 47.67C67.7255 51.8141 64.3622 55.1867 60.2294 55.1867C56.0967 55.1867 52.7333 51.8141 52.7333 47.67C52.7333 43.5259 56.0967 40.1533 60.2294 40.1533C64.3622 40.1533 67.7255 43.5259 67.7255 47.67ZM24.1574 47.67C24.1574 51.8141 20.794 55.1867 16.6571 55.1867C12.5201 55.1867 9.16096 51.8141 9.16096 47.67C9.16096 43.5259 12.5243 40.1533 16.6613 40.1533C20.7982 40.1533 24.1616 43.5259 24.1616 47.67H24.1574ZM3.14474 57.8595V43.4289H6.8991C6.33574 44.7316 6.02042 46.1649 6.02042 47.67C6.02042 50.3849 7.04204 52.868 8.71532 54.7524C8.33694 55.2078 7.97538 55.701 7.63904 56.228C7.31532 56.7381 7.01682 57.2861 6.73514 57.8552H3.14474V57.8595ZM36.7195 65.8989C36.3327 66.5608 35.618 66.9697 34.8529 66.9697C34.5039 66.9697 34.1634 66.8854 33.8523 66.721L27.2222 63.2303C26.6631 62.9352 25.982 63.0069 25.4901 63.4116C25.0024 63.8163 24.8048 64.474 24.9856 65.0811C25.6246 67.2185 25.982 69.2378 25.982 70.7597V110.282C25.982 111.147 25.2799 111.851 24.418 111.851H18.2378V92.981C18.2378 92.1125 17.5357 91.4043 16.6655 91.4043C15.7952 91.4043 15.0931 92.1083 15.0931 92.981V111.851H8.91291C8.05105 111.851 7.34895 111.147 7.34895 110.282V70.7597C7.34895 64.592 8.75736 59.6722 11.1285 56.7802C12.7429 57.7709 14.639 58.3401 16.6655 58.3401C19.0787 58.3401 21.3069 57.5264 23.0937 56.1647L32.7045 61.2236C33.4487 61.6157 34.3652 61.3501 34.7898 60.625L40.2637 51.2618C40.8649 50.2289 42.1934 49.8832 43.2192 50.4903C44.245 51.0932 44.594 52.4253 43.9886 53.454L36.7153 65.8989H36.7195ZM45.0607 57.8595L46.7045 55.0476C48.1844 52.5181 47.3351 49.2509 44.8126 47.7712C42.2901 46.2872 39.0318 47.1388 37.5562 49.6682L32.839 57.7372L25.364 53.8039C26.5832 52.067 27.3021 49.9549 27.3021 47.6742C27.3021 46.1692 26.9868 44.7358 26.4234 43.4331H50.4673C49.9039 44.7358 49.5886 46.1692 49.5886 47.6742C49.5886 50.3934 50.6102 52.8722 52.2835 54.7609C51.9051 55.2162 51.5435 55.7094 51.2072 56.2364C50.8835 56.7465 50.585 57.2946 50.3033 57.8637H45.0607V57.8595ZM87.561 53.454L80.2835 65.8989C79.8967 66.5608 79.182 66.9697 78.4168 66.9697C78.0679 66.9697 77.7273 66.8854 77.4162 66.721L70.7862 63.2303C70.227 62.9352 69.5417 63.0069 69.0541 63.4116C68.5664 63.8163 68.3688 64.474 68.5496 65.0811C69.1886 67.2185 69.5417 69.2336 69.5417 70.7597V110.282C69.5417 111.147 68.8396 111.851 67.9778 111.851H61.7976V92.981C61.7976 92.1125 61.0955 91.4043 60.2252 91.4043C59.355 91.4043 58.6529 92.1083 58.6529 92.981V111.851H52.4727C51.6108 111.851 50.9087 111.147 50.9087 110.282V70.7597C50.9087 64.592 52.3171 59.6722 54.6883 56.7802C56.3027 57.7709 58.1988 58.3401 60.2252 58.3401C62.6384 58.3401 64.8667 57.5264 66.6535 56.1647L76.2643 61.2236C77.0084 61.6157 77.9249 61.3501 78.3496 60.625L83.8234 51.2618C84.4246 50.2289 85.7532 49.8832 86.779 50.4903C87.2751 50.7812 87.6324 51.2534 87.7754 51.8141C87.9225 52.3748 87.8427 52.9565 87.5484 53.4582L87.561 53.454Z" fill="#4D4D4D"></path>
  </g>
  <defs>
    <clipPath id="clip0_342_2240">
      <rect width="91" height="78" fill="white" transform="translate(0 37)"></rect>
    </clipPath>
  </defs>
</svg>
