<?xml version="1.0" encoding="UTF-8"?>
<svg xmlns="http://www.w3.org/2000/svg" width="116" height="113" viewBox="0 0 116 113" fill="none">
  <path d="M74.0416 80.9057C68.4259 80.9057 63.8833 76.5307 63.8833 71.0357C63.8833 65.5407 68.4259 61.1307 74.0416 61.1307C79.6574 61.1307 84.0926 65.5407 84.0926 71.0357C84.0926 76.5307 79.6574 80.9057 74.0416 80.9057Z" fill="#BCB08A"></path>
  <path opacity="0.4" d="M106.305 79.2957C105.625 78.2457 104.659 77.1957 103.408 76.5307C102.406 76.0407 101.763 75.2357 101.19 74.2907C99.3657 71.2807 100.439 67.3257 103.479 65.5407C107.056 63.5457 108.201 59.1007 106.126 55.6357L103.73 51.5057C101.691 48.0407 97.2199 46.8157 93.6786 48.8457C90.531 50.5257 86.4892 49.4057 84.665 46.4307C84.0928 45.4507 83.7708 44.4007 83.8422 43.3507C83.9496 41.9857 83.5205 40.6907 82.8765 39.6407C81.5532 37.4707 79.1567 36.0007 76.5097 36.0007H71.4665C68.8552 36.0707 66.4588 37.4707 65.1354 39.6407C64.4558 40.6907 64.0624 41.9857 64.1339 43.3507C64.2054 44.4007 63.8835 45.4507 63.3112 46.4307C61.487 49.4057 57.4452 50.5257 54.3333 48.8457C50.7565 46.8157 46.3212 48.0407 44.2466 51.5057L41.8501 55.6357C39.8113 59.1007 40.9559 63.5457 44.497 65.5407C47.5373 67.3257 48.6104 71.2807 46.822 74.2907C46.2139 75.2357 45.57 76.0407 44.5686 76.5307C43.3524 77.1957 42.2793 78.2457 41.7071 79.2957C40.3836 81.4657 40.4551 84.1957 41.7786 86.4707L44.2466 90.6707C45.57 92.9107 48.0381 94.3107 50.6134 94.3107C51.8295 94.3107 53.2603 93.9607 54.4049 93.2607C55.2991 92.6657 56.3721 92.4557 57.5525 92.4557C61.0936 92.4557 64.0624 95.3607 64.1339 98.8257C64.1339 102.851 67.4247 106.001 71.5736 106.001H76.4383C80.5515 106.001 83.8422 102.851 83.8422 98.8257C83.9496 95.3607 86.9183 92.4557 90.4596 92.4557C91.6041 92.4557 92.6772 92.6657 93.6072 93.2607C94.7517 93.9607 96.1468 94.3107 97.3987 94.3107C99.9383 94.3107 102.406 92.9107 103.73 90.6707L106.233 86.4707C107.521 84.1257 107.629 81.4657 106.305 79.2957Z" fill="#BCB08A"></path>
  <g clip-path="url(#clip0_342_2243)">
    <path d="M91.8498 40.6127C91.3948 38.2021 89.9421 36.3023 87.5377 34.964C87.4124 34.8923 87.2872 34.8289 87.1661 34.7656C87.1327 34.7403 87.0993 34.715 87.0618 34.6938C86.899 34.5883 83.9894 32.7434 79.026 31.8189C80.4203 30.3244 81.2802 28.3149 81.2802 26.1027C81.2802 21.5011 77.5775 17.7522 73.0232 17.7522C68.4689 17.7522 64.7662 21.4969 64.7662 26.1027C64.7662 27.0062 64.9123 27.8716 65.1753 28.6864C62.5788 27.1708 60.262 25.2964 58.6924 23.9074C58.012 23.232 57.2898 22.5565 56.5343 21.8684C55.9081 21.3027 54.9522 21.3364 54.3677 21.9486C53.7833 22.5607 53.7833 23.5275 54.3677 24.1396C54.4804 24.2578 55.3445 25.1571 56.7305 26.3729C64.7453 34.3392 66.2982 40.8786 56.8557 53.7928L47.5509 42.2042V17.9717L65.359 10.7062C65.9476 10.4656 66.3358 9.88721 66.3358 9.24129C66.3358 8.59537 65.9476 8.017 65.359 7.77637L46.5824 0.114005C46.1024 -0.0844146 45.5555 -0.025311 45.1256 0.270207C44.6956 0.561504 44.4368 1.05544 44.4368 1.57893V42.2042L35.132 53.7928C25.6937 40.8871 27.2424 34.3434 35.2531 26.3813C36.639 25.1613 37.5031 24.2621 37.62 24.1396C38.2044 23.5275 38.2044 22.5607 37.62 21.9486C37.0355 21.3364 36.0796 21.3027 35.4534 21.8684C34.6854 22.5649 33.9548 23.2531 33.2661 23.937C31.6965 25.3259 29.3922 27.1877 26.8124 28.6948C27.0796 27.8758 27.2257 27.0062 27.2257 26.0985C27.2257 21.4969 23.523 17.748 18.9687 17.748C14.4144 17.748 10.7117 21.4926 10.7117 26.0985C10.7117 28.3107 11.5758 30.3244 12.97 31.8189C8.00248 32.7477 5.09291 34.5883 4.9301 34.6896C4.89253 34.7107 4.85914 34.7361 4.82574 34.7614C4.70469 34.8247 4.57945 34.8923 4.45422 34.9598C2.04976 36.2981 0.601232 38.1978 0.142046 40.6084C-0.801372 45.5731 2.84707 51.34 6.07389 55.2999C6.62074 55.9712 7.60591 56.0683 8.26964 55.5152C8.93337 54.9622 9.02938 53.9659 8.48253 53.2946C4.52519 48.4354 2.65087 44.1378 3.20607 41.2037C3.48575 39.7388 4.38326 38.6031 5.95701 37.7292C9.07948 35.9899 10.503 37.0073 10.9705 37.3408C15.6834 40.7013 16.2929 56.6677 14.5605 72.2964C14.285 74.2426 14.022 76.2226 13.7548 78.2237L13.5586 79.7097C13.5211 79.9968 13.567 80.2712 13.6672 80.5203L11.3337 83.4248C10.9538 83.8976 10.8786 84.5478 11.1375 85.0966C11.3963 85.6454 11.9431 85.9958 12.5442 85.9958H79.4476C80.0488 85.9958 80.5956 85.6454 80.8544 85.0966C81.1132 84.5478 81.0381 83.8976 80.6582 83.4248L78.3247 80.5203C78.4249 80.2712 78.4708 79.9968 78.4333 79.7097L78.2371 78.2195C77.9699 76.2184 77.7069 74.2384 77.4314 72.2922C75.699 56.6593 76.3085 40.6929 81.0214 37.3366C81.4889 37.0031 82.9124 35.9899 86.0349 37.725C87.6086 38.5989 88.5061 39.7345 88.7858 41.1995C89.341 44.1335 87.4709 48.4312 83.5093 53.2904C82.9625 53.9616 83.0585 54.958 83.7222 55.511C84.386 56.064 85.3711 55.9669 85.918 55.2957C89.1448 51.3357 92.7891 45.5689 91.8498 40.6042V40.6127ZM47.5593 3.91775L60.6127 9.24551L47.5593 14.5733V3.91775ZM73.0274 20.91C75.8576 20.91 78.1619 23.2404 78.1619 26.1027C78.1619 28.965 75.8576 31.2954 73.0274 31.2954C70.1971 31.2954 67.8929 28.965 67.8929 26.1027C67.8929 23.2404 70.1971 20.91 73.0274 20.91ZM18.9728 20.91C21.8031 20.91 24.1074 23.2404 24.1074 26.1027C24.1074 28.965 21.8031 31.2954 18.9728 31.2954C16.1426 31.2954 13.8383 28.965 13.8383 26.1027C13.8383 23.2404 16.1426 20.91 18.9728 20.91ZM13.1078 35.0147C14.7901 34.6685 16.7646 34.4363 18.9854 34.4532C21.7113 34.4279 24.5039 33.4653 27.0712 32.1313C24.9548 36.6274 24.913 41.4908 27.7141 47.5658C26.349 47.0803 24.817 46.8776 23.022 47.0127C22.5795 47.0465 22.1746 47.2703 21.9033 47.6249C20.5466 49.4149 19.4446 51.5975 18.5262 54.0798C18.2548 45.5309 16.7896 38.0037 13.112 35.0147H13.1078ZM17.6287 72.9381C18.952 63.5618 20.5299 55.1184 23.9571 50.1283C24.0155 50.1283 24.0782 50.1283 24.1366 50.1283C27.5054 50.1283 29.5132 51.8339 33.0949 56.3384L17.2446 76.0791C17.3782 75.0658 17.5076 74.0146 17.6287 72.9423V72.9381ZM15.8295 82.8506L45.998 45.265L76.1665 82.8422H15.8295V82.8506ZM58.9012 56.3384C62.5496 51.7537 64.5742 50.0777 68.039 50.1326C71.4662 55.1226 73.0483 63.566 74.3674 72.9423C74.4884 74.0189 74.6178 75.0658 74.7514 76.0791L58.9012 56.3384ZM73.474 54.0841C72.5557 51.6017 71.4536 49.4191 70.0969 47.6291C69.8256 47.2745 69.4207 47.0507 68.9782 47.017C68.6067 46.9874 68.2477 46.9747 67.897 46.9747C66.5529 46.9747 65.3673 47.1816 64.282 47.57C67.083 41.495 67.0371 36.6274 64.9207 32.1313C67.4963 33.4653 70.2973 34.4321 73.0357 34.4574C75.2482 34.4405 77.2143 34.6727 78.8883 35.0189C75.2106 38.0036 73.7454 45.5351 73.4699 54.0841H73.474Z" fill="#4D4D4D"></path>
  </g>
  <defs>
    <clipPath id="clip0_342_2243">
      <rect width="92" height="86" fill="white"></rect>
    </clipPath>
  </defs>
</svg>
