<?xml version="1.0" encoding="UTF-8"?>
<svg xmlns="http://www.w3.org/2000/svg" width="84" height="114" viewBox="0 0 84 114" fill="none">
  <path opacity="0.4" d="M41.0053 48.2247C35.9636 45.1105 31.2768 41.4387 27.0308 37.276C24.0332 34.304 21.744 30.675 20.338 26.6665C17.8257 18.8489 20.7501 9.91451 28.915 7.26212C33.2246 5.9087 37.9117 6.73954 41.5157 9.49572C45.121 6.74261 49.8064 5.91206 54.1162 7.26212C62.2811 9.91451 65.2252 18.8489 62.7128 26.6665C61.3183 30.6713 59.0426 34.2998 56.0593 37.276C51.8094 41.434 47.1231 45.1056 42.0848 48.2247L41.5353 48.5835L41.0053 48.2247Z" fill="#BCB08A"></path>
  <path d="M41.5239 48.5833L41.0052 48.2243C35.9572 45.1105 31.2639 41.4387 27.011 37.2758C23.9992 34.3078 21.6963 30.6786 20.2789 26.6663C17.7862 18.8486 20.7107 9.91425 28.8756 7.26186C33.1852 5.90844 37.934 6.7399 41.5239 9.51918V48.5833Z" fill="#BCB08A"></path>
  <path d="M55.2585 22.0819C54.8151 22.0533 54.4019 21.8316 54.1161 21.4687C53.8302 21.1058 53.6968 20.6336 53.7469 20.1627C53.795 18.6116 52.9124 17.1999 51.5514 16.6506C50.6884 16.415 50.1659 15.4804 50.3816 14.5587C50.5866 13.6518 51.4357 13.0879 52.2892 13.292C52.3969 13.3099 52.5007 13.3489 52.5953 13.4071C55.3241 14.4573 57.0908 17.2836 56.9503 20.3738C56.9457 20.8422 56.763 21.2885 56.4442 21.6106C56.1253 21.9326 55.6973 22.1027 55.2585 22.0819Z" fill="white"></path>
  <g clip-path="url(#clip0_342_2242)">
    <path d="M74.4241 54.7166C75.2479 53.2664 75.7215 51.5897 75.7215 49.8058C75.7215 44.3101 71.2528 39.836 65.7544 39.836C60.2559 39.836 55.7872 44.3059 55.7872 49.8058C55.7872 50.7946 55.9355 51.7504 56.2032 52.6526C47.0268 47.8448 44.568 34.0271 44.5392 33.8705C44.4897 33.5863 44.3621 33.3185 44.1726 33.1043C43.5218 32.3751 42.3233 31.6871 41.0754 32.1485C39.8027 32.6222 39.0778 34.0147 38.8101 36.569C37.6033 40.87 34.4896 49.1549 27.7886 52.6567C28.0604 51.7545 28.2046 50.7987 28.2046 49.8058C28.2046 44.3101 23.7358 39.836 18.2374 39.836C12.739 39.836 8.27026 44.3059 8.27026 49.8058C8.27026 51.5897 8.74391 53.2664 9.56764 54.7166C6.19034 56.1173 0 59.9034 0 68.9298V83.7651C0 85.6067 1.74219 86.9827 3.42672 88.3092C4.17632 88.9025 5.57666 90.0025 5.68375 90.4474C8.32381 107.268 8.90454 112.575 8.91277 112.624C8.99515 113.407 9.65825 114 10.4449 114H24.7408C25.5192 114 26.1782 113.419 26.2688 112.645C26.3059 112.344 29.885 82.5704 31.6395 70.9609C32.3974 65.9389 34.4814 61.6708 38.007 57.9053C39.6132 56.1915 40.9353 54.4076 41.9979 52.5372C43.0647 54.4117 44.395 56.1915 45.9972 57.9053C49.5227 61.6708 51.6068 65.943 52.3646 70.9609C54.1192 82.5704 57.6983 112.348 57.7353 112.645C57.8301 113.419 58.4849 114 59.2634 114H73.5633C74.35 114 75.009 113.407 75.0955 112.624C75.0996 112.575 75.6803 107.301 78.3163 90.4762C78.4275 90.0025 79.8237 88.9025 80.5774 88.3092C82.2619 86.9786 84.0041 85.6067 84.0041 83.7651V68.9298C84.0041 59.9034 77.8138 56.1132 74.4283 54.7166H74.4241ZM65.7585 42.9176C69.5559 42.9176 72.6449 46.0074 72.6449 49.8058C72.6449 53.6043 69.5559 56.6941 65.7585 56.6941C61.9611 56.6941 58.8721 53.6043 58.8721 49.8058C58.8721 46.0074 61.9611 42.9176 65.7585 42.9176ZM69.144 71.7313L65.7585 75.954L62.3729 71.7313L64.9924 59.7427C65.2436 59.7633 65.499 59.7757 65.7585 59.7757C66.018 59.7757 66.2692 59.7633 66.5245 59.7427L69.144 71.7313ZM18.2415 42.9217C22.0389 42.9217 25.1279 46.0115 25.1279 49.8099C25.1279 53.6084 22.0389 56.6982 18.2415 56.6982C14.4441 56.6982 11.3551 53.6084 11.3551 49.8099C11.3551 46.0115 14.4441 42.9217 18.2415 42.9217ZM21.6271 71.7354L18.2415 75.9582L14.856 71.7354L17.4755 59.7468C17.7267 59.7674 17.9821 59.7798 18.2415 59.7798C18.501 59.7798 18.7522 59.7674 19.0076 59.7468L21.6271 71.7354ZM35.7582 55.8001C31.7919 60.0352 29.4484 64.843 28.5958 70.5036C27.0513 80.7289 24.1024 104.937 23.3775 110.927H18.9747V92.3796C18.9747 91.5309 18.2868 90.8388 17.4343 90.8388C16.5817 90.8388 15.8939 91.5268 15.8939 92.3796V110.927H11.8041C11.4911 108.463 10.6673 102.358 8.7192 89.9489C8.43913 88.3463 6.9317 87.1557 5.33366 85.8992C4.58406 85.3059 3.18784 84.2059 3.07664 83.7734V68.9381C3.07664 60.6862 9.36583 57.9465 11.594 57.2338C12.4383 57.9918 13.4103 58.6057 14.4771 59.0424L11.6887 71.8013C11.5899 72.2545 11.7011 72.7283 11.9935 73.0949L17.0389 79.3941C17.3313 79.7607 17.772 79.9708 18.2415 79.9708C18.7111 79.9708 19.1518 79.7566 19.4442 79.3941L24.4895 73.0949C24.782 72.7324 24.8932 72.2586 24.7943 71.8013L22.006 59.0424C23.2375 58.5398 24.3454 57.7982 25.2721 56.8754C32.2862 55.1904 36.5778 49.641 39.1231 44.4748C39.395 46.0404 39.7945 47.5358 40.3299 48.9778C39.2714 51.4167 37.7598 53.6702 35.7582 55.8083V55.8001ZM78.6663 85.8951C77.0683 87.1557 75.5609 88.3422 75.2767 89.9736C73.3327 102.362 72.5089 108.459 72.1959 110.923H68.1061V92.3755C68.1061 91.5268 67.4183 90.8347 66.5657 90.8347C65.7132 90.8347 65.0254 91.5227 65.0254 92.3755V110.923H60.6225C59.8976 104.933 56.9487 80.7247 55.4042 70.4995C54.5516 64.843 52.2081 60.0311 48.2418 55.796C43.7154 50.9635 41.6602 45.5419 41.7714 38.7319C41.7879 37.6896 41.8538 36.9233 41.9362 36.363C43.1759 41.3562 47.414 54.1357 58.7238 56.8589C59.6505 57.7858 60.7625 58.5274 61.994 59.0341L59.2057 71.7931C59.1068 72.2462 59.218 72.72 59.5105 73.0867L64.5558 79.3858C64.8483 79.7525 65.2889 79.9626 65.7585 79.9626C66.228 79.9626 66.6687 79.7484 66.9611 79.3858L72.0065 73.0867C72.2989 72.7241 72.4101 72.2504 72.3113 71.7931L69.5229 59.0341C70.5897 58.5974 71.5617 57.9836 72.406 57.2255C74.6342 57.9383 80.9234 60.6738 80.9234 68.9298V83.7281C80.8163 84.2018 79.4201 85.3018 78.6663 85.8909V85.8951Z" fill="#4D4D4D"></path>
    <path d="M41.9979 79.7482C40.7129 79.7482 39.6709 80.7946 39.6709 82.0758C39.6709 83.3571 40.717 84.4035 41.9979 84.4035C43.2788 84.4035 44.325 83.3571 44.325 82.0758C44.325 80.7946 43.2788 79.7482 41.9979 79.7482Z" fill="#4D4D4D"></path>
    <path d="M41.9979 90.0435C40.7129 90.0435 39.6709 91.0899 39.6709 92.3712C39.6709 93.6524 40.717 94.6989 41.9979 94.6989C43.2788 94.6989 44.325 93.6524 44.325 92.3712C44.325 91.0899 43.2788 90.0435 41.9979 90.0435Z" fill="#4D4D4D"></path>
    <path d="M41.9979 100.339C40.7129 100.339 39.6709 101.385 39.6709 102.667C39.6709 103.948 40.717 104.994 41.9979 104.994C43.2788 104.994 44.325 103.948 44.325 102.667C44.325 101.385 43.2788 100.339 41.9979 100.339Z" fill="#4D4D4D"></path>
  </g>
  <defs>
    <clipPath id="clip0_342_2242">
      <rect width="84" height="82" fill="white" transform="translate(0 32)"></rect>
    </clipPath>
  </defs>
</svg>
