<?xml version="1.0" encoding="UTF-8"?>
<svg xmlns="http://www.w3.org/2000/svg" width="92" height="86" viewBox="0 0 92 86" fill="none">
  <g clip-path="url(#clip0_268_45)">
    <path d="M60.3938 32.2649C48.9383 32.2649 39.6196 41.5766 39.6196 53.0235C39.6196 64.4704 48.9383 73.7821 60.3938 73.7821C71.8493 73.7821 81.168 64.4704 81.168 53.0235C81.168 41.5766 71.8493 32.2649 60.3938 32.2649ZM70.4693 45.0314L60.0822 58.3763C59.5035 59.1176 58.3758 59.1473 57.7674 58.4208L50.348 49.5242C49.8287 48.9014 49.9029 47.9673 50.5409 47.4335C51.1641 46.9145 52.099 46.9887 52.6332 47.6263L58.8803 55.1142L68.1396 43.2225C68.6441 42.5701 69.579 42.4663 70.217 42.9556C70.8699 43.4597 70.9738 44.3939 70.4841 45.0314H70.4693Z" fill="#BCB08A" fill-opacity="0.54"></path>
    <path d="M87.0292 37.0245C83.8388 34.9635 83.6014 34.6373 82.6072 30.9304C80.9305 24.7028 79.0756 23.5611 72.9324 23.8724C69.0595 24.0652 68.6737 23.9317 65.795 21.5742C60.824 17.5262 58.524 17.5262 53.5382 21.5742C50.6595 23.9169 50.2588 24.0652 46.4008 23.8724C40.3317 23.5759 38.4176 24.6138 36.7259 30.9304C35.7317 34.6373 35.4943 34.9635 32.304 37.0245C26.784 40.5979 26.3982 42.748 28.535 48.3528C29.9446 52.03 29.9446 52.5045 28.535 56.1817C26.3834 61.8014 26.784 63.9514 32.304 67.51C35.4943 69.5711 35.7317 69.8973 36.7259 73.6042C38.4027 79.8911 40.3021 80.9586 46.4008 80.6621C50.2737 80.4693 50.6595 80.6028 53.5382 82.9604C58.5092 87.0083 60.8092 87.0083 65.795 82.9604C68.6737 80.6176 69.0595 80.4693 72.9472 80.6621C79.0311 80.9735 80.9305 79.8911 82.6221 73.6042C83.6163 69.8973 83.8537 69.5711 87.044 67.51C92.564 63.9366 92.9498 61.7866 90.813 56.1817C89.4034 52.5045 89.4034 52.03 90.813 48.3528C92.9647 42.7331 92.564 40.5831 87.044 37.0245H87.0292ZM60.4085 76.7476C47.3208 76.7476 36.6666 66.1014 36.6666 53.0235C36.6666 39.9455 47.3208 29.2993 60.4085 29.2993C73.4963 29.2993 84.1505 39.9455 84.1505 53.0235C84.1505 66.1014 73.4963 76.7476 60.4085 76.7476Z" fill="#BCB08A" fill-opacity="0.54"></path>
    <path d="M69.7419 0H4.45161C2.00323 0 0 2.00172 0 4.44828V60.7931C0 63.2397 2.00323 65.2414 4.45161 65.2414H69.7419C72.1903 65.2414 74.1936 63.2397 74.1936 60.7931V4.44828C74.1936 2.00172 72.1903 0 69.7419 0ZM71.2258 60.7931C71.2258 61.6086 70.5581 62.2759 69.7419 62.2759H4.45161C3.63548 62.2759 2.96774 61.6086 2.96774 60.7931V4.44828C2.96774 3.63276 3.63548 2.96552 4.45161 2.96552H69.7419C70.5581 2.96552 71.2258 3.63276 71.2258 4.44828V60.7931Z" fill="#4D4D4D"></path>
    <path d="M10.3872 11.8621H37.0969C37.913 11.8621 38.5807 11.1949 38.5807 10.3794C38.5807 9.56385 37.913 8.89661 37.0969 8.89661H10.3872C9.57106 8.89661 8.90332 9.56385 8.90332 10.3794C8.90332 11.1949 9.57106 11.8621 10.3872 11.8621Z" fill="#4D4D4D"></path>
    <path d="M10.3872 17.7932H28.1936C29.0098 17.7932 29.6775 17.1259 29.6775 16.3104C29.6775 15.4949 29.0098 14.8276 28.1936 14.8276H10.3872C9.57106 14.8276 8.90332 15.4949 8.90332 16.3104C8.90332 17.1259 9.57106 17.7932 10.3872 17.7932Z" fill="#4D4D4D"></path>
    <path d="M63.8065 26.6897H10.3872C9.57106 26.6897 8.90332 27.3569 8.90332 28.1725C8.90332 28.988 9.57106 29.6552 10.3872 29.6552H63.8065C64.6227 29.6552 65.2904 28.988 65.2904 28.1725C65.2904 27.3569 64.6227 26.6897 63.8065 26.6897Z" fill="#4D4D4D"></path>
    <path d="M63.8065 35.5862H10.3872C9.57106 35.5862 8.90332 36.2534 8.90332 37.0689C8.90332 37.8845 9.57106 38.5517 10.3872 38.5517H63.8065C64.6227 38.5517 65.2904 37.8845 65.2904 37.0689C65.2904 36.2534 64.6227 35.5862 63.8065 35.5862Z" fill="#4D4D4D"></path>
    <path d="M63.8066 53.3793C59.6666 53.3793 57.0253 51.852 54.9034 50.6214C50.9118 48.3083 49.5021 48.16 45.1098 51.4517C43.9079 52.3562 42.6614 53.2903 41.6821 53.3645C41.5337 52.9641 41.4595 52.0448 41.4002 51.4072C41.2072 49.1238 40.9253 45.6689 37.5569 44.5569C32.9124 43.0148 29.5885 49.7465 28.2382 54.4469C28.0156 55.2327 28.4756 56.0483 29.2621 56.2855C30.0485 56.5079 30.8647 56.0631 31.1021 55.2624C31.7847 52.8603 34.3369 46.6031 36.6221 47.3593C38.0169 47.8338 38.2543 49.361 38.4472 51.6445C38.5956 53.5127 38.8331 56.33 41.5485 56.33C43.5221 56.33 45.2434 55.0548 46.8905 53.8093C50.2143 51.3183 50.4221 51.422 53.4195 53.1717C55.7195 54.5062 58.8653 56.33 63.8066 56.33C64.6227 56.33 65.2905 55.6627 65.2905 54.8472C65.2905 54.0317 64.6227 53.3645 63.8066 53.3645V53.3793Z" fill="#4D4D4D"></path>
  </g>
  <defs>
    <clipPath id="clip0_268_45">
      <rect width="92" height="86" fill="white"></rect>
    </clipPath>
  </defs>
</svg>
