<?xml version="1.0" encoding="UTF-8"?>
<svg xmlns="http://www.w3.org/2000/svg" width="112" height="82" viewBox="0 0 112 82" fill="none">
  <path d="M85.1579 1.67999C85.1579 1.02421 84.5539 0.487671 83.8158 0.487671H65.0263C62.7984 0.487671 61 2.08538 61 4.06463V13.2455C61 14.6047 61.0805 15.9521 61.2147 17.2875C61.2818 17.8955 61.8589 18.3725 62.5568 18.3725H85.1579V1.67999Z" fill="#BCB08A" fill-opacity="0.54"></path>
  <path d="M111.785 17.2875C111.92 15.9521 112 14.6047 112 13.2455V4.06463C112 2.08538 110.202 0.487671 107.974 0.487671H89.1844C88.4462 0.487671 87.8423 1.02421 87.8423 1.67999V18.3725H110.443C111.141 18.3725 111.718 17.9075 111.785 17.2875Z" fill="#BCB08A"></path>
  <path d="M87.8423 20.7571V51.4474C87.8423 51.8528 88.3523 52.0912 88.7281 51.8647C100.458 44.9135 108.363 34.1945 111.007 22.164C111.168 21.4367 110.524 20.7571 109.678 20.7571H87.8423Z" fill="#BCB08A" fill-opacity="0.54"></path>
  <path d="M61.9932 22.164C64.6371 34.1945 72.5421 44.9135 84.2721 51.8647C84.6479 52.0912 85.1579 51.8528 85.1579 51.4474V20.7571H63.3218C62.4897 20.7571 61.8321 21.4367 61.9932 22.164Z" fill="#BCB08A" fill-opacity="0.54"></path>
  <g clip-path="url(#clip0_342_2241)">
    <path d="M29.723 82H6.46468C2.89824 82 0 79.1018 0 75.5353V37.4557C0 36.9646 0.233469 36.5299 0.599774 36.2521L10.1157 26.7363C12.3739 24.478 16.045 24.478 18.3032 26.7363C18.3153 26.7483 18.3273 26.7604 18.3394 26.7765L26.8973 35.9623H29.7271C33.5229 35.9663 36.6104 39.0538 36.6104 42.8497C36.6104 45.0193 35.6 46.9595 34.0261 48.2235C35.6 49.4874 36.6104 51.4236 36.6104 53.5973C36.6104 55.771 35.596 57.7152 34.0181 58.9792C35.6 60.2431 36.6104 62.1833 36.6104 64.361C36.6104 66.5387 35.596 68.4789 34.0181 69.7429C35.6 71.0068 36.6104 72.947 36.6104 75.1248C36.6104 78.9206 33.5229 82.0081 29.7271 82.0081L29.723 82ZM3.01095 38.0998V75.5353C3.01095 77.4393 4.5607 78.9891 6.46468 78.9891H29.723C31.8605 78.9891 33.5994 77.2501 33.5994 75.1127C33.5994 72.9752 31.8605 71.2363 29.723 71.2363H26.7282C25.899 71.2363 25.2227 70.564 25.2227 69.7308C25.2227 68.8976 25.895 68.2253 26.7282 68.2253H29.723C31.8605 68.2253 33.5994 66.4864 33.5994 64.3489C33.5994 62.2115 31.8605 60.4725 29.723 60.4725H26.7282C25.899 60.4725 25.2227 59.8003 25.2227 58.9671C25.2227 58.1338 25.895 57.4616 26.7282 57.4616H29.723C31.8605 57.4616 33.5994 55.7227 33.5994 53.5852C33.5994 51.4478 32.0135 49.8658 30.0088 49.7209C29.9163 49.7209 29.8196 49.7249 29.723 49.7249L26.7282 49.7088C25.899 49.7088 25.2227 49.0366 25.2227 48.2033C25.2227 47.3701 25.895 46.6979 26.7282 46.6979H29.723C29.8196 46.6979 29.9163 46.6979 30.0129 46.7019C32.0094 46.557 33.5994 44.8784 33.5994 42.8376C33.5994 40.7967 31.8605 38.9531 29.723 38.9531H19.2451C18.4159 38.9531 17.7396 38.2688 17.7437 37.4396C17.7437 36.6104 18.4199 35.9382 19.2491 35.9382H22.7793L16.1577 28.8335C15.6344 28.3182 14.942 28.0364 14.2094 28.0364C13.4768 28.0364 12.7683 28.3263 12.2451 28.8496L3.01095 38.0998Z" fill="#4D4D4D"></path>
    <path d="M75.5352 82H52.2769C48.481 82 45.3936 78.9126 45.3936 75.1167C45.3936 72.943 46.4079 70.9988 47.9859 69.7348C46.4079 68.4709 45.3936 66.5307 45.3936 64.353C45.3936 62.1753 46.4079 60.2351 47.9859 58.9711C46.4079 57.7071 45.3936 55.7669 45.3936 53.5892C45.3936 51.4115 46.4039 49.4794 47.9778 48.2154C46.4039 46.9515 45.3936 45.0153 45.3936 42.8456C45.3936 39.0497 48.481 35.9623 52.2769 35.9623H55.1027L63.6605 26.7725C63.6726 26.7604 63.6847 26.7483 63.6967 26.7363C65.9549 24.478 69.626 24.478 71.8843 26.7363L81.4001 36.2521C81.7624 36.5259 81.9999 36.9646 81.9999 37.4557V75.5353C81.9999 79.1018 79.1017 82 75.5352 82ZM52.2769 71.2403C50.1394 71.2403 48.4005 72.9793 48.4005 75.1167C48.4005 77.2542 50.1394 78.9931 52.2769 78.9931H75.5352C77.4392 78.9931 78.993 77.4433 78.993 75.5394V38.0998L69.7589 28.8657C68.6801 27.7869 66.9291 27.7828 65.8422 28.8496L59.2206 35.9543H62.7548C63.584 35.9543 64.2603 36.6225 64.2603 37.4557C64.2603 38.2849 63.5881 38.9692 62.7588 38.9692H52.2809C50.1434 38.9692 48.4045 40.7162 48.4045 42.8537C48.4045 44.9911 49.9905 46.5731 51.9951 46.718C52.0877 46.718 52.1843 46.714 52.2809 46.714H55.2757C56.105 46.714 56.7812 47.3862 56.7812 48.2194C56.7812 49.0527 56.109 49.7249 55.2757 49.7249L52.2889 49.741C52.1923 49.741 52.0957 49.741 51.9991 49.733C49.9945 49.8779 48.4045 51.5564 48.4045 53.5973C48.4045 55.6381 50.1434 57.4737 52.2809 57.4737H55.2757C56.105 57.4737 56.7812 58.1459 56.7812 58.9792C56.7812 59.8124 56.109 60.4846 55.2757 60.4846H52.2809C50.1434 60.4846 48.4045 62.2236 48.4045 64.361C48.4045 66.4985 50.1434 68.2374 52.2809 68.2374H55.2757C56.105 68.2374 56.7812 68.9096 56.7812 69.7429C56.7812 70.5761 56.109 71.2484 55.2757 71.2484H52.2809L52.2769 71.2403Z" fill="#4D4D4D"></path>
    <path d="M41.0021 18.4642C40.1728 18.4642 39.4966 17.792 39.4966 16.9587V1.50547C39.4966 0.676255 40.1688 0 41.0021 0C41.8353 0 42.5075 0.67223 42.5075 1.50547V16.9627C42.5075 17.792 41.8353 18.4682 41.0021 18.4682V18.4642Z" fill="#4D4D4D"></path>
    <path d="M30.3429 22.4413C29.8438 22.4413 29.3607 22.1957 29.0709 21.7449L22.3929 11.2508C21.9461 10.5504 22.1554 9.62059 22.8558 9.17377C23.5562 8.72696 24.4861 8.93628 24.9329 9.63669L31.6109 20.1307C32.0577 20.8311 31.8484 21.761 31.148 22.2078C30.8984 22.3688 30.6166 22.4413 30.3429 22.4413Z" fill="#4D4D4D"></path>
    <path d="M51.6571 22.4413C51.3794 22.4413 51.1016 22.3648 50.8521 22.2078C50.1517 21.761 49.9464 20.8311 50.3892 20.1307L57.0672 9.63669C57.514 8.93628 58.4438 8.72696 59.1442 9.17377C59.8447 9.62059 60.0499 10.5504 59.6072 11.2508L52.9291 21.7449C52.6433 22.1957 52.1563 22.4413 51.6571 22.4413Z" fill="#4D4D4D"></path>
  </g>
  <defs>
    <clipPath id="clip0_342_2241">
      <rect width="82" height="82" fill="white"></rect>
    </clipPath>
  </defs>
</svg>
