<?xml version="1.0" encoding="UTF-8"?>
<svg xmlns="http://www.w3.org/2000/svg" width="99" height="98" viewBox="0 0 99 98" fill="none">
  <g clip-path="url(#clip0_268_39)">
    <path d="M73.4517 98H86.2259V85.1475C86.2259 81.5971 83.3676 78.7213 79.8388 78.7213C76.3099 78.7213 73.4517 81.5971 73.4517 85.1475V98Z" fill="#BCB08A" fill-opacity="0.54"></path>
    <path d="M79.8388 75.5082C83.3663 75.5082 86.2259 72.6311 86.2259 69.082C86.2259 65.5329 83.3663 62.6558 79.8388 62.6558C76.3113 62.6558 73.4517 65.5329 73.4517 69.082C73.4517 72.6311 76.3113 75.5082 79.8388 75.5082Z" fill="#BCB08A" fill-opacity="0.54"></path>
    <path d="M94.2099 36.9508H43.1131C40.4784 36.9508 38.3228 39.1197 38.3228 41.7705V93.1803C38.3228 95.8311 40.4784 98 43.1131 98H70.2582V85.1475C70.2582 81.7898 71.9668 78.8498 74.5536 77.1147C71.9668 75.3797 70.2582 72.4397 70.2582 69.082C70.2582 63.7642 74.5536 59.4426 79.8389 59.4426C85.1242 59.4426 89.4195 63.7642 89.4195 69.082C89.4195 72.4397 87.711 75.3797 85.1242 77.1147C87.711 78.8498 89.4195 81.7898 89.4195 85.1475V98H94.2099C96.8445 98 99.0002 95.8311 99.0002 93.1803V41.7705C99.0002 39.1197 96.8445 36.9508 94.2099 36.9508ZM59.0808 59.4426H49.5002C48.6219 59.4426 47.9034 58.7197 47.9034 57.8361C47.9034 56.9524 48.6219 56.2295 49.5002 56.2295H59.0808C59.959 56.2295 60.6776 56.9524 60.6776 57.8361C60.6776 58.7197 59.959 59.4426 59.0808 59.4426ZM68.6615 49.8033H49.5002C48.6219 49.8033 47.9034 49.0803 47.9034 48.1967C47.9034 47.3131 48.6219 46.5901 49.5002 46.5901H68.6615C69.5397 46.5901 70.2582 47.3131 70.2582 48.1967C70.2582 49.0803 69.5397 49.8033 68.6615 49.8033Z" fill="#BCB08A" fill-opacity="0.54"></path>
    <path d="M75.0484 9.63934H58.6335C54.4181 3.80754 47.6158 0 39.9194 0C32.2229 0 25.4206 3.80754 21.2052 9.63934H4.79032C2.15565 9.63934 0 11.8082 0 14.459V65.8689C0 68.5197 2.15565 70.6885 4.79032 70.6885H39.5361L58.3621 80.1511C59.4319 80.6813 60.6774 79.8941 60.6774 78.7213V70.6885H75.0484C77.6831 70.6885 79.8387 68.5197 79.8387 65.8689V14.459C79.8387 11.8082 77.6831 9.63934 75.0484 9.63934ZM39.9194 3.21311C50.9211 3.21311 59.879 12.2259 59.879 23.2951C59.879 32.7095 53.4121 40.5977 44.7097 42.7666V32.1311H47.9032C51.4321 32.1311 54.2903 29.2554 54.2903 25.7049C54.2903 22.1544 51.4321 19.2787 47.9032 19.2787C44.3744 19.2787 41.5161 22.1544 41.5161 25.7049V28.918H38.3226V25.7049C38.3226 22.1544 35.4644 19.2787 31.9355 19.2787C28.4066 19.2787 25.5484 22.1544 25.5484 25.7049C25.5484 29.2554 28.4066 32.1311 31.9355 32.1311H35.129V42.7666C26.4266 40.5977 19.9597 32.7095 19.9597 23.2951C19.9597 12.2259 28.9176 3.21311 39.9194 3.21311ZM31.9355 53.0164H47.9032V56.2295C47.9032 57.1131 47.1847 57.8361 46.3064 57.8361H33.5323C32.654 57.8361 31.9355 57.1131 31.9355 56.2295V53.0164ZM47.9032 49.8033H31.9355V45.1282C34.4264 46.06 37.109 46.5902 39.9194 46.5902C42.7297 46.5902 45.4123 46.06 47.9032 45.1282V49.8033ZM35.129 28.918H31.9355C30.179 28.918 28.7419 27.4721 28.7419 25.7049C28.7419 23.9377 30.179 22.4918 31.9355 22.4918C33.6919 22.4918 35.129 23.9377 35.129 25.7049V28.918ZM41.5161 43.2967C40.9892 43.3449 40.4623 43.377 39.9194 43.377C39.3764 43.377 38.8495 43.3449 38.3226 43.2967V32.1311H41.5161V43.2967ZM44.7097 28.918V25.7049C44.7097 23.9377 46.1468 22.4918 47.9032 22.4918C49.6597 22.4918 51.0968 23.9377 51.0968 25.7049C51.0968 27.4721 49.6597 28.918 47.9032 28.918H44.7097ZM76.6452 65.8689C76.6452 66.7525 75.9266 67.4754 75.0484 67.4754H59.0806C58.2024 67.4754 57.4839 68.1984 57.4839 69.082V76.1187L40.6379 67.6361C40.4144 67.5236 40.1748 67.4593 39.9194 67.4593H4.79032C3.9121 67.4593 3.19355 66.7364 3.19355 65.8528V14.459C3.19355 13.5754 3.9121 12.8525 4.79032 12.8525H19.2571C17.6763 16.0013 16.7661 19.5357 16.7661 23.2951C16.7661 32.0669 21.6044 39.7141 28.7419 43.6823V56.2295C28.7419 58.8803 30.8976 61.0492 33.5323 61.0492H46.3064C48.9411 61.0492 51.0968 58.8803 51.0968 56.2295V43.6823C58.2344 39.7141 63.0726 32.0669 63.0726 23.2951C63.0726 19.5357 62.1624 16.0013 60.5816 12.8525H75.0484C75.9266 12.8525 76.6452 13.5754 76.6452 14.459V65.8689Z" fill="#4D4D4D"></path>
  </g>
  <defs>
    <clipPath id="clip0_268_39">
      <rect width="99" height="98" fill="white"></rect>
    </clipPath>
  </defs>
</svg>
