<?xml version="1.0" encoding="UTF-8"?>
<svg xmlns="http://www.w3.org/2000/svg" width="85" height="89" viewBox="0 0 85 89" fill="none">
  <g clip-path="url(#clip0_287_873)">
    <path d="M53.3054 60.2904C58.8751 60.2904 63.3902 55.7916 63.3902 50.242C63.3902 44.6924 58.8751 40.1936 53.3054 40.1936C47.7358 40.1936 43.2207 44.6924 43.2207 50.242C43.2207 55.7916 47.7358 60.2904 53.3054 60.2904Z" fill="#BCB08A" fill-opacity="0.54"></path>
    <path d="M33.136 64.5968C35.523 64.5968 37.458 62.6687 37.458 60.2903C37.458 57.912 35.523 55.9839 33.136 55.9839C30.749 55.9839 28.814 57.912 28.814 60.2903C28.814 62.6687 30.749 64.5968 33.136 64.5968Z" fill="#BCB08A" fill-opacity="0.54"></path>
    <path d="M73.4749 64.5968C75.8619 64.5968 77.7969 62.6687 77.7969 60.2903C77.7969 57.912 75.8619 55.9839 73.4749 55.9839C71.0879 55.9839 69.1528 57.912 69.1528 60.2903C69.1528 62.6687 71.0879 64.5968 73.4749 64.5968Z" fill="#BCB08A" fill-opacity="0.54"></path>
    <path d="M28.6553 65.86C27.0129 64.5394 25.9324 62.5441 25.9324 60.2904C25.9324 56.3284 29.1595 53.1129 33.1358 53.1129C37.112 53.1129 40.3392 56.3284 40.3392 60.2904C40.3392 62.5441 39.2587 64.5394 37.6163 65.86C38.6968 66.5204 39.6188 67.396 40.3248 68.4439C41.7654 65.4581 44.2146 63.0465 47.2256 61.6397C43.1341 59.4721 40.3392 55.1657 40.3392 50.2276C40.3392 43.1076 46.1595 37.3083 53.3053 37.3083C60.451 37.3083 66.2714 43.1076 66.2714 50.2276C66.2714 55.1657 63.4765 59.4578 59.3849 61.6397C62.3959 63.0465 64.8451 65.4581 66.2858 68.4439C66.9917 67.396 67.9137 66.5204 68.9943 65.86C67.3519 64.5394 66.2714 62.5441 66.2714 60.2904C66.2714 56.3284 69.4985 53.1129 73.4748 53.1129C77.451 53.1129 80.6782 56.3284 80.6782 60.2904C80.6782 62.5441 79.5976 64.5394 77.9553 65.86C79.8714 67.0228 81.2832 68.9033 81.8451 71.1283C83.862 66.9797 84.9858 62.3287 84.9858 57.4194C84.9858 40.007 70.7663 25.8387 53.2909 25.8387C35.8154 25.8387 21.6104 40.007 21.6104 57.4194C21.6104 62.3287 22.7485 66.9797 24.751 71.1283C25.3129 68.9033 26.7248 67.0228 28.6409 65.86H28.6553Z" fill="#BCB08A" fill-opacity="0.54"></path>
    <path d="M27.373 75.5495C30.3408 79.7412 34.2883 83.1863 38.8985 85.5405V73.2097C38.8985 70.0373 36.3197 67.4678 33.1358 67.4678C29.9519 67.4678 27.373 70.0373 27.373 73.2097V75.5495Z" fill="#BCB08A" fill-opacity="0.54"></path>
    <path d="M67.7119 85.5405C72.3221 83.1863 76.2695 79.7412 79.2373 75.5495V73.2097C79.2373 70.0373 76.6585 67.4678 73.4746 67.4678C70.2907 67.4678 67.7119 70.0373 67.7119 73.2097V85.5405Z" fill="#BCB08A" fill-opacity="0.54"></path>
    <path d="M41.7798 74.6452V86.8325C45.3527 88.2249 49.2425 89.0001 53.3052 89.0001C57.3679 89.0001 61.2578 88.2249 64.8306 86.8325V74.6452C64.8306 68.3148 59.6586 63.1614 53.3052 63.1614C46.9518 63.1614 41.7798 68.3148 41.7798 74.6452Z" fill="#BCB08A" fill-opacity="0.54"></path>
    <path d="M67.7119 0H41.7797C40.9873 0 40.339 0.645968 40.339 1.43548V30.1452H37.4576V27.2742C37.4576 21.7332 32.9339 17.2258 27.3729 17.2258H25.7737C27.6466 15.4027 28.8136 12.8619 28.8136 10.0484C28.8136 4.50742 24.2898 0 18.7288 0C13.1678 0 8.64407 4.50742 8.64407 10.0484C8.64407 12.8619 9.81102 15.4027 11.6839 17.2258H10.0847C4.52373 17.2258 0 21.7332 0 27.2742V41.629C0 43.9976 1.94492 45.9355 4.32203 45.9355H8.64407V67.4677C8.64407 69.8363 10.589 71.7742 12.9661 71.7742H24.4915C26.8686 71.7742 28.8136 69.8363 28.8136 67.4677V40.1505C30.0237 41.0548 31.5076 41.629 33.1356 41.629H40.339V70.3387C40.339 71.1282 40.9873 71.7742 41.7797 71.7742C42.572 71.7742 43.2203 71.1282 43.2203 70.3387V28.7097H67.7119C70.089 28.7097 72.0339 26.7718 72.0339 24.4032V4.30645C72.0339 1.9379 70.089 0 67.7119 0ZM11.5254 10.0484C11.5254 6.08645 14.7525 2.87097 18.7288 2.87097C22.7051 2.87097 25.9322 6.08645 25.9322 10.0484C25.9322 14.0103 22.7051 17.2258 18.7288 17.2258C14.7525 17.2258 11.5254 14.0103 11.5254 10.0484ZM33.1356 38.7581C30.7585 38.7581 28.8136 36.8202 28.8136 34.4516C28.8136 34.2937 28.8136 28.4944 28.8136 28.7097C28.8136 27.9202 28.1653 27.2742 27.3729 27.2742C26.5805 27.2742 25.9322 27.9202 25.9322 28.7097V67.4677C25.9322 68.2573 25.2839 68.9032 24.4915 68.9032H20.1695V48.8064C20.1695 48.0169 19.5212 47.371 18.7288 47.371C17.9364 47.371 17.2881 48.0169 17.2881 48.8064V68.9032H12.9661C12.1737 68.9032 11.5254 68.2573 11.5254 67.4677V28.7097C11.5254 27.9202 10.8771 27.2742 10.0847 27.2742C9.29237 27.2742 8.64407 27.9202 8.64407 28.7097V43.0645H4.32203C3.52966 43.0645 2.88136 42.4185 2.88136 41.629V27.2742C2.88136 23.3123 6.10847 20.0968 10.0847 20.0968H27.3729C31.3492 20.0968 34.5763 23.3123 34.5763 27.2742V31.5806C34.5763 32.3702 35.2246 33.0161 36.0169 33.0161H40.339V38.7581H33.1356ZM69.1525 24.4032C69.1525 25.1927 68.5042 25.8387 67.7119 25.8387H43.2203V2.87097H67.7119C68.5042 2.87097 69.1525 3.51694 69.1525 4.30645V24.4032Z" fill="#4D4D4D"></path>
  </g>
  <defs>
    <clipPath id="clip0_287_873">
      <rect width="85" height="89" fill="white"></rect>
    </clipPath>
  </defs>
</svg>
