<?xml version="1.0" encoding="UTF-8"?>
<svg xmlns="http://www.w3.org/2000/svg" width="1331" height="756" viewBox="0 0 1331 756" fill="none">
  <g clip-path="url(#clip0_760_10)">
    <path d="M52.3706 599.771C52.3706 613.487 52.3706 624.786 53.0889 630.795C53.546 634.975 54.3949 638.11 58.6394 638.632C60.6636 638.893 63.798 639.22 65.104 639.22C65.9529 639.22 66.2794 639.677 66.2794 640.069C66.2794 640.788 65.5611 641.245 63.9939 641.245C56.158 641.245 47.1466 640.788 46.4283 640.788C45.71 640.788 36.6987 641.245 32.3889 641.245C30.8218 641.245 30.1035 640.983 30.1035 640.069C30.1035 639.612 30.3647 639.22 31.2789 639.22C32.5848 639.22 34.2826 638.959 35.5886 638.632C38.4618 638.044 39.1801 634.909 39.7678 630.795C40.4861 624.786 40.4861 613.487 40.4861 599.771V539.226C33.499 539.356 26.3161 539.356 19.329 539.487C10.4483 539.617 7.05274 540.662 4.76726 544.059C3.20007 546.475 2.74297 547.52 2.35117 548.5C1.89408 549.676 1.50228 549.937 0.914584 549.937C0.457487 549.937 0.196289 549.48 0.196289 548.631C0.196289 547.194 3.06947 534.915 3.33067 533.739C3.59186 532.89 4.17956 530.996 4.76726 530.996C5.74675 530.996 7.18334 532.433 11.036 532.694C15.2152 533.151 20.635 533.413 22.3328 533.413H75.8131C80.3841 533.413 83.6491 533.151 85.9998 532.694C88.1547 532.433 89.4607 531.976 89.9831 531.976C90.7014 531.976 90.7014 532.825 90.7014 533.674C90.7014 537.985 90.2443 547.847 90.2443 549.414C90.2443 550.721 89.7872 551.243 89.2648 551.243C88.5465 551.243 88.2853 550.786 88.0894 548.827C88.0894 548.239 87.9588 547.847 87.9588 547.259C87.5017 542.948 84.1062 539.683 70.3933 539.421C64.3857 539.291 58.3782 539.291 52.3706 539.16V599.706V599.771Z" fill="white"></path>
    <path d="M128.314 594.611C128.314 615.185 132.885 624.067 139.023 629.946C146.01 636.542 152.475 637.783 160.637 637.783C169.387 637.783 177.941 633.603 183.1 627.464C189.695 619.299 191.393 607.151 191.393 592.39V574.495C191.393 552.158 191.393 548.173 191.132 543.602C190.871 538.768 189.695 536.417 184.994 535.437C183.818 535.176 181.402 534.98 180.161 534.98C179.574 534.98 178.986 534.719 178.986 534.131C178.986 533.282 179.704 532.955 181.272 532.955C187.736 532.955 195.572 533.413 196.421 533.413C197.401 533.413 204.126 532.955 208.436 532.955C210.003 532.955 210.722 533.217 210.722 534.131C210.722 534.719 210.134 534.98 209.546 534.98C208.567 534.98 207.718 535.111 205.955 535.437C202.102 536.286 200.927 538.572 200.666 543.602C200.404 548.173 200.404 552.158 200.404 574.495V589.778C200.404 605.257 198.707 622.369 187.214 632.558C176.897 641.702 166.187 643.139 157.764 643.139C152.932 643.139 138.435 642.551 128.314 632.95C121.327 626.223 115.841 616.23 115.841 595.33V574.429C115.841 552.092 115.841 548.108 115.58 543.536C115.319 538.703 114.144 536.352 109.442 535.372C108.267 535.111 105.851 534.915 104.61 534.915C104.022 534.915 103.435 534.654 103.435 534.066C103.435 533.217 104.153 532.89 105.72 532.89C112.185 532.89 120.87 533.347 122.176 533.347C123.482 533.347 132.036 532.89 136.346 532.89C137.913 532.89 138.631 533.151 138.631 534.066C138.631 534.654 138.043 534.915 137.456 534.915C136.476 534.915 135.627 535.046 133.864 535.372C130.011 535.96 128.836 538.507 128.575 543.536C128.314 548.108 128.314 552.092 128.314 574.429V594.48V594.611Z" fill="white"></path>
    <path d="M254.93 600.097C254.93 621.128 255.518 630.272 258.064 632.885C260.35 635.171 264.072 636.15 275.238 636.15C282.813 636.15 289.147 636.02 292.542 631.84C294.371 629.554 295.807 625.961 296.265 623.284C296.395 622.108 296.722 621.455 297.571 621.455C298.289 621.455 298.419 622.043 298.419 623.61C298.419 625.178 297.44 633.799 296.265 637.914C295.285 641.179 294.828 641.767 287.253 641.767C274.977 641.767 262.766 640.918 248.922 640.918C244.482 640.918 240.172 641.375 234.883 641.375C233.316 641.375 232.598 641.114 232.598 640.2C232.598 639.742 232.859 639.351 233.773 639.351C235.079 639.351 236.777 639.089 238.083 638.763C240.956 638.175 241.674 635.04 242.262 630.925C242.98 624.916 242.98 613.617 242.98 599.901V574.691C242.98 552.353 242.98 548.369 242.719 543.797C242.458 538.964 241.282 536.613 236.581 535.633C235.405 535.372 232.989 535.176 231.749 535.176C231.161 535.176 230.573 534.915 230.573 534.327C230.573 533.478 231.292 533.151 232.859 533.151C239.323 533.151 248.335 533.609 249.053 533.609C249.771 533.609 260.219 533.151 264.529 533.151C266.096 533.151 266.814 533.413 266.814 534.327C266.814 534.915 266.227 535.176 265.639 535.176C264.66 535.176 262.635 535.307 260.938 535.633C256.758 536.352 255.648 538.768 255.387 543.797C255.126 548.369 255.126 552.353 255.126 574.691V600.163L254.93 600.097Z" fill="white"></path>
    <path d="M330.873 594.611C330.873 615.185 335.444 624.067 341.582 629.946C348.569 636.542 355.034 637.783 363.197 637.783C371.947 637.783 380.501 633.603 385.66 627.464C392.255 619.299 393.953 607.151 393.953 592.39V574.495C393.953 552.158 393.953 548.173 393.691 543.602C393.43 538.768 392.255 536.417 387.553 535.437C386.378 535.176 383.962 534.98 382.721 534.98C382.133 534.98 381.546 534.719 381.546 534.131C381.546 533.282 382.264 532.955 383.831 532.955C390.296 532.955 398.132 533.413 398.981 533.413C399.96 533.413 406.686 532.955 410.996 532.955C412.563 532.955 413.281 533.217 413.281 534.131C413.281 534.719 412.694 534.98 412.106 534.98C411.126 534.98 410.277 535.111 408.514 535.437C404.662 536.286 403.486 538.572 403.225 543.602C402.964 548.173 402.964 552.158 402.964 574.495V589.778C402.964 605.257 401.266 622.369 389.773 632.558C379.456 641.702 368.747 643.139 360.323 643.139C355.491 643.139 340.995 642.551 330.873 632.95C323.886 626.223 318.401 616.23 318.401 595.33V574.429C318.401 552.092 318.401 548.108 318.14 543.536C317.879 538.703 316.703 536.352 312.002 535.372C310.826 535.111 308.41 534.915 307.17 534.915C306.582 534.915 305.994 534.654 305.994 534.066C305.994 533.217 306.712 532.89 308.28 532.89C314.744 532.89 323.429 533.347 324.735 533.347C326.041 533.347 334.595 532.89 338.905 532.89C340.472 532.89 341.191 533.151 341.191 534.066C341.191 534.654 340.603 534.915 340.015 534.915C339.036 534.915 338.187 535.046 336.424 535.372C332.571 535.96 331.396 538.507 331.134 543.536C330.873 548.108 330.873 552.092 330.873 574.429V594.48V594.611Z" fill="white"></path>
    <path d="M550.018 622.827C550.606 627.986 551.585 636.02 557.723 637.979C561.903 639.285 565.168 639.285 566.604 639.285C567.322 639.285 568.171 639.416 568.171 640.135C568.171 640.984 567.714 641.31 566.016 641.31C562.882 641.31 546.557 640.853 541.268 640.461C538.003 640.2 537.285 639.743 537.285 639.024C537.285 638.436 537.546 638.306 538.264 638.045C539.244 637.587 539.113 635.497 538.852 632.885L531.995 558.167L496.538 633.407C493.534 639.677 493.077 640.984 491.836 640.984C490.857 640.984 490.138 639.547 487.396 634.387C483.674 627.398 471.398 602.645 470.679 601.208C469.373 598.661 452.918 563.261 451.351 559.407L445.474 626.811C445.343 629.097 445.212 631.121 445.212 633.538C445.212 637.13 446.91 638.24 449.065 638.698C451.481 639.285 453.375 639.285 454.224 639.285C455.073 639.285 455.66 639.547 455.66 640.004C455.66 640.984 454.942 641.31 453.505 641.31C448.216 641.31 440.903 640.853 439.793 640.853C438.487 640.853 431.63 641.31 427.777 641.31C426.341 641.31 425.361 641.18 425.361 640.135C425.361 639.547 426.08 639.285 426.798 639.285C427.973 639.285 428.953 639.285 431.108 638.828C435.809 637.979 436.136 632.819 436.854 626.941L447.171 533.935C447.302 532.368 447.89 531.062 448.739 531.062C449.587 531.062 450.175 531.649 450.893 533.217L494.644 623.218L536.697 533.348C537.285 532.041 537.872 531.062 538.852 531.062C539.831 531.062 540.288 532.237 540.55 534.915L550.149 622.761L550.018 622.827Z" fill="white"></path>
    <path d="M593.769 574.625C593.769 552.288 593.769 548.304 593.508 543.732C593.247 538.899 592.071 536.548 587.37 535.568C586.521 535.437 585.084 535.437 583.778 535.307C582.472 535.176 581.362 535.045 581.362 534.327C581.362 533.478 582.081 533.151 583.648 533.151C589.198 533.151 594.683 533.609 599.842 533.609C602.715 533.609 631.774 533.609 635.039 533.478C638.303 533.347 640.915 533.347 642.026 532.629C642.483 532.368 643.005 532.041 643.332 532.041C643.919 532.041 644.18 532.629 644.18 533.347C644.18 534.066 643.593 536.09 643.332 537.789C642.744 541.969 642.744 544.255 642.483 548.239C642.483 549.937 641.764 551.112 641.177 551.112C640.458 551.112 640.328 550.525 640.197 549.284C640.067 547.259 639.479 543.863 637.455 542.099C635.757 540.662 633.145 539.552 629.031 539.356C621.717 539.225 614.469 539.095 607.156 538.899C606.307 538.899 605.85 539.356 605.85 540.466V579.981C605.85 580.83 605.98 581.287 606.829 581.287C612.706 581.287 620.869 581.287 626.745 581.157C634.32 581.026 636.214 580.895 638.173 578.413C638.891 577.564 639.152 576.976 639.74 576.976C640.328 576.976 640.458 577.434 640.458 578.152C640.458 579.001 639.74 581.418 639.283 586.186C638.826 590.496 638.826 593.893 638.695 596.048C638.565 597.615 638.434 598.465 637.716 598.465C636.867 598.465 636.736 597.485 636.54 596.048C636.279 592.913 635.822 587.884 628.378 586.904C624.787 586.447 609.18 586.447 606.764 586.447C606.046 586.447 605.784 586.708 605.784 587.753V599.901C605.784 612.05 605.784 622.239 606.241 628.835C606.698 635.301 608.266 638.436 612.118 638.828C613.947 639.089 616.428 639.285 617.995 639.416C619.301 639.547 619.693 639.873 619.693 640.396C619.693 641.114 618.975 641.375 617.408 641.375C609.376 641.375 600.495 640.918 599.842 640.918H598.536C595.663 641.049 589.264 641.375 585.803 641.375C584.235 641.375 583.517 641.114 583.517 640.2C583.517 639.742 583.778 639.481 585.084 639.351C586.521 639.22 587.827 639.089 588.806 638.763C591.81 637.914 592.79 635.758 593.247 629.488C593.704 623.349 593.835 613.291 593.835 599.901V574.691L593.769 574.625Z" fill="white"></path>
    <path d="M677.026 574.625C677.026 552.288 677.026 548.304 676.765 543.732C676.504 538.899 675.328 536.548 670.627 535.568C669.451 535.307 667.035 535.111 665.795 535.111C665.207 535.111 664.619 534.849 664.619 534.262C664.619 533.413 665.337 533.086 666.905 533.086C673.369 533.086 682.381 533.543 683.099 533.543C684.666 533.543 695.571 533.086 700.011 533.086C709.023 533.086 718.622 533.935 726.197 539.356C729.788 541.903 736.057 548.957 736.057 558.819C736.057 569.4 731.616 579.981 718.752 591.868C730.506 606.89 740.236 619.626 748.529 628.508C756.234 636.673 762.373 638.24 765.964 638.828C768.707 639.285 770.666 639.285 771.514 639.285C772.233 639.285 772.82 639.742 772.82 640.134C772.82 640.983 771.972 641.31 769.36 641.31H759.173C751.141 641.31 747.615 640.591 743.893 638.567C737.755 635.301 732.727 628.247 724.564 617.536C718.557 609.698 711.831 600.097 708.958 596.374C708.37 595.787 707.978 595.525 707.129 595.525L689.564 595.264C688.845 595.264 688.584 595.721 688.584 596.44V599.901C688.584 613.617 688.584 624.916 689.302 630.925C689.759 635.105 690.608 638.24 694.853 638.763C696.877 639.024 700.011 639.35 701.317 639.35C702.166 639.35 702.493 639.808 702.493 640.2C702.493 640.918 701.775 641.375 700.207 641.375C692.371 641.375 683.36 640.918 682.642 640.918C682.511 640.918 673.5 641.375 669.19 641.375C667.623 641.375 666.905 641.114 666.905 640.2C666.905 639.742 667.166 639.35 668.08 639.35C669.386 639.35 671.084 639.089 672.39 638.763C675.263 638.175 675.981 635.04 676.569 630.925C677.287 624.916 677.287 613.617 677.287 599.901V574.69L677.026 574.625ZM688.453 587.1C688.453 587.818 688.715 588.406 689.433 588.798C691.588 590.104 698.183 591.084 704.452 591.084C707.913 591.084 711.896 590.627 715.161 588.341C720.189 584.879 723.911 577.172 723.911 566.33C723.911 548.435 714.443 537.723 699.163 537.723C694.853 537.723 691 538.18 689.564 538.572C688.845 538.833 688.388 539.421 688.388 540.27V587.035L688.453 587.1Z" fill="white"></path>
    <path d="M769.294 587.035C769.294 563.849 786.207 531.062 825.647 531.062C857.84 531.062 881.87 551.374 881.87 584.684C881.87 617.993 859.277 643.204 824.799 643.204C785.619 643.204 769.294 612.703 769.294 586.97V587.035ZM868.157 588.733C868.157 554.378 847.262 535.96 824.668 535.96C800.768 535.96 782.876 551.7 782.876 583.051C782.876 616.361 802.923 637.849 828.651 637.849C841.515 637.849 868.157 630.403 868.157 588.798V588.733Z" fill="white"></path>
    <path d="M1022.92 622.827C1023.51 627.986 1024.48 636.02 1030.62 637.979C1034.8 639.285 1038.07 639.285 1039.5 639.285C1040.22 639.285 1041.07 639.416 1041.07 640.135C1041.07 640.984 1040.61 641.31 1038.92 641.31C1035.78 641.31 1019.46 640.853 1014.17 640.461C1010.9 640.2 1010.18 639.743 1010.18 639.024C1010.18 638.436 1010.45 638.306 1011.16 638.045C1012.14 637.587 1012.01 635.497 1011.75 632.885L1004.89 558.167L969.437 633.407C966.433 639.677 965.976 640.984 964.736 640.984C963.756 640.984 963.038 639.547 960.295 634.387C956.573 627.398 944.297 602.645 943.579 601.208C942.273 598.661 925.817 563.261 924.25 559.407L918.373 626.811C918.242 629.097 918.112 631.121 918.112 633.538C918.112 637.13 919.81 638.24 921.964 638.698C924.381 639.285 926.274 639.285 927.123 639.285C927.972 639.285 928.56 639.547 928.56 640.004C928.56 640.984 927.841 641.31 926.405 641.31C921.116 641.31 913.802 640.853 912.692 640.853C911.386 640.853 904.529 641.31 900.677 641.31C899.24 641.31 898.261 641.18 898.261 640.135C898.261 639.547 898.979 639.285 899.697 639.285C900.873 639.285 901.852 639.285 904.007 638.828C908.709 637.979 909.035 632.819 909.754 626.941L920.071 533.935C920.201 532.368 920.789 531.062 921.638 531.062C922.487 531.062 923.075 531.649 923.793 533.217L967.544 623.218L1009.6 533.348C1010.18 532.041 1010.77 531.062 1011.75 531.062C1012.73 531.062 1013.19 532.237 1013.45 534.915L1023.05 622.761L1022.92 622.827Z" fill="white"></path>
    <path d="M1057.53 639.416C1055.5 638.436 1055.37 637.848 1055.37 633.995C1055.37 626.81 1055.96 621.128 1056.09 618.842C1056.22 617.275 1056.55 616.556 1057.26 616.556C1058.11 616.556 1058.24 617.013 1058.24 618.124C1058.24 619.43 1058.24 621.389 1058.7 623.414C1060.86 633.995 1070.26 637.979 1079.86 637.979C1093.57 637.979 1100.3 628.117 1100.3 618.973C1100.3 609.11 1096.12 603.363 1083.84 593.239L1077.38 587.949C1062.23 575.474 1058.77 566.657 1058.77 556.925C1058.77 541.642 1070.19 531.192 1088.35 531.192C1093.9 531.192 1098.08 531.78 1101.67 532.629C1104.41 533.217 1105.52 533.347 1106.7 533.347C1107.87 533.347 1108.13 533.608 1108.13 534.327C1108.13 535.045 1107.55 539.748 1107.55 549.48C1107.55 551.766 1107.28 552.745 1106.57 552.745C1105.72 552.745 1105.59 552.027 1105.39 550.916C1105.26 549.218 1104.41 545.365 1103.56 543.732C1102.71 542.164 1098.86 536.156 1085.67 536.156C1075.81 536.156 1068.1 542.295 1068.1 552.745C1068.1 560.909 1071.83 566.069 1085.54 576.78L1089.52 579.916C1106.44 593.239 1110.42 602.122 1110.42 613.552C1110.42 619.43 1108.13 630.272 1098.27 637.326C1092.13 641.636 1084.43 643.335 1076.66 643.335C1069.93 643.335 1063.34 642.355 1057.46 639.481L1057.53 639.416Z" fill="white"></path>
    <path d="M1157.24 583.769C1161.68 579.458 1181.14 559.015 1189.82 550.002C1198.38 541.12 1198.97 539.683 1198.97 537.985C1198.97 536.809 1198.25 535.699 1197.14 535.241C1196.16 534.784 1195.83 534.523 1195.83 533.935C1195.83 533.347 1196.68 533.086 1197.99 533.086C1202.16 533.086 1201.71 533.543 1206.54 533.543C1210.98 533.543 1219.4 533.086 1221.69 533.086C1223.71 533.086 1224.11 533.543 1224.11 534.066C1224.11 534.588 1223.84 534.915 1222.54 535.045C1219.8 535.307 1217.25 535.895 1215.22 536.744C1211.63 538.181 1208.96 539.879 1200.34 548.173C1187.73 560.322 1171.41 576.519 1167.75 580.634C1176.76 590.496 1202.82 616.948 1209.54 623.284C1221.3 634.322 1226.26 637.457 1233.12 638.763C1234.42 639.024 1235.86 639.22 1237.3 639.22C1238.47 639.22 1239.32 639.481 1239.32 640.2C1239.32 640.918 1238.73 641.179 1237.17 641.179H1226.59C1214.11 641.179 1210.85 639.612 1204.12 634.322C1195.57 627.594 1169.78 599.967 1157.17 584.945V599.706C1157.17 613.421 1157.17 624.72 1157.89 630.729C1158.35 634.909 1159.2 638.044 1163.44 638.567C1165.47 638.828 1168.27 639.155 1169.19 639.155C1170.49 639.155 1170.89 639.743 1170.89 640.134C1170.89 640.853 1170.3 641.114 1168.73 641.114C1160.9 641.114 1151.82 640.657 1151.17 640.657C1150.51 640.657 1142.02 641.114 1137.71 641.114C1136.15 641.114 1135.43 640.983 1135.43 640.134C1135.43 639.677 1135.69 639.155 1137 639.155C1137.84 639.155 1139.41 639.024 1140.72 638.698C1143.59 638.11 1144.44 634.844 1145.03 630.664C1145.75 624.655 1145.75 613.356 1145.75 599.64V574.429C1145.75 552.092 1145.75 548.108 1145.48 543.536C1145.22 538.703 1143.79 536.221 1140.65 535.503C1139.09 535.045 1136.47 534.915 1135.49 534.915C1134.32 534.915 1133.93 534.654 1133.93 534.066C1133.93 533.217 1134.65 532.89 1136.21 532.89C1140.91 532.89 1150.51 533.347 1151.23 533.347C1151.95 533.347 1160.96 532.89 1165.27 532.89C1166.84 532.89 1167.56 533.151 1167.56 533.87C1167.56 534.458 1167.29 534.719 1165.99 534.85C1164.42 534.98 1164.29 534.98 1162.85 535.111C1159 535.568 1157.83 538.376 1157.57 543.406C1157.3 547.977 1157.3 551.962 1157.3 574.299V583.443L1157.24 583.769Z" fill="white"></path>
    <path d="M1273.54 604.212C1273.54 596.505 1272.1 593.37 1270.27 589.19C1269.29 586.904 1250.09 555.423 1245.07 547.977C1241.47 542.687 1237.88 539.095 1235.34 537.397C1233.18 535.96 1230.5 535.111 1229.2 535.111C1228.48 535.111 1227.76 534.849 1227.76 534.131C1227.76 533.543 1228.35 533.151 1229.59 533.151C1232.33 533.151 1243.04 533.608 1243.76 533.608C1244.74 533.608 1250.22 533.151 1255.78 533.151C1257.34 533.151 1257.6 533.608 1257.6 534.131C1257.6 534.653 1256.75 534.849 1255.45 535.437C1254.27 536.025 1253.62 536.874 1253.62 537.984C1253.62 539.683 1254.34 541.446 1255.45 543.536C1257.73 547.716 1279.22 584.618 1281.76 588.733C1284.51 582.724 1302.66 551.374 1305.53 546.671C1307.36 543.667 1307.95 541.25 1307.95 539.356C1307.95 537.331 1307.36 535.764 1305.66 535.372C1304.36 534.915 1303.51 534.653 1303.51 533.935C1303.51 533.347 1304.36 533.086 1305.79 533.086C1309.52 533.086 1314.09 533.543 1315.26 533.543C1316.11 533.543 1326.43 533.086 1329.11 533.086C1330.09 533.086 1330.93 533.347 1330.93 533.935C1330.93 534.653 1330.22 535.111 1329.11 535.111C1327.54 535.111 1324.8 535.698 1322.51 537.135C1319.64 538.833 1318.07 540.597 1314.94 544.45C1310.23 550.198 1290.19 583.769 1287.64 589.974C1285.49 595.133 1285.49 599.575 1285.49 604.277V616.556C1285.49 618.842 1285.49 624.851 1285.94 630.86C1286.2 635.04 1287.51 638.175 1291.82 638.697C1293.84 638.959 1296.98 639.285 1298.29 639.285C1299.13 639.285 1299.46 639.742 1299.46 640.134C1299.46 640.853 1298.74 641.31 1297.18 641.31C1289.34 641.31 1280.33 640.853 1279.61 640.853C1278.89 640.853 1269.88 641.31 1265.57 641.31C1264 641.31 1263.28 641.049 1263.28 640.134C1263.28 639.677 1263.55 639.285 1264.46 639.285C1265.77 639.285 1267.46 639.024 1268.77 638.697C1271.64 638.11 1272.95 634.974 1273.21 630.86C1273.67 624.851 1273.67 618.842 1273.67 616.556V604.277L1273.54 604.212Z" fill="white"></path>
    <path d="M466.827 727.981C466.827 728.895 466.696 729.809 466.5 730.724C466.304 731.638 465.912 732.487 465.521 733.271C465.064 734.055 464.541 734.773 463.888 735.492C463.235 736.145 462.452 736.733 461.603 737.19C462.582 737.451 463.366 737.843 464.019 738.365C464.672 738.888 465.129 739.476 465.455 740.129C465.782 740.782 466.043 741.566 466.174 742.35C466.304 743.133 466.37 743.982 466.37 744.766V750.448C466.37 751.232 466.5 752.016 466.696 752.8C466.892 753.583 467.218 754.237 467.545 754.89H463.17C463.17 754.89 462.843 754.302 462.778 753.91C462.713 753.518 462.582 753.192 462.517 752.734C462.517 752.342 462.452 751.951 462.386 751.559C462.386 751.167 462.386 750.84 462.386 750.579V744.57C462.386 743.852 462.256 743.133 461.994 742.415C461.733 741.696 461.341 741.043 460.819 740.521C460.297 739.933 459.578 739.541 458.664 739.149C457.75 738.823 456.705 738.627 455.465 738.627H444.102V754.759H440.119V717.139H455.53C457.358 717.139 458.991 717.465 460.427 718.118C461.864 718.771 463.039 719.555 464.019 720.6C464.998 721.645 465.717 722.756 466.174 724.062C466.696 725.368 466.892 726.609 466.892 727.915L466.827 727.981ZM444.102 735.23H455.465C456.444 735.23 457.358 735.034 458.272 734.643C459.121 734.251 459.905 733.728 460.623 733.075C461.276 732.422 461.864 731.638 462.256 730.724C462.647 729.809 462.843 728.895 462.843 727.85C462.843 726.805 462.647 725.891 462.321 725.042C461.929 724.192 461.407 723.474 460.754 722.821C460.101 722.168 459.317 721.711 458.403 721.319C457.489 720.992 456.509 720.796 455.465 720.796H444.102V735.1V735.23Z" fill="white"></path>
    <path d="M527.751 717.269V720.927H506.659V733.663H526.51V737.32H506.659V751.297H528.73V754.955H502.676V717.334H527.751V717.269Z" fill="white"></path>
    <path d="M578.489 717.269L592.202 754.889H588.023L583.647 742.937H567.649L563.274 754.889H559.16L572.938 717.269H578.424H578.489ZM575.681 720.992L568.759 739.933H582.537L575.681 720.992Z" fill="white"></path>
    <path d="M630.075 717.269V751.297H649.012V754.955H626.092V717.334H630.075V717.269Z" fill="white"></path>
    <path d="M708.304 717.269V720.927H695.832V754.955H691.848V720.927H679.441V717.269H708.369H708.304Z" fill="white"></path>
    <path d="M773.407 736.014C773.407 738.888 773.016 741.566 772.297 743.982C771.579 746.399 770.469 748.489 769.032 750.252C767.596 752.016 765.833 753.387 763.743 754.367C761.654 755.347 759.237 755.804 756.56 755.804C753.883 755.804 751.467 755.347 749.377 754.367C747.288 753.387 745.525 752.016 744.088 750.252C742.651 748.489 741.541 746.399 740.823 743.982C740.105 741.566 739.713 738.888 739.713 736.014C739.713 733.14 740.105 730.463 740.823 728.046C741.541 725.629 742.651 723.539 744.088 721.776C745.525 720.012 747.288 718.641 749.377 717.726C751.467 716.747 753.883 716.29 756.56 716.29C759.237 716.29 761.654 716.747 763.743 717.726C765.833 718.706 767.596 720.078 769.032 721.776C770.469 723.474 771.579 725.629 772.297 728.046C773.016 730.463 773.407 733.14 773.407 736.014ZM769.359 736.014C769.359 733.467 769.032 731.181 768.379 729.222C767.726 727.197 766.812 725.499 765.637 724.127C764.461 722.756 763.09 721.645 761.523 720.927C759.956 720.208 758.258 719.816 756.495 719.816C754.732 719.816 752.969 720.208 751.402 720.927C749.834 721.645 748.463 722.69 747.353 724.127C746.178 725.499 745.329 727.197 744.61 729.222C743.957 731.246 743.631 733.532 743.631 736.014C743.631 738.496 743.957 740.847 744.61 742.872C745.263 744.897 746.178 746.595 747.353 747.966C748.528 749.338 749.834 750.448 751.402 751.167C752.969 751.885 754.666 752.277 756.495 752.277C758.323 752.277 759.956 751.885 761.523 751.167C763.09 750.448 764.461 749.338 765.637 747.966C766.812 746.595 767.726 744.897 768.379 742.872C769.032 740.847 769.359 738.561 769.359 736.014Z" fill="white"></path>
    <path d="M833.941 727.981C833.941 728.895 833.81 729.809 833.614 730.724C833.419 731.638 833.027 732.487 832.635 733.271C832.178 734.055 831.655 734.773 831.002 735.492C830.349 736.21 829.566 736.733 828.717 737.19C829.696 737.451 830.48 737.843 831.133 738.365C831.721 738.888 832.243 739.476 832.57 740.129C832.896 740.782 833.157 741.566 833.288 742.35C833.418 743.133 833.484 743.982 833.484 744.766V750.448C833.484 751.232 833.614 752.016 833.81 752.8C834.006 753.583 834.333 754.237 834.659 754.89H830.284C830.284 754.89 829.958 754.302 829.892 753.91C829.762 753.518 829.696 753.192 829.631 752.734C829.631 752.342 829.566 751.951 829.501 751.559C829.501 751.167 829.501 750.84 829.501 750.579V744.57C829.501 743.852 829.37 743.133 829.109 742.415C828.848 741.696 828.456 741.043 827.933 740.521C827.411 739.933 826.693 739.541 825.778 739.149C824.864 738.823 823.819 738.627 822.579 738.627H811.217V754.759H807.233V717.139H822.644C824.472 717.139 826.105 717.465 827.542 718.118C828.978 718.771 830.154 719.555 831.133 720.6C832.112 721.645 832.831 722.756 833.288 724.062C833.81 725.368 834.006 726.609 834.006 727.915L833.941 727.981ZM811.217 735.23H822.579C823.558 735.23 824.472 735.034 825.387 734.643C826.236 734.251 827.019 733.728 827.737 733.075C828.39 732.422 828.978 731.638 829.37 730.724C829.762 729.809 829.958 728.895 829.958 727.85C829.958 726.805 829.762 725.891 829.435 725.042C829.043 724.192 828.521 723.474 827.868 722.821C827.215 722.168 826.431 721.711 825.517 721.319C824.603 720.927 823.624 720.796 822.579 720.796H811.217V735.1V735.23Z" fill="white"></path>
    <path d="M871.357 743.133C871.422 744.505 871.748 745.746 872.271 746.856C872.793 747.966 873.511 748.946 874.36 749.795C875.209 750.644 876.254 751.297 877.429 751.755C878.605 752.212 879.911 752.473 881.282 752.473C882.523 752.473 883.764 752.342 884.874 752.081C886.049 751.82 887.029 751.363 887.943 750.775C888.857 750.187 889.51 749.403 890.032 748.424C890.555 747.444 890.816 746.268 890.816 744.897C890.816 743.786 890.555 742.807 889.967 742.023C889.379 741.239 888.661 740.586 887.747 739.998C886.833 739.41 885.788 738.953 884.612 738.496C883.437 738.039 882.262 737.712 881.021 737.32C880.041 737.059 878.997 736.733 878.017 736.406C877.038 736.079 875.993 735.688 875.079 735.23C874.164 734.773 873.25 734.316 872.401 733.728C871.553 733.14 870.9 732.487 870.247 731.769C869.659 730.985 869.136 730.136 868.81 729.222C868.483 728.242 868.288 727.132 868.288 725.891C868.288 724.323 868.614 722.952 869.202 721.776C869.789 720.6 870.704 719.555 871.748 718.771C872.859 717.988 874.165 717.335 875.732 716.943C877.299 716.551 878.931 716.29 880.76 716.29C882.392 716.29 883.829 716.42 885.135 716.747C886.376 717.073 887.486 717.531 888.4 718.053C889.314 718.641 890.098 719.294 890.751 720.012C891.404 720.731 891.926 721.515 892.318 722.364C892.71 723.213 893.036 724.062 893.232 724.911C893.428 725.825 893.559 726.609 893.624 727.458H889.51C889.379 726.217 889.118 725.107 888.596 724.127C888.073 723.147 887.486 722.364 886.702 721.711C885.918 721.057 885.004 720.6 883.959 720.274C882.915 719.947 881.87 719.816 880.694 719.816C879.65 719.816 878.605 719.947 877.56 720.143C876.515 720.339 875.666 720.731 874.818 721.188C874.034 721.645 873.381 722.298 872.859 723.082C872.336 723.866 872.14 724.78 872.14 725.891C872.14 727.001 872.401 728.046 872.989 728.83C873.577 729.613 874.295 730.332 875.209 730.92C876.124 731.508 877.234 731.965 878.409 732.422C879.584 732.879 880.825 733.271 882.131 733.663C883.111 733.989 884.155 734.316 885.135 734.643C886.18 734.969 887.159 735.361 888.073 735.818C888.988 736.275 889.902 736.733 890.685 737.32C891.469 737.843 892.187 738.496 892.775 739.214C893.363 739.933 893.82 740.782 894.146 741.696C894.473 742.611 894.669 743.721 894.669 744.962C894.669 746.791 894.342 748.424 893.624 749.795C892.971 751.167 891.991 752.342 890.816 753.322C889.641 754.236 888.204 754.955 886.506 755.412C884.874 755.869 883.045 756.131 881.086 756.131C879.323 756.131 877.625 755.804 875.928 755.216C874.23 754.628 872.793 753.779 871.487 752.669C870.181 751.559 869.136 750.187 868.353 748.62C867.569 747.052 867.112 745.223 867.047 743.264H871.161L871.357 743.133Z" fill="white"></path>
    <path d="M821.86 259.163C821.86 259.163 889.184 394.296 947.757 451.118C1006.33 507.941 1078.81 492.396 1078.81 492.396C1077.25 492.657 1073.72 490.698 1072.15 490.11C1031.67 475.48 1001.76 443.085 976.489 409.383C913.606 325.586 874.557 226.963 818.66 138.725C796.328 103.456 771.841 69.3626 742.195 39.9717C729.853 27.7582 716.532 16.263 700.991 8.62139C688.257 2.35133 675.458 -0.522454 661.68 -0.0652619H416.611V0.130678C405.51 0.718496 394.932 3.52696 384.353 8.75202C368.812 16.3937 355.426 27.8888 343.149 40.1023C313.503 69.4933 289.016 103.587 266.684 138.856C210.787 227.094 171.738 325.717 108.855 409.514C83.5837 443.15 53.6765 475.545 13.1908 490.241C11.6236 490.829 8.16276 492.788 6.53027 492.527C6.53027 492.527 79.0127 508.071 137.586 451.249C196.16 394.426 263.484 259.293 263.484 259.293C263.484 259.293 380.174 24.1659 450.893 12.5402C454.746 13.1933 458.729 14.4996 462.843 16.3283C452.591 23.1862 443.319 31.481 434.569 40.1677C404.923 69.5586 380.435 103.652 358.103 138.921C302.206 227.159 263.157 325.782 200.274 409.579C175.003 443.215 145.096 475.611 104.61 490.306C103.043 490.894 99.5821 492.853 97.9496 492.592C97.9496 492.592 170.432 508.137 229.006 451.314C287.579 394.492 354.903 259.359 354.903 259.359C354.903 259.359 430.324 107.44 496.603 41.8005C501.305 46.4377 506.006 51.5321 510.773 56.9531C488.049 82.2293 468.394 110.249 450.175 138.986C394.279 227.225 355.23 325.847 292.346 409.644C267.075 443.281 237.168 475.676 196.682 490.371C195.115 490.959 191.654 492.919 190.022 492.657C190.022 492.657 262.504 508.202 321.078 451.379C379.652 394.557 446.975 259.424 446.975 259.424C446.975 259.424 491.771 169.226 542.639 97.7739C593.508 169.226 638.303 259.424 638.303 259.424C638.303 259.424 705.627 394.557 764.201 451.379C822.774 508.202 895.257 492.657 895.257 492.657C893.689 492.919 890.163 490.959 888.596 490.371C848.11 475.741 818.203 443.346 792.932 409.644C730.049 325.847 691 227.225 635.103 138.986C616.885 110.249 597.23 82.2293 574.505 56.9531C579.272 51.5321 583.974 46.4377 588.675 41.8005C654.954 107.44 730.375 259.359 730.375 259.359C730.375 259.359 797.699 394.492 856.273 451.314C914.846 508.137 987.329 492.592 987.329 492.592C985.762 492.853 982.236 490.894 980.668 490.306C940.183 475.676 910.276 443.281 885.005 409.579C822.121 325.782 783.072 227.159 727.176 138.921C704.843 103.652 680.356 69.5586 650.71 40.1677C641.96 31.481 632.622 23.1862 622.435 16.3283C626.549 14.4343 630.532 13.128 634.385 12.5402C705.104 24.1659 821.795 259.293 821.795 259.293L821.86 259.163ZM542.705 25.4069C538.721 22.1412 534.673 19.0062 530.363 16.1977C534.607 14.2383 538.721 12.9321 542.705 12.3442C546.688 12.9321 550.802 14.3036 555.046 16.1977C550.802 19.0715 546.688 22.1412 542.705 25.4069Z" fill="white"></path>
    <path d="M1113.23 302.204C1113.23 302.204 1169.06 414.282 1217.64 461.372C1266.22 508.529 1326.36 495.597 1326.36 495.597C1325.06 495.793 1322.12 494.16 1320.88 493.702C1287.32 481.554 1262.5 454.711 1241.54 426.756C1189.37 357.263 1156.98 275.426 1110.68 202.275C1092.13 173.015 1071.83 144.734 1047.27 120.372C1037.09 110.249 1025.99 100.713 1013.06 94.3778C1002.48 89.1527 991.835 86.8014 980.473 87.1933H777.195V87.3239C767.988 87.7811 759.173 90.1324 750.488 94.4431C737.558 100.778 726.523 110.314 716.271 120.438C691.718 144.8 671.345 173.08 652.865 202.34C606.502 275.491 574.114 357.329 522.005 426.822C501.044 454.776 476.23 481.62 442.666 493.768C441.36 494.225 438.487 495.858 437.181 495.662C437.181 495.662 497.322 508.594 545.904 461.438C594.487 414.282 650.318 302.27 650.318 302.27C650.318 302.27 747.092 107.244 805.731 97.5781C808.931 98.1006 812.261 99.1456 815.657 100.713C807.168 106.395 799.462 113.253 792.214 120.503C767.662 144.865 747.288 173.145 728.808 202.406C682.446 275.556 650.057 357.394 597.948 426.887C576.987 454.841 552.173 481.685 518.609 493.833C517.303 494.29 514.43 495.923 513.124 495.727C513.124 495.727 573.265 508.659 621.848 461.503C670.431 414.347 726.262 302.335 726.262 302.335C726.262 302.335 788.819 176.346 843.801 121.875C847.719 125.728 851.637 129.973 855.555 134.48C836.748 155.446 820.424 178.697 805.274 202.536C758.911 275.687 726.523 357.525 674.414 427.018C653.453 454.972 628.639 481.815 595.075 493.964C593.769 494.421 590.896 496.054 589.59 495.858C589.59 495.858 649.731 508.79 698.313 461.634C746.896 414.478 802.727 302.466 802.727 302.466C802.727 302.466 839.883 227.682 882.066 168.443C924.25 227.682 961.405 302.466 961.405 302.466C961.405 302.466 1017.24 414.543 1065.82 461.634C1114.4 508.79 1174.54 495.858 1174.54 495.858C1173.24 496.054 1170.3 494.421 1169.06 493.964C1135.49 481.815 1110.68 454.972 1089.72 427.018C1037.54 357.525 1005.16 275.687 958.859 202.536C943.774 178.697 927.449 155.446 908.578 134.48C912.496 129.973 916.479 125.728 920.332 121.875C975.314 176.346 1037.87 302.335 1037.87 302.335C1037.87 302.335 1093.7 414.412 1142.28 461.503C1190.87 508.659 1251.01 495.727 1251.01 495.727C1249.7 495.923 1246.76 494.29 1245.52 493.833C1211.96 481.685 1187.15 454.841 1166.18 426.887C1114.01 357.394 1081.62 275.556 1035.32 202.406C1016.78 173.145 996.471 144.865 971.918 120.503C964.67 113.319 956.965 106.395 948.476 100.713C951.871 99.1456 955.202 98.1006 958.401 97.5781C1017.04 107.244 1113.81 302.27 1113.81 302.27L1113.23 302.204ZM881.675 108.355C878.41 105.612 875.014 103.064 871.488 100.713C875.014 99.0803 878.41 97.97 881.675 97.5128C884.939 98.0353 888.4 99.1456 891.861 100.713C888.335 103.064 884.939 105.612 881.675 108.355Z" fill="url(#paint0_linear_760_10)"></path>
  </g>
  <defs>
    <linearGradient id="paint0_linear_760_10" x1="437.05" y1="292.277" x2="1326.36" y2="292.277" gradientUnits="userSpaceOnUse">
      <stop stop-color="#B19C73"></stop>
      <stop offset="1" stop-color="#ECDAA0"></stop>
    </linearGradient>
    <clipPath id="clip0_760_10">
      <rect width="1331" height="756" fill="white"></rect>
    </clipPath>
  </defs>
</svg>
