<svg width="265" height="150" viewBox="0 0 265 150" fill="none" xmlns="http://www.w3.org/2000/svg">
<g clip-path="url(#clip0_1727_808)">
<path d="M10.4219 119.01C10.4219 121.735 10.4219 123.978 10.5642 125.172C10.6501 125.996 10.8194 126.62 11.6757 126.732C12.0732 126.788 12.7014 126.845 12.9566 126.845C13.1283 126.845 13.1848 126.93 13.1848 127.016C13.1848 127.158 13.0424 127.243 12.7284 127.243C11.1629 127.243 9.36679 127.158 9.22447 127.158C9.08216 127.158 7.2885 127.243 6.43216 127.243C6.11809 127.243 5.97577 127.187 5.97577 127.016C5.97577 126.93 6.03221 126.845 6.20397 126.845C6.45915 126.845 6.80267 126.788 7.05785 126.732C7.62711 126.62 7.76943 125.993 7.88475 125.172C8.02707 123.978 8.02707 121.738 8.02707 119.01V107.001C6.63091 107.03 5.20776 107.03 3.8116 107.057C2.04494 107.087 1.36281 107.285 0.906418 107.965C0.592344 108.447 0.506464 108.647 0.423038 108.845C0.337159 109.073 0.251279 109.129 0.138409 109.129C0.0525289 109.129 -0.00390625 109.043 -0.00390625 108.872C-0.00390625 108.588 0.565353 106.147 0.621788 105.92C0.678223 105.749 0.793548 105.379 0.906418 105.379C1.10517 105.379 1.3898 105.663 2.16026 105.719C2.98716 105.805 4.06924 105.861 4.41031 105.861H15.0937C16.0041 105.861 16.6592 105.805 17.1156 105.719C17.5425 105.663 17.8002 105.578 17.913 105.578C18.0554 105.578 18.0554 105.749 18.0554 105.917C18.0554 106.769 17.9695 108.728 17.9695 109.041C17.9695 109.298 17.8836 109.41 17.7707 109.41C17.6284 109.41 17.572 109.325 17.5425 108.928C17.5425 108.816 17.5131 108.73 17.5131 108.615C17.4272 107.764 16.7451 107.111 14.0092 107.055C12.8142 107.025 11.6168 107.025 10.4219 106.999V119.008V119.01Z" fill="black"/>
<path d="M25.5439 117.988C25.5439 122.075 26.4542 123.836 27.681 125C29.0772 126.307 30.358 126.561 31.9824 126.561C33.7196 126.561 35.4274 125.737 36.453 124.516C37.7633 122.897 38.1044 120.485 38.1044 117.56V114.011C38.1044 109.581 38.1044 108.787 38.0479 107.879C37.9915 106.913 37.7633 106.46 36.8235 106.26C36.5954 106.204 36.112 106.174 35.8543 106.174C35.7415 106.174 35.6261 106.118 35.6261 106.003C35.6261 105.832 35.7685 105.776 36.0825 105.776C37.3634 105.776 38.9313 105.861 39.1006 105.861C39.2993 105.861 40.6391 105.776 41.4929 105.776C41.807 105.776 41.9493 105.832 41.9493 106.003C41.9493 106.116 41.8365 106.174 41.7211 106.174C41.5224 106.174 41.3506 106.204 41.0096 106.26C40.2416 106.431 40.0134 106.884 39.9569 107.879C39.9005 108.787 39.9005 109.581 39.9005 114.011V117.049C39.9005 120.116 39.5594 123.521 37.2799 125.536C35.2286 127.353 33.0939 127.637 31.4131 127.637C30.4439 127.637 27.5682 127.525 25.5463 125.622C24.1502 124.289 23.0681 122.3 23.0681 118.154V114.009C23.0681 109.579 23.0681 108.784 23.0117 107.877C22.9552 106.911 22.727 106.458 21.7873 106.257C21.5591 106.201 21.0757 106.172 20.818 106.172C20.7052 106.172 20.5898 106.116 20.5898 106.001C20.5898 105.829 20.7322 105.773 21.0462 105.773C22.3271 105.773 24.0643 105.859 24.3219 105.859C24.5796 105.859 26.2873 105.773 27.1412 105.773C27.4553 105.773 27.5976 105.829 27.5976 106.001C27.5976 106.113 27.4848 106.172 27.3694 106.172C27.1707 106.172 26.9989 106.201 26.6579 106.257C25.8898 106.37 25.6617 106.881 25.6052 107.877C25.5488 108.784 25.5488 109.579 25.5488 114.009V117.983L25.5439 117.988Z" fill="black"/>
<path d="M50.7481 119.069C50.7481 123.242 50.8609 125.059 51.3738 125.57C51.8301 126.025 52.5712 126.223 54.7918 126.223C56.3008 126.223 57.5546 126.194 58.2368 125.372C58.6073 124.917 58.8919 124.208 58.9778 123.67C59.0072 123.442 59.0637 123.301 59.233 123.301C59.3753 123.301 59.4047 123.413 59.4047 123.726C59.4047 124.039 59.206 125.742 58.9778 126.566C58.779 127.219 58.6931 127.331 57.1841 127.331C54.7353 127.331 52.3135 127.16 49.5506 127.16C48.6673 127.16 47.8134 127.246 46.7583 127.246C46.4443 127.246 46.3019 127.19 46.3019 127.018C46.3019 126.933 46.3584 126.847 46.5301 126.847C46.7878 126.847 47.1288 126.791 47.384 126.735C47.9533 126.622 48.0956 125.996 48.2109 125.174C48.3532 123.98 48.3532 121.74 48.3532 119.013V114.016C48.3532 109.586 48.3532 108.791 48.2968 107.884C48.2404 106.918 48.0122 106.465 47.0724 106.265C46.8442 106.209 46.3608 106.179 46.1032 106.179C45.9903 106.179 45.875 106.123 45.875 106.008C45.875 105.837 46.0173 105.781 46.3314 105.781C47.6122 105.781 49.4083 105.866 49.5506 105.866C49.693 105.866 51.7713 105.781 52.6276 105.781C52.9417 105.781 53.084 105.837 53.084 106.008C53.084 106.12 52.9711 106.179 52.8558 106.179C52.657 106.179 52.2571 106.209 51.916 106.265C51.0891 106.407 50.8634 106.889 50.8045 107.884C50.7481 108.791 50.7481 109.586 50.7481 114.016V119.069Z" fill="black"/>
<path d="M65.872 117.988C65.872 122.075 66.7823 123.836 68.0092 125C69.4053 126.307 70.6862 126.561 72.3105 126.561C74.0477 126.561 75.7555 125.737 76.7812 124.516C78.0914 122.897 78.4325 120.485 78.4325 117.56V114.011C78.4325 109.581 78.4325 108.787 78.3761 107.879C78.3196 106.913 78.0914 106.46 77.1517 106.26C76.9235 106.204 76.4401 106.174 76.1825 106.174C76.0696 106.174 75.9543 106.118 75.9543 106.003C75.9543 105.832 76.0966 105.776 76.4107 105.776C77.6915 105.776 79.2594 105.861 79.4287 105.861C79.6275 105.861 80.9672 105.776 81.8211 105.776C82.1351 105.776 82.2775 105.832 82.2775 106.003C82.2775 106.116 82.1646 106.174 82.0493 106.174C81.8505 106.174 81.6788 106.204 81.3377 106.26C80.5697 106.431 80.3415 106.884 80.2851 107.879C80.2286 108.787 80.2286 109.581 80.2286 114.011V117.049C80.2286 120.116 79.8876 123.521 77.6081 125.536C75.5568 127.353 73.422 127.637 71.7413 127.637C70.772 127.637 67.8963 127.525 65.8744 125.622C64.4783 124.289 63.3962 122.3 63.3962 118.154V114.009C63.3962 109.579 63.3962 108.784 63.3398 107.877C63.2833 106.911 63.0551 106.458 62.1154 106.257C61.8872 106.201 61.4038 106.172 61.1462 106.172C61.0333 106.172 60.918 106.116 60.918 106.001C60.918 105.829 61.0603 105.773 61.3744 105.773C62.6552 105.773 64.3924 105.859 64.6501 105.859C64.9077 105.859 66.6155 105.773 67.4694 105.773C67.7834 105.773 67.9257 105.829 67.9257 106.001C67.9257 106.113 67.8129 106.172 67.6975 106.172C67.4988 106.172 67.327 106.201 66.986 106.257C66.218 106.37 65.9898 106.881 65.9333 107.877C65.8769 108.784 65.8769 109.579 65.8769 114.009V117.983L65.872 117.988Z" fill="black"/>
<path d="M109.502 123.582C109.615 124.604 109.816 126.194 111.04 126.59C111.867 126.847 112.522 126.847 112.807 126.847C112.949 126.847 113.121 126.876 113.121 127.018C113.121 127.19 113.035 127.246 112.694 127.246C112.068 127.246 108.82 127.16 107.767 127.075C107.112 127.018 106.97 126.933 106.97 126.791C106.97 126.678 107.026 126.649 107.168 126.593C107.367 126.507 107.34 126.082 107.281 125.57L105.915 110.751L98.8504 125.683C98.2517 126.933 98.1658 127.187 97.9106 127.187C97.7119 127.187 97.5695 126.903 97.0273 125.881C96.2863 124.489 93.8375 119.578 93.6951 119.294C93.44 118.783 90.1643 111.771 89.8502 111.005L88.6822 124.377C88.6528 124.832 88.6258 125.228 88.6258 125.712C88.6258 126.421 88.9669 126.649 89.3938 126.735C89.8772 126.847 90.2477 126.847 90.4195 126.847C90.5912 126.847 90.7041 126.903 90.7041 126.989C90.7041 127.187 90.5618 127.243 90.2771 127.243C89.2245 127.243 87.7719 127.158 87.5437 127.158C87.2885 127.158 85.9194 127.243 85.1513 127.243C84.8667 127.243 84.668 127.214 84.668 127.016C84.668 126.903 84.8103 126.845 84.9526 126.845C85.1808 126.845 85.3795 126.845 85.8065 126.759C86.7463 126.588 86.8027 125.565 86.945 124.404L88.9963 105.949C89.0257 105.636 89.1386 105.382 89.3104 105.382C89.4821 105.382 89.595 105.494 89.7373 105.807L98.4529 123.665L106.827 105.837C106.94 105.582 107.056 105.382 107.254 105.382C107.453 105.382 107.539 105.609 107.595 106.147L109.504 123.579L109.502 123.582Z" fill="black"/>
<path d="M118.214 114.013C118.214 109.584 118.214 108.789 118.158 107.881C118.101 106.915 117.873 106.463 116.933 106.262C116.761 106.233 116.477 106.233 116.222 106.206C115.964 106.177 115.738 106.15 115.738 106.008C115.738 105.837 115.881 105.78 116.195 105.78C117.306 105.78 118.388 105.866 119.414 105.866C119.983 105.866 125.764 105.866 126.419 105.837C127.074 105.807 127.587 105.807 127.815 105.665C127.901 105.609 128.014 105.553 128.073 105.553C128.186 105.553 128.245 105.665 128.245 105.81C128.245 105.954 128.132 106.35 128.073 106.69C127.96 107.515 127.96 107.967 127.901 108.762C127.901 109.102 127.759 109.329 127.646 109.329C127.504 109.329 127.474 109.217 127.447 108.96C127.418 108.564 127.305 107.881 126.905 107.542C126.564 107.258 126.051 107.03 125.224 107.001C123.772 106.972 122.319 106.945 120.867 106.915C120.695 106.915 120.611 107.001 120.611 107.228V115.065C120.611 115.236 120.641 115.322 120.81 115.322C121.978 115.322 123.602 115.322 124.768 115.293C126.277 115.263 126.647 115.236 127.047 114.752C127.19 114.581 127.246 114.468 127.361 114.468C127.477 114.468 127.504 114.554 127.504 114.696C127.504 114.867 127.361 115.349 127.276 116.286C127.19 117.137 127.19 117.819 127.163 118.245C127.133 118.558 127.106 118.727 126.964 118.727C126.792 118.727 126.765 118.529 126.736 118.245C126.679 117.621 126.593 116.626 125.111 116.427C124.4 116.342 121.296 116.342 120.81 116.342C120.668 116.342 120.611 116.398 120.611 116.599V119.013C120.611 121.427 120.611 123.442 120.697 124.748C120.783 126.025 121.097 126.651 121.865 126.735C122.236 126.791 122.719 126.82 123.033 126.847C123.288 126.876 123.374 126.933 123.374 127.045C123.374 127.187 123.232 127.243 122.918 127.243C121.323 127.243 119.556 127.158 119.414 127.158H119.159C118.589 127.187 117.309 127.243 116.624 127.243C116.31 127.243 116.168 127.187 116.168 127.016C116.168 126.93 116.224 126.874 116.482 126.845C116.766 126.815 117.024 126.788 117.223 126.732C117.821 126.561 118.02 126.135 118.106 124.888C118.192 123.667 118.219 121.679 118.219 119.01V114.013H118.214Z" fill="black"/>
<path d="M134.791 114.013C134.791 109.584 134.791 108.789 134.734 107.882C134.678 106.915 134.45 106.463 133.51 106.262C133.282 106.206 132.798 106.177 132.541 106.177C132.428 106.177 132.312 106.121 132.312 106.006C132.312 105.834 132.455 105.778 132.769 105.778C134.05 105.778 135.846 105.864 135.988 105.864C136.302 105.864 138.466 105.778 139.35 105.778C141.143 105.778 143.052 105.949 144.561 107.028C145.273 107.539 146.527 108.931 146.527 110.89C146.527 112.991 145.643 115.092 143.082 117.447C145.418 120.429 147.354 122.956 149.005 124.714C150.544 126.333 151.768 126.644 152.479 126.759C153.022 126.845 153.419 126.845 153.591 126.845C153.733 126.845 153.849 126.93 153.849 127.016C153.849 127.187 153.677 127.243 153.164 127.243H151.142C149.547 127.243 148.836 127.101 148.095 126.703C146.87 126.05 145.874 124.658 144.25 122.53C143.052 120.97 141.715 119.067 141.146 118.328C141.033 118.216 140.947 118.157 140.775 118.157L137.271 118.101C137.129 118.101 137.073 118.186 137.073 118.328V119.01C137.073 121.735 137.073 123.978 137.215 125.172C137.301 125.996 137.473 126.62 138.327 126.732C138.726 126.788 139.352 126.845 139.607 126.845C139.779 126.845 139.836 126.93 139.836 127.016C139.836 127.158 139.693 127.243 139.379 127.243C137.814 127.243 136.018 127.158 135.875 127.158C135.846 127.158 134.052 127.243 133.198 127.243C132.884 127.243 132.742 127.187 132.742 127.016C132.742 126.93 132.798 126.845 132.97 126.845C133.228 126.845 133.569 126.788 133.824 126.732C134.393 126.62 134.536 125.993 134.651 125.172C134.793 123.978 134.793 121.738 134.793 119.01V114.013H134.791ZM137.07 116.484C137.07 116.626 137.127 116.738 137.269 116.824C137.696 117.078 139.006 117.279 140.26 117.279C140.945 117.279 141.742 117.193 142.397 116.738C143.393 116.056 144.134 114.525 144.134 112.367C144.134 108.818 142.255 106.69 139.207 106.69C138.354 106.69 137.583 106.776 137.298 106.862C137.156 106.918 137.07 107.033 137.07 107.202V116.486V116.484Z" fill="black"/>
<path d="M153.16 116.484C153.16 111.885 156.522 105.384 164.381 105.384C170.79 105.384 175.575 109.415 175.575 116.031C175.575 122.647 171.075 127.642 164.212 127.642C156.409 127.642 153.16 121.596 153.16 116.484ZM172.841 116.824C172.841 110.009 168.682 106.348 164.182 106.348C159.427 106.348 155.867 109.471 155.867 115.689C155.867 122.303 159.854 126.563 164.98 126.563C167.544 126.563 172.841 125.086 172.841 116.826V116.824Z" fill="black"/>
<path d="M203.654 123.582C203.767 124.604 203.968 126.194 205.193 126.59C206.02 126.847 206.675 126.847 206.959 126.847C207.102 126.847 207.273 126.876 207.273 127.018C207.273 127.19 207.188 127.246 206.847 127.246C206.221 127.246 202.972 127.16 201.919 127.075C201.264 127.018 201.122 126.933 201.122 126.791C201.122 126.678 201.178 126.649 201.321 126.593C201.52 126.507 201.493 126.082 201.434 125.57L200.067 110.751L193.003 125.683C192.404 126.933 192.318 127.187 192.063 127.187C191.864 127.187 191.722 126.903 191.18 125.881C190.439 124.489 187.99 119.578 187.847 119.294C187.59 118.783 184.317 111.771 184.003 111.005L182.835 124.377C182.805 124.832 182.778 125.228 182.778 125.712C182.778 126.421 183.119 126.649 183.546 126.735C184.03 126.847 184.4 126.847 184.572 126.847C184.744 126.847 184.856 126.903 184.856 126.989C184.856 127.187 184.714 127.243 184.429 127.243C183.377 127.243 181.924 127.158 181.696 127.158C181.438 127.158 180.072 127.243 179.304 127.243C179.019 127.243 178.82 127.214 178.82 127.016C178.82 126.903 178.963 126.845 179.105 126.845C179.333 126.845 179.532 126.845 179.959 126.759C180.899 126.588 180.955 125.565 181.097 124.404L183.149 105.949C183.178 105.636 183.291 105.382 183.463 105.382C183.634 105.382 183.747 105.494 183.89 105.807L192.605 123.665L200.98 105.837C201.093 105.582 201.208 105.382 201.407 105.382C201.605 105.382 201.691 105.609 201.748 106.147L203.657 123.579L203.654 123.582Z" fill="black"/>
<path d="M210.544 126.874C210.144 126.676 210.117 126.561 210.117 125.795C210.117 124.377 210.23 123.239 210.259 122.787C210.289 122.474 210.345 122.332 210.488 122.332C210.659 122.332 210.686 122.418 210.686 122.645C210.686 122.902 210.686 123.298 210.772 123.694C211.199 125.795 213.079 126.59 214.988 126.59C217.721 126.59 219.061 124.631 219.061 122.814C219.061 120.855 218.234 119.72 215.785 117.704L214.504 116.655C211.486 114.185 210.802 112.426 210.802 110.494C210.802 107.456 213.081 105.384 216.698 105.384C217.81 105.384 218.634 105.497 219.348 105.668C219.89 105.781 220.116 105.81 220.344 105.81C220.572 105.81 220.629 105.866 220.629 106.008C220.629 106.15 220.516 107.087 220.516 109.016C220.516 109.471 220.46 109.67 220.317 109.67C220.145 109.67 220.118 109.528 220.089 109.3C220.06 108.96 219.89 108.192 219.719 107.882C219.547 107.568 218.779 106.377 216.158 106.377C214.193 106.377 212.654 107.598 212.654 109.672C212.654 111.291 213.395 112.311 216.129 114.441L216.926 115.065C220.288 117.704 221.085 119.465 221.085 121.738C221.085 122.902 220.629 125.059 218.663 126.451C217.439 127.302 215.901 127.642 214.362 127.642C213.025 127.642 211.715 127.444 210.547 126.876L210.544 126.874Z" fill="black"/>
<path d="M230.397 115.831C231.281 114.98 235.153 110.919 236.89 109.131C238.598 107.37 238.713 107.087 238.713 106.747C238.713 106.519 238.571 106.292 238.342 106.206C238.144 106.121 238.087 106.064 238.087 105.949C238.087 105.834 238.259 105.778 238.514 105.778C239.341 105.778 239.255 105.864 240.222 105.864C241.105 105.864 242.786 105.778 243.24 105.778C243.638 105.778 243.723 105.864 243.723 105.976C243.723 106.089 243.667 106.147 243.409 106.174C242.867 106.231 242.357 106.346 241.957 106.514C241.245 106.798 240.703 107.138 238.995 108.787C236.49 111.201 233.241 114.407 232.503 115.232C234.296 117.191 239.481 122.442 240.818 123.692C243.154 125.879 244.15 126.502 245.517 126.759C245.775 126.815 246.059 126.845 246.344 126.845C246.572 126.845 246.741 126.901 246.741 127.043C246.741 127.185 246.629 127.241 246.314 127.241H244.207C241.729 127.241 241.073 126.928 239.736 125.879C238.028 124.543 232.9 119.064 230.395 116.085V119.008C230.395 121.733 230.395 123.976 230.537 125.169C230.623 125.993 230.795 126.617 231.649 126.73C232.046 126.786 232.618 126.842 232.787 126.842C233.045 126.842 233.128 126.955 233.128 127.04C233.128 127.182 233.015 127.238 232.701 127.238C231.136 127.238 229.34 127.153 229.197 127.153C229.055 127.153 227.374 127.238 226.52 127.238C226.206 127.238 226.064 127.209 226.064 127.04C226.064 126.955 226.121 126.842 226.378 126.842C226.55 126.842 226.862 126.813 227.119 126.757C227.688 126.644 227.86 125.991 227.973 125.167C228.115 123.973 228.115 121.733 228.115 119.006V114.009C228.115 109.579 228.115 108.784 228.059 107.877C228.003 106.911 227.718 106.429 227.09 106.287C226.776 106.201 226.263 106.174 226.064 106.174C225.836 106.174 225.75 106.118 225.75 106.003C225.75 105.832 225.892 105.776 226.206 105.776C227.146 105.776 229.055 105.861 229.197 105.861C229.34 105.861 231.133 105.776 231.99 105.776C232.304 105.776 232.446 105.832 232.446 105.974C232.446 106.086 232.39 106.145 232.132 106.172C231.818 106.201 231.791 106.201 231.506 106.228C230.738 106.314 230.51 106.881 230.454 107.874C230.397 108.782 230.397 109.577 230.397 114.006V115.823V115.831Z" fill="black"/>
<path d="M253.551 119.891C253.551 118.357 253.266 117.734 252.895 116.909C252.697 116.454 248.879 110.21 247.882 108.733C247.171 107.683 246.459 106.972 245.947 106.632C245.52 106.348 244.977 106.177 244.722 106.177C244.58 106.177 244.438 106.12 244.438 105.979C244.438 105.866 244.55 105.781 244.808 105.781C245.35 105.781 247.485 105.866 247.627 105.866C247.826 105.866 248.908 105.781 250.02 105.781C250.334 105.781 250.39 105.866 250.39 105.979C250.39 106.091 250.218 106.12 249.963 106.235C249.735 106.348 249.593 106.519 249.593 106.747C249.593 107.087 249.735 107.429 249.963 107.855C250.42 108.679 254.692 116.002 255.204 116.826C255.747 115.633 259.363 109.415 259.933 108.478C260.303 107.882 260.416 107.4 260.416 107.03C260.416 106.634 260.303 106.321 259.96 106.235C259.704 106.15 259.533 106.094 259.533 105.952C259.533 105.839 259.704 105.781 259.989 105.781C260.73 105.781 261.64 105.866 261.869 105.866C262.04 105.866 264.089 105.781 264.631 105.781C264.83 105.781 265.002 105.837 265.002 105.952C265.002 106.094 264.86 106.179 264.631 106.179C264.317 106.179 263.778 106.292 263.321 106.578C262.752 106.918 262.438 107.26 261.812 108.026C260.872 109.161 256.885 115.833 256.372 117.054C255.945 118.076 255.945 118.957 255.945 119.893V122.334C255.945 122.789 255.945 123.98 256.031 125.174C256.088 125.998 256.345 126.622 257.199 126.735C257.599 126.791 258.225 126.847 258.48 126.847C258.652 126.847 258.708 126.933 258.708 127.018C258.708 127.16 258.566 127.246 258.252 127.246C256.686 127.246 254.89 127.16 254.748 127.16C254.606 127.16 252.812 127.246 251.956 127.246C251.642 127.246 251.499 127.19 251.499 127.018C251.499 126.933 251.556 126.847 251.727 126.847C251.985 126.847 252.326 126.791 252.581 126.735C253.151 126.622 253.408 125.996 253.465 125.174C253.551 123.98 253.551 122.789 253.551 122.334V119.893V119.891Z" fill="black"/>
<path d="M92.9442 144.44C92.9442 144.626 92.9221 144.807 92.8779 144.986C92.8338 145.164 92.7675 145.333 92.6792 145.492C92.5908 145.651 92.4804 145.798 92.3479 145.928C92.2154 146.06 92.0633 146.175 91.8915 146.27C92.0854 146.319 92.2424 146.395 92.3676 146.497C92.4902 146.6 92.5884 146.718 92.6571 146.852C92.7258 146.987 92.7749 147.131 92.8019 147.287C92.8289 147.444 92.8411 147.605 92.8411 147.769V148.899C92.8411 149.061 92.8632 149.217 92.9074 149.369C92.9515 149.521 93.008 149.66 93.0767 149.785H92.213C92.1762 149.728 92.1492 149.662 92.1296 149.589C92.1099 149.516 92.0952 149.44 92.0829 149.362C92.0731 149.283 92.0658 149.208 92.0608 149.134C92.0584 149.061 92.0559 148.997 92.0559 148.943V147.755C92.0559 147.613 92.0314 147.471 91.9823 147.329C91.9333 147.187 91.8547 147.062 91.7468 146.952C91.6364 146.842 91.494 146.752 91.3198 146.686C91.1432 146.617 90.9321 146.583 90.6794 146.583H88.4122V149.785H87.6172V142.315H90.6794C91.045 142.315 91.3689 142.379 91.6486 142.506C91.9308 142.633 92.1664 142.797 92.3577 142.997C92.5491 143.198 92.6939 143.428 92.7921 143.68C92.8902 143.934 92.9393 144.186 92.9393 144.44H92.9442ZM88.4146 145.881H90.6819C90.8782 145.881 91.0646 145.844 91.2413 145.769C91.4155 145.693 91.5726 145.59 91.7051 145.458C91.84 145.326 91.9455 145.172 92.024 144.998C92.1026 144.824 92.1418 144.634 92.1418 144.431C92.1418 144.228 92.105 144.047 92.0314 143.875C91.9578 143.707 91.8547 143.557 91.7247 143.433C91.5946 143.308 91.4401 143.21 91.2609 143.142C91.0818 143.073 90.888 143.036 90.6819 143.036H88.4146V145.881Z" fill="black"/>
<path d="M105.07 142.315V143.039H100.869V145.566H104.822V146.29H100.869V149.063H105.259V149.787H100.074V142.317H105.07V142.315Z" fill="black"/>
<path d="M115.181 142.315L117.905 149.785H117.078L116.214 147.407H113.029L112.166 149.785H111.344L114.089 142.315H115.186H115.181ZM114.622 143.054L113.248 146.808H115.994L114.624 143.054H114.622Z" fill="black"/>
<path d="M125.447 142.315V149.063H129.214V149.787H124.652V142.317H125.447V142.315Z" fill="black"/>
<path d="M141.02 142.315V143.039H138.536V149.787H137.741V143.039H135.266V142.315H141.02Z" fill="black"/>
<path d="M153.976 146.043C153.976 146.617 153.902 147.146 153.753 147.628C153.603 148.109 153.387 148.525 153.1 148.873C152.813 149.22 152.462 149.491 152.045 149.685C151.628 149.878 151.149 149.973 150.614 149.973C150.08 149.973 149.601 149.878 149.184 149.685C148.767 149.491 148.416 149.222 148.131 148.873C147.847 148.525 147.631 148.109 147.481 147.628C147.331 147.146 147.258 146.617 147.258 146.043C147.258 145.468 147.331 144.947 147.481 144.465C147.631 143.986 147.847 143.572 148.131 143.225C148.416 142.878 148.767 142.609 149.184 142.415C149.601 142.222 150.08 142.127 150.614 142.127C151.149 142.127 151.628 142.222 152.045 142.415C152.462 142.609 152.815 142.878 153.1 143.225C153.387 143.572 153.603 143.986 153.753 144.465C153.902 144.944 153.976 145.47 153.976 146.043ZM153.176 146.043C153.176 145.539 153.11 145.089 152.977 144.69C152.845 144.291 152.663 143.954 152.433 143.677C152.202 143.401 151.93 143.191 151.618 143.046C151.306 142.902 150.97 142.829 150.614 142.829C150.259 142.829 149.915 142.902 149.604 143.046C149.292 143.191 149.022 143.401 148.791 143.677C148.563 143.954 148.382 144.291 148.252 144.69C148.122 145.089 148.055 145.539 148.055 146.043C148.055 146.546 148.122 146.997 148.252 147.398C148.382 147.796 148.563 148.136 148.791 148.413C149.02 148.689 149.292 148.902 149.604 149.046C149.915 149.193 150.251 149.266 150.614 149.266C150.978 149.266 151.306 149.193 151.618 149.046C151.93 148.899 152.2 148.689 152.433 148.413C152.663 148.136 152.845 147.799 152.977 147.398C153.11 146.997 153.176 146.546 153.176 146.043Z" fill="black"/>
<path d="M166.039 144.44C166.039 144.626 166.017 144.807 165.973 144.986C165.929 145.164 165.863 145.333 165.774 145.492C165.686 145.651 165.576 145.798 165.443 145.928C165.311 146.057 165.159 146.175 164.987 146.27C165.181 146.319 165.338 146.395 165.463 146.497C165.585 146.6 165.684 146.718 165.752 146.852C165.821 146.987 165.87 147.131 165.897 147.287C165.924 147.444 165.936 147.605 165.936 147.769V148.899C165.936 149.061 165.958 149.217 166.003 149.369C166.047 149.521 166.103 149.66 166.172 149.785H165.308C165.271 149.728 165.244 149.662 165.225 149.589C165.205 149.516 165.19 149.44 165.178 149.362C165.168 149.283 165.161 149.208 165.156 149.134C165.151 149.061 165.151 148.997 165.151 148.943V147.755C165.151 147.613 165.127 147.471 165.08 147.329C165.033 147.187 164.952 147.062 164.844 146.952C164.734 146.842 164.592 146.752 164.417 146.686C164.241 146.617 164.03 146.583 163.777 146.583H161.51V149.785H160.715V142.315H163.777C164.143 142.315 164.467 142.379 164.746 142.506C165.028 142.633 165.264 142.797 165.455 142.997C165.647 143.198 165.792 143.428 165.89 143.68C165.988 143.934 166.037 144.186 166.037 144.44H166.039ZM161.51 145.881H163.777C163.973 145.881 164.16 145.844 164.337 145.769C164.511 145.693 164.668 145.59 164.8 145.458C164.935 145.326 165.041 145.172 165.119 144.998C165.198 144.822 165.237 144.634 165.237 144.431C165.237 144.228 165.2 144.047 165.127 143.875C165.053 143.707 164.95 143.557 164.82 143.433C164.69 143.308 164.535 143.21 164.356 143.142C164.177 143.073 163.983 143.036 163.777 143.036H161.51V145.881Z" fill="black"/>
<path d="M173.481 147.451C173.498 147.721 173.56 147.965 173.665 148.188C173.768 148.41 173.906 148.603 174.08 148.77C174.252 148.934 174.455 149.061 174.691 149.154C174.926 149.244 175.182 149.291 175.461 149.291C175.712 149.291 175.952 149.264 176.18 149.208C176.408 149.151 176.612 149.066 176.786 148.946C176.96 148.826 177.1 148.672 177.206 148.481C177.311 148.29 177.363 148.058 177.363 147.787C177.363 147.564 177.306 147.376 177.194 147.222C177.081 147.067 176.931 146.933 176.747 146.82C176.563 146.708 176.352 146.61 176.119 146.529C175.886 146.449 175.648 146.37 175.407 146.299C175.206 146.243 175.005 146.18 174.804 146.111C174.602 146.043 174.406 145.967 174.217 145.881C174.028 145.796 173.854 145.698 173.69 145.588C173.528 145.478 173.385 145.348 173.265 145.196C173.145 145.047 173.049 144.876 172.981 144.685C172.912 144.494 172.875 144.274 172.875 144.025C172.875 143.714 172.936 143.44 173.059 143.203C173.182 142.966 173.351 142.768 173.572 142.606C173.793 142.445 174.055 142.322 174.362 142.239C174.669 142.156 175.005 142.115 175.368 142.115C175.694 142.115 175.981 142.146 176.232 142.21C176.482 142.273 176.7 142.362 176.887 142.472C177.073 142.582 177.23 142.711 177.36 142.86C177.488 143.01 177.596 143.164 177.677 143.33C177.758 143.496 177.819 143.663 177.861 143.839C177.9 144.015 177.925 144.181 177.937 144.343H177.12C177.098 144.093 177.039 143.873 176.941 143.685C176.843 143.496 176.715 143.337 176.558 143.208C176.404 143.078 176.222 142.983 176.018 142.919C175.815 142.856 175.599 142.824 175.368 142.824C175.157 142.824 174.951 142.846 174.747 142.887C174.544 142.931 174.364 143 174.205 143.093C174.046 143.188 173.915 143.313 173.817 143.465C173.719 143.619 173.67 143.805 173.67 144.027C173.67 144.25 173.727 144.45 173.837 144.609C173.947 144.768 174.097 144.905 174.284 145.018C174.47 145.133 174.681 145.231 174.919 145.311C175.157 145.392 175.402 145.473 175.658 145.551C175.859 145.612 176.06 145.676 176.261 145.744C176.462 145.813 176.659 145.889 176.845 145.974C177.032 146.06 177.203 146.158 177.363 146.265C177.522 146.375 177.662 146.5 177.78 146.644C177.898 146.789 177.991 146.955 178.057 147.143C178.124 147.332 178.158 147.547 178.158 147.789C178.158 148.153 178.092 148.474 177.957 148.75C177.822 149.027 177.635 149.259 177.395 149.445C177.154 149.631 176.87 149.77 176.541 149.866C176.212 149.961 175.851 150.007 175.461 150.007C175.11 150.007 174.769 149.949 174.436 149.829C174.102 149.709 173.805 149.54 173.547 149.32C173.287 149.1 173.079 148.833 172.919 148.52C172.76 148.207 172.674 147.853 172.664 147.459H173.486L173.481 147.451Z" fill="black"/>
<path d="M163.629 51.4276C163.629 51.4276 177.027 78.2347 188.689 89.5128C200.352 100.791 214.784 97.7041 214.784 97.7041C214.465 97.7579 213.768 97.3666 213.462 97.2565C205.406 94.3483 199.449 87.9229 194.419 81.2432C181.897 64.6184 174.124 45.0462 162.999 27.5409C158.553 20.5456 153.672 13.7729 147.771 7.94674C145.32 5.5253 142.66 3.24816 139.564 1.72925C137.024 0.484289 134.475 -0.0807149 131.741 0.00978362V0H82.9443V0.024459C80.7311 0.136971 78.6258 0.699529 76.5254 1.72925C73.4288 3.24816 70.769 5.5253 68.3178 7.94674C62.4166 13.7753 57.5362 20.548 53.0901 27.5409C41.965 45.0462 34.1917 64.6184 21.6704 81.2432C16.6403 87.9229 10.6827 94.3508 2.62723 97.2565C2.32052 97.3666 1.62367 97.7579 1.30469 97.7041C1.30469 97.7041 15.7349 100.791 27.3998 89.5128C39.0623 78.2347 52.4595 51.4276 52.4595 51.4276C52.4595 51.4276 75.6936 4.77441 89.773 2.46058C90.541 2.58777 91.3335 2.84459 92.1506 3.21881C90.1116 4.57384 88.2615 6.22238 86.5169 7.94674C80.6157 13.7753 75.7353 20.548 71.2892 27.5409C60.1641 45.0462 52.3908 64.6184 39.8695 81.2432C34.8395 87.9229 28.8819 94.3508 20.8264 97.2565C20.5196 97.3666 19.8228 97.7579 19.5038 97.7041C19.5038 97.7041 33.934 100.791 45.5989 89.5128C57.2614 78.2347 70.6586 51.4276 70.6586 51.4276C70.6586 51.4276 85.6704 21.2843 98.8738 8.25493C99.8086 9.17703 100.753 10.1872 101.698 11.2634C97.1758 16.2799 93.2597 21.837 89.6331 27.5409C78.508 45.0462 70.7347 64.6184 58.2134 81.2432C53.1833 87.9229 47.2257 94.3508 39.1702 97.2565C38.8635 97.3666 38.1667 97.7579 37.8477 97.7041C37.8477 97.7041 52.2779 100.791 63.9428 89.5128C75.6053 78.2347 89.0025 51.4276 89.0025 51.4276C89.0025 51.4276 97.9144 33.5334 108.043 19.3593C118.172 33.5334 127.084 51.4276 127.084 51.4276C127.084 51.4276 140.481 78.2347 152.144 89.5128C163.806 100.791 178.239 97.7041 178.239 97.7041C177.92 97.7579 177.223 97.3666 176.916 97.2565C168.861 94.3483 162.903 87.9229 157.873 81.2432C145.352 64.6184 137.578 45.0462 126.453 27.5409C122.827 21.837 118.911 16.2799 114.389 11.2634C115.336 10.1872 116.28 9.17703 117.213 8.25493C130.414 21.2843 145.428 51.4276 145.428 51.4276C145.428 51.4276 158.825 78.2347 170.488 89.5128C182.15 100.791 196.583 97.7041 196.583 97.7041C196.264 97.7579 195.567 97.3666 195.26 97.2565C187.205 94.3483 181.247 87.9229 176.217 81.2432C163.696 64.6184 155.922 45.0462 144.797 27.5409C140.351 20.5456 135.471 13.7729 129.57 7.94674C127.825 6.22238 125.972 4.57384 123.936 3.21881C124.753 2.84459 125.546 2.58777 126.314 2.46058C140.39 4.77441 163.627 51.4276 163.627 51.4276H163.629ZM108.046 5.0459C107.258 4.39529 106.443 3.78137 105.594 3.21881C106.436 2.83236 107.256 2.57065 108.046 2.44835C108.836 2.57065 109.655 2.83236 110.497 3.21881C109.65 3.78381 108.833 4.39774 108.046 5.0459Z" fill="black"/>
<path d="M221.641 59.9686C221.641 59.9686 232.751 82.2019 242.426 91.555C252.098 100.911 264.068 98.3497 264.068 98.3497C263.805 98.3937 263.226 98.0684 262.971 97.9779C256.289 95.5663 251.35 90.2366 247.176 84.6967C236.792 70.9091 230.344 54.6756 221.118 40.1568C217.43 34.3551 213.381 28.7393 208.489 23.9062C206.455 21.8981 204.249 20.0098 201.682 18.7502C199.577 17.718 197.462 17.2484 195.195 17.3242V17.3145H154.726V17.334C152.89 17.427 151.143 17.8941 149.401 18.7478C146.832 20.0074 144.626 21.8956 142.594 23.9037C137.699 28.7368 133.651 34.3551 129.965 40.1543C120.739 54.6732 114.291 70.9042 103.907 84.6942C99.7332 90.2342 94.7939 95.5638 88.1124 97.9755C87.8572 98.0684 87.2806 98.3913 87.0156 98.3473C87.0156 98.3473 98.9848 100.908 108.657 91.5525C118.33 82.197 129.443 59.9661 129.443 59.9661C129.443 59.9661 148.714 21.2719 160.389 19.3543C161.024 19.4595 161.684 19.6723 162.359 19.9829C160.668 21.1081 159.132 22.4753 157.687 23.9037C152.792 28.7368 148.743 34.3551 145.058 40.1543C135.832 54.6732 129.384 70.9042 119 84.6942C114.826 90.2342 109.887 95.5638 103.205 97.9755C102.95 98.0684 102.373 98.3913 102.108 98.3473C102.108 98.3473 114.078 100.908 123.75 91.5525C133.423 82.197 144.535 59.9661 144.535 59.9661C144.535 59.9661 156.985 34.9665 167.936 24.1581C168.712 24.9237 169.494 25.7602 170.28 26.6529C166.528 30.8134 163.282 35.4215 160.273 40.1543C151.047 54.6732 144.599 70.9042 134.215 84.6942C130.041 90.2342 125.102 95.5638 118.421 97.9755C118.165 98.0684 117.589 98.3913 117.324 98.3473C117.324 98.3473 129.293 100.908 138.965 91.5525C148.638 82.197 159.751 59.9661 159.751 59.9661C159.751 59.9661 167.141 45.1244 175.543 33.3694C183.944 45.1244 191.335 59.9661 191.335 59.9661C191.335 59.9661 202.445 82.1994 212.12 91.5525C221.793 100.908 233.762 98.3473 233.762 98.3473C233.499 98.3913 232.92 98.066 232.665 97.9755C225.984 95.5638 221.044 90.2342 216.871 84.6942C206.486 70.9067 200.038 54.6732 190.812 40.1543C187.806 35.4239 184.558 30.8158 180.806 26.6529C181.591 25.7602 182.374 24.9237 183.149 24.1581C194.098 34.9641 206.55 59.9661 206.55 59.9661C206.55 59.9661 217.661 82.1994 227.336 91.5525C237.008 100.908 248.977 98.3473 248.977 98.3473C248.715 98.3913 248.136 98.066 247.88 97.9755C241.199 95.5638 236.26 90.2342 232.086 84.6942C221.702 70.9067 215.254 54.6732 206.028 40.1543C202.34 34.3526 198.291 28.7368 193.398 23.9037C191.951 22.4753 190.415 21.1081 188.727 19.9829C189.404 19.6723 190.061 19.4595 190.697 19.3543C202.372 21.2719 221.643 59.9661 221.643 59.9661L221.641 59.9686ZM175.54 21.4994C174.888 20.9613 174.21 20.4525 173.509 19.9829C174.208 19.6625 174.885 19.4448 175.54 19.3446C176.195 19.4448 176.875 19.6625 177.572 19.9829C176.87 20.4501 176.193 20.9589 175.54 21.4994Z" fill="url(#paint0_linear_1727_808)"/>
</g>
<defs>
<linearGradient id="paint0_linear_1727_808" x1="87.0132" y1="57.9923" x2="264.065" y2="57.9923" gradientUnits="userSpaceOnUse">
<stop stop-color="#B19C73"/>
<stop offset="1" stop-color="#ECDAA0"/>
</linearGradient>
<clipPath id="clip0_1727_808">
<rect width="265" height="150" fill="white"/>
</clipPath>
</defs>
</svg>
