<?xml version="1.0" encoding="UTF-8"?>
<svg xmlns="http://www.w3.org/2000/svg" width="96" height="95" viewBox="0 0 96 95" fill="none">
  <g id="Group">
    <path id="Vector" d="M69.5476 79.4696C65.907 79.4696 62.2625 79.4619 58.6218 79.4773C58.0409 79.4773 57.6923 79.4464 57.6497 78.6847C57.4057 74.2228 55.4924 70.6 52.212 67.5494C43.0174 59.0084 41.3675 45.1975 48.4822 34.9128C54.346 26.4415 62.6498 22.664 72.8746 23.9785C82.7043 25.2429 89.5518 30.8183 93.2661 39.9585C97.0926 49.3617 94.579 60.4197 87.1583 67.2903C83.75 70.4453 81.6779 74.1416 81.4339 78.7968C81.3952 79.5508 80.9653 79.4889 80.4696 79.4889C76.8289 79.4851 73.1883 79.4889 69.5438 79.4889C69.5438 79.4851 69.5438 79.4812 69.5438 79.4735L69.5476 79.4696ZM68.9977 27.064C61.116 27.4931 54.9579 30.9265 50.717 37.6232C49.2413 39.9546 48.2808 42.5181 47.8664 45.2555C47.6999 46.3459 48.2266 47.123 49.16 47.2931C50.1438 47.4749 50.93 46.9181 51.1895 45.8394C51.2592 45.5571 51.3018 45.271 51.3715 44.9887C53.0137 38.323 57.0571 33.7993 63.5212 31.4601C65.4112 30.7757 67.3787 30.478 69.3927 30.4394C70.8373 30.4123 71.6546 29.1634 71.0581 28.0112C70.6243 27.1722 69.8536 27.0176 68.9938 27.0562L68.9977 27.064Z" fill="white"></path>
    <path id="Vector_2" d="M37.3515 13.5273C48.4012 13.5273 59.451 13.5273 70.5007 13.5273C73.3668 13.5273 74.6332 14.7878 74.641 17.6296C74.641 18.3063 74.5906 18.9867 74.6526 19.6556C74.7378 20.5256 74.4667 20.7421 73.5759 20.6107C69.7416 20.0462 65.9034 20.166 62.1776 21.2486C51.8715 24.2412 45.0588 30.8683 41.9023 41.1375C41.6195 42.0578 41.2594 42.3516 40.3376 42.2936C39.0866 42.2124 37.8201 42.1892 36.573 42.2936C32.6148 42.6184 28.8812 41.7794 25.1398 40.5421C17.4403 37.998 9.6787 35.6356 1.94427 33.1959C0.240135 32.6585 0 32.3375 0 30.5976C0 26.2866 0 21.9755 0 17.6683C0 14.8071 1.27037 13.5312 4.1093 13.5273C15.19 13.5273 26.2707 13.5273 37.3554 13.5273H37.3515Z" fill="white"></path>
    <path id="Vector_3" d="M48.9773 69.1759C48.5319 69.4117 48.1756 69.3228 47.8348 69.3228C33.3032 69.3267 18.7755 69.3267 4.24386 69.3267C2.13693 69.3267 1.70703 68.8936 1.70703 66.7748C1.70703 57.1552 1.70703 47.5355 1.70703 37.9158C1.70703 36.6746 1.71091 36.6708 2.92317 37.0497C11.2734 39.6789 19.6236 42.3119 27.9816 44.9218C28.6052 45.1151 28.8918 45.3703 28.8531 46.0546C28.7988 46.9826 28.8298 47.9182 28.8453 48.8539C28.8957 51.9471 30.9561 54.0543 34.07 54.1277C36.1615 54.178 38.2568 54.1587 40.3521 54.1277C40.9524 54.12 41.2313 54.2167 41.3746 54.901C42.49 60.1478 44.8913 64.745 48.5552 68.6733C48.683 68.8124 48.803 68.9632 48.9812 69.172L48.9773 69.1759Z" fill="white"></path>
    <path id="Vector_4" d="M37.3273 0.0100279C40.0346 0.0100279 42.7418 0.00229501 45.4491 0.0100279C48.7257 0.0216272 50.8248 2.09017 50.8829 5.3689C50.9062 6.71829 50.8674 8.07154 50.8984 9.42479C50.9139 10.0086 50.7203 10.1826 50.1277 10.1942C47.5095 10.2406 47.5134 10.2599 47.5095 7.61144C47.5095 4.59562 46.3128 3.39702 43.3034 3.39702C39.2096 3.39702 35.1197 3.38929 31.0259 3.39702C28.4542 3.40476 27.1606 4.70001 27.1451 7.25959C27.1451 7.99808 27.118 8.74043 27.149 9.47892C27.1723 10.0357 26.9437 10.2135 26.4093 10.1865C25.7354 10.1517 25.0537 10.1517 24.3798 10.1865C23.8531 10.2135 23.7253 9.98543 23.7291 9.50212C23.7524 7.99035 23.6943 6.4747 23.7524 4.9668C23.8531 2.16363 26.0568 0.0525586 28.919 0.0177607C31.7231 -0.0170372 34.5271 0.0100279 37.3312 0.0100279H37.3273Z" fill="white"></path>
    <path id="Vector_5" d="M69.575 86.2544C66.4223 86.2544 63.2697 86.2544 60.1171 86.2544C59.7956 86.2544 59.4703 86.2699 59.1527 86.2235C58.2929 86.092 57.7119 85.4038 57.708 84.5571C57.7042 83.6987 58.2696 83.0337 59.1488 82.8984C59.4625 82.8481 59.7917 82.8636 60.1132 82.8636C66.4185 82.8636 72.7238 82.8636 79.0291 82.8636C79.2227 82.8636 79.4164 82.8597 79.6061 82.8674C80.7293 82.9293 81.411 83.5943 81.3838 84.6035C81.3567 85.5623 80.679 86.2235 79.6139 86.2506C78.328 86.2815 77.0422 86.2622 75.7525 86.2622C73.692 86.2622 71.6354 86.2622 69.575 86.2622V86.2544Z" fill="white"></path>
    <path id="Vector_6" d="M69.5754 89.618C72.0231 89.618 74.4748 89.6373 76.9225 89.6064C77.6739 89.5948 77.7552 89.8229 77.426 90.4261C75.9969 93.0282 73.673 94.2693 70.838 94.5747C68.2043 94.857 65.6946 94.4201 63.5528 92.6841C62.7937 92.0693 62.1663 91.3501 61.7015 90.4841C61.3607 89.8461 61.4188 89.5948 62.2282 89.6064C64.676 89.6412 67.1276 89.618 69.5754 89.618Z" fill="white"></path>
    <path id="Vector_7" d="M36.5768 45.6767C37.7659 45.6767 38.9588 45.696 40.1478 45.669C40.7326 45.6535 40.9611 45.812 40.8604 46.4384C40.6745 47.5829 40.6706 48.7467 40.7481 49.8989C40.7907 50.5136 40.6396 50.7611 39.9735 50.7495C38.0447 50.7147 36.1121 50.7495 34.1833 50.7301C32.8975 50.7185 32.2816 50.1115 32.2429 48.8511C32.2197 48.0159 32.2584 47.1808 32.2313 46.3456C32.2158 45.843 32.4133 45.6651 32.9091 45.6728C34.133 45.6922 35.353 45.6806 36.5768 45.6806V45.6767Z" fill="white"></path>
  </g>
</svg>
