<svg xmlns="http://www.w3.org/2000/svg" width="381" height="229" viewBox="0 0 381 229" fill="none"><path d="M204.8 142.18C203.14 142.23 201.51 142.68 200.05 143.48L161.85 163.43C157.17 165.66 151.58 163.93 148.96 159.46C147.99 157.63 147.64 155.54 147.96 153.49L155.59 111.08C156.11 108 155.08 104.86 152.83 102.69L121.64 72.4898C117.93 68.8598 117.87 62.9098 121.49 59.1998C121.54 59.1498 121.58 59.1098 121.64 59.0598C123.12 57.5998 125.02 56.6298 127.08 56.3298L170.15 49.9898C173.27 49.5898 175.97 47.6498 177.35 44.8198L196.07 5.74979C197.85 2.59979 201.26 0.719788 204.87 0.919788C204.8 3.47979 204.8 140.43 204.8 142.17V142.18Z" fill="#BCB08A" fill-opacity="0.5"></path><path opacity="0.4" d="M213.17 6.25027L232.33 44.7503C233.74 47.5403 236.43 49.4803 239.54 49.9103L282.57 56.1803C285.08 56.5303 287.36 57.8603 288.91 59.8803C290.44 61.8803 291.09 64.4103 290.72 66.9003C290.42 68.9703 289.45 70.8803 287.96 72.3403L256.78 102.57C254.5 104.68 253.46 107.8 254.02 110.86L261.7 153.35C262.52 158.48 259.12 163.32 254.02 164.29C251.92 164.63 249.77 164.27 247.88 163.31L209.49 143.31C206.64 141.87 203.28 141.87 200.43 143.31L162.05 163.31C157.33 165.82 151.49 164.11 148.86 159.46C147.89 157.61 147.55 155.5 147.86 153.44L155.54 110.94C156.09 107.89 155.05 104.75 152.78 102.64L121.6 72.4303C117.89 68.8503 117.78 62.9503 121.35 59.2403C121.43 59.1603 121.51 59.0803 121.6 58.9903C123.08 57.4803 125.03 56.5303 127.13 56.2803L170.16 50.0003C173.26 49.5603 175.95 47.6403 177.37 44.8303L195.84 6.24027C197.48 2.93027 200.89 0.880267 204.59 0.960267H205.74C208.95 1.35027 211.75 3.34027 213.18 6.24027L213.17 6.25027Z" fill="#BCB08A" fill-opacity="0.5"></path><path d="M306.35 102.3C306.35 109.93 300.21 116.15 292.65 116.15C285.1 116.15 278.96 109.94 278.96 102.3C278.96 94.6702 285.11 88.4502 292.65 88.4502C300.2 88.4502 306.35 94.6602 306.35 102.3Z" fill="#303030"></path><path d="M288.18 125.97C277.65 123.05 269.45 114.8 266.44 111.74C257.97 103.16 246.65 87.09 249.47 64.14C249.64 62.76 248.73 61.47 247.35 61.24H247.32C245.89 61 244.52 61.99 244.34 63.43C240.1 91.14 257.83 110.96 258.39 111.55C258.59 111.76 260.06 113.29 262.42 115.36C268.62 121.53 272.55 127.19 273.47 133.61C275.52 147.89 263.8 160.83 262.62 162C261.84 163.12 261.93 164.63 262.81 165.61C263.61 166.51 264.93 166.8 266.08 166.33C272.18 158.67 275.59 155.76 281.32 155.76H281.63C287.46 164.25 290.15 178.62 292.4 194.57C292.6 196.4 292.82 198.19 293.05 199.91C293.36 202.27 293.68 204.64 293.99 207C294.27 208.27 295.36 209.17 296.6 209.19C297.69 209.2 298.71 208.52 299.14 207.47C299.31 207.05 299.39 206.58 299.32 206.09L298.99 203.56C298.54 200.16 298.09 196.79 297.62 193.48C294.67 166.89 295.71 139.72 303.73 134C304.53 133.43 306.95 131.7 312.26 134.66C314.94 136.15 316.47 138.08 316.94 140.57C317.88 145.56 314.7 152.87 307.96 161.14C307.03 162.28 307.19 163.98 308.32 164.92C309.45 165.86 311.12 165.7 312.05 164.55C317.54 157.81 323.75 148 322.14 139.55C321.36 135.45 319.1 131.72 315.01 129.44C314.96 129.41 314.93 129.39 314.89 129.37C312.58 128.07 309.46 126.92 308.7 126.68C304.23 125.25 296.11 128.2 288.16 125.95L288.18 125.97Z" fill="#303030"></path><path d="M358.84 118.3C336.73 133.16 314.09 134.46 288.64 128.32C279.53 126.12 269.87 123.03 262.95 116.48C256.47 110.34 251.66 102.28 246.31 95.1903C234.37 79.3903 222.91 67.9003 202.38 64.9803C183.21 62.2503 163.77 70.5903 152.75 86.6003C146.45 95.7503 144.35 106.15 143.48 117.07C142.47 129.74 142.47 137.5 133.49 147.32C121.12 160.86 94.2601 167.16 77.3601 158.18C70.9601 154.78 65.8801 147.15 64.9501 143.41C62.9801 135.51 65.1601 121.1 75.5501 120.28C87.7101 119.32 82.2701 140.35 78.7001 147C67.0501 168.68 33.3701 176.53 10.9101 179.61C-8.17994 182.23 -0.0499382 211.21 18.9101 208.61C50.0301 204.35 88.3701 191 104.68 162.18C113.4 146.77 116.55 123.55 107.74 107.61C94.3901 83.4702 59.6701 85.8502 44.4501 106.47C29.2501 127.07 31.5801 153.94 48.2001 172.78C68.4601 195.75 103.52 195.1 130.21 185.37C156.6 175.75 171.6 151.53 173.2 124.32C173.75 115 173.8 105.18 181.8 98.9603C192.56 90.5903 206.49 94.4702 214.85 103.7C223.34 113.09 229.87 124.08 238.07 133.71C247.69 145.01 260.96 151.62 275.04 155.83C308.99 165.99 344.14 164.36 374.04 144.26C390.02 133.52 374.98 107.45 358.86 118.29L358.84 118.3Z" fill="url(#paint0_linear_1557_2846)"></path><path d="M145.75 107.38C153.3 107.38 159.44 113.59 159.44 121.23C159.44 128.87 153.29 135.08 145.75 135.08C138.21 135.08 132.05 128.87 132.05 121.23C132.05 113.59 138.19 107.38 145.75 107.38Z" fill="#303030"></path><path d="M194.06 82.3599C193.88 80.9299 192.51 79.9399 191.08 80.1699H191.05C189.67 80.3999 188.76 81.6899 188.93 83.0699C191.75 106.02 180.43 122.09 171.96 130.67C168.94 133.73 160.75 141.98 150.22 144.9C142.27 147.15 134.15 144.2 129.68 145.63C128.93 145.87 125.8 147.02 123.49 148.32C123.45 148.34 123.42 148.36 123.37 148.39C119.28 150.67 117.02 154.4 116.24 158.5C116.22 158.59 116.22 158.69 116.2 158.78C118.71 157.57 121.25 156.41 123.82 155.33C124.47 154.71 125.21 154.12 126.13 153.61C131.44 150.65 133.86 152.38 134.66 152.95C142.68 158.67 143.72 185.83 140.77 212.43C140.3 215.74 139.85 219.11 139.4 222.51L139.07 225.04C139.01 225.53 139.09 226 139.26 226.42C139.69 227.47 140.71 228.16 141.8 228.14C143.03 228.12 144.13 227.22 144.41 225.95C144.72 223.59 145.04 221.22 145.35 218.86C145.58 217.14 145.8 215.35 146 213.52C148.25 197.56 150.94 183.19 156.77 174.7H157.07C162.8 174.7 166.22 177.6 172.31 185.27C173.46 185.74 174.78 185.44 175.58 184.55C176.46 183.57 176.55 182.07 175.77 180.94C174.59 179.77 162.87 166.83 164.92 152.55C165.84 146.13 169.77 140.47 175.97 134.3C178.33 132.22 179.8 130.69 180 130.49C180.56 129.9 198.29 110.08 194.06 82.3699V82.3599Z" fill="#303030"></path><path d="M322.171 139.57C321.391 135.47 319.131 131.74 315.041 129.46C314.991 129.43 314.961 129.41 314.921 129.39C312.611 128.09 309.491 126.94 308.731 126.7C305.801 125.76 301.301 126.7 296.311 126.82C296.481 127.24 296.581 127.69 296.581 128.16C296.581 128.39 296.601 128.61 296.601 128.84C299.081 129.47 301.411 130.57 303.871 131.29C305.321 131.72 306.761 132.26 307.971 133.1C309.141 133.27 310.541 133.7 312.291 134.67C314.971 136.16 316.501 138.09 316.971 140.58C317.911 145.57 314.731 152.88 307.991 161.15C307.061 162.29 307.221 163.99 308.351 164.93C309.481 165.87 311.151 165.71 312.081 164.56C317.571 157.82 323.781 148.01 322.171 139.56V139.57Z" fill="#303030"></path><defs><linearGradient id="paint0_linear_1557_2846" x1="14.7201" y1="136.62" x2="367.16" y2="136.62" gradientUnits="userSpaceOnUse"><stop stop-color="#B19C73"></stop><stop offset="1" stop-color="#ECDAA0"></stop></linearGradient></defs></svg>