<?xml version="1.0" encoding="UTF-8"?>
<svg xmlns="http://www.w3.org/2000/svg" width="100" height="81" viewBox="0 0 100 81" fill="none">
  <g id="Group">
    <path id="Vector" d="M59.3725 32.6642C59.3725 24.2923 59.3504 15.9259 59.3945 7.55397C59.4 6.37684 59.1964 5.91481 57.8543 5.92031C48.9763 5.98631 40.0984 5.97532 31.2204 5.93132C30.0873 5.92582 29.7683 6.22835 29.7683 7.37247C29.8068 20.9094 29.7848 34.4464 29.8123 47.9833C29.8123 49.0999 29.6913 49.6885 28.3381 49.474C27.359 49.32 26.3249 49.43 25.3293 49.529C24.5097 49.6115 24.2402 49.298 24.3117 48.5389C24.3282 48.3574 24.3117 48.1758 24.3117 47.9888C24.3117 32.6697 24.3282 17.3451 24.2842 2.02591C24.2842 0.777278 24.5977 0.425227 25.8684 0.430727C38.3602 0.480233 50.852 0.474732 63.3439 0.430727C64.5375 0.430727 64.9005 0.705751 64.8785 1.93788C64.796 5.87081 64.8895 9.8037 64.8235 13.7366C64.807 14.8037 65.1426 15.2273 66.1767 15.4969C76.9633 18.3407 87.7335 21.2505 98.5257 24.0888C99.6643 24.3858 100.005 24.8589 99.9998 26.025C99.9558 38.4178 99.9503 50.8106 99.9998 63.209C100.005 64.5456 99.6203 64.8702 98.3166 64.8702C83.124 64.8262 67.9314 64.8316 52.7387 64.8647C51.7101 64.8647 51.0996 64.5786 50.522 63.693C47.8432 59.5951 44.1468 56.7238 39.6418 54.8096C37.5846 53.935 37.4746 53.3079 38.5032 51.2507C39.9059 48.4509 42.8982 46.9822 45.9455 47.5983C49.0093 48.2199 51.1601 50.6676 51.3416 53.858C51.4296 55.3651 51.3966 56.8778 51.3691 58.3849C51.3581 59.0835 51.6001 59.3696 52.3152 59.3586C54.2844 59.3311 56.2536 59.2981 58.2173 59.3696C59.2789 59.4081 59.3834 58.9075 59.378 58.0439C59.3504 53.2419 59.3669 48.4398 59.3669 43.6378C59.3669 39.9799 59.3669 36.3221 59.3669 32.6642H59.3725ZM64.906 39.9964C64.906 46.0306 64.9226 52.0592 64.8895 58.0934C64.8895 59.012 65.0986 59.3806 66.0997 59.3751C75.1536 59.3421 84.2076 59.3421 93.2561 59.3751C94.2022 59.3751 94.5102 59.1 94.5102 58.1374C94.4772 48.7259 94.4827 39.3089 94.5102 29.8974C94.5102 29.0833 94.2902 28.6872 93.4541 28.4672C84.3616 26.0525 75.2692 23.6157 66.1932 21.1405C65.1096 20.8434 64.884 21.113 64.8895 22.1801C64.9335 28.1207 64.9115 34.0613 64.9115 40.0019L64.906 39.9964Z" fill="white"></path>
    <path id="Vector_2" d="M27.1561 80.3203C19.2462 80.3203 11.3364 80.3203 3.42652 80.3203C1.74334 80.3203 0.890747 79.7978 0.681725 78.6536C0.456201 77.4325 1.20978 76.3764 2.82145 75.9528C3.82256 75.6943 3.76206 74.9297 3.86657 74.2587C4.1471 72.394 4.58714 70.5788 5.35723 68.8626C7.0074 65.1772 9.58718 62.2784 12.904 60.0011C13.7291 59.4346 14.1582 59.4016 14.1087 60.6227C14.0592 61.8988 14.1087 63.1805 14.1747 64.4622C14.2572 66.1068 14.7412 66.6679 15.9844 66.6679C17.244 66.6679 17.7941 66.0683 17.8161 64.4786C17.8381 62.8834 17.8161 61.2773 17.7171 59.6876C17.596 57.6524 18.0801 56.9153 20.0493 56.5083C21.4355 56.2222 22.7336 55.9307 23.0031 54.1705C23.0911 53.5874 23.7952 53.4554 24.3453 53.4059C26.122 53.2354 27.9041 53.1914 29.6863 53.3729C30.3904 53.4445 31.0835 53.615 31.232 54.4621C31.4465 55.6722 32.3211 56.0407 33.3607 56.2718C36.3971 56.9428 36.5786 57.2399 36.4576 60.3312C36.3971 61.7889 36.4906 63.252 36.5181 64.7152C36.5401 65.8483 37.0626 66.5468 38.2563 66.5578C39.5269 66.5689 40.0495 65.8098 40.066 64.6326C40.0825 63.307 40.121 61.9814 40.066 60.6557C40.0275 59.6051 40.297 59.3191 41.2761 59.9021C44.0099 61.5303 46.1001 63.7966 47.7943 66.4369C49.2684 68.7306 50.1705 71.2608 50.5501 73.9726C50.6931 75.0012 50.9296 75.8264 52.2168 76.1234C53.3994 76.3984 53.977 77.4435 53.7569 78.6867C53.5369 79.9243 52.6238 80.3369 51.4302 80.3314C43.3388 80.3203 35.2419 80.3258 27.1506 80.3258L27.1561 80.3203Z" fill="white"></path>
    <path id="Vector_3" d="M44.6638 11.4591C47.5846 11.4591 50.5109 11.4976 53.4317 11.4371C54.3558 11.4206 54.6198 11.7342 54.5868 12.6088C54.5373 14.2039 54.5428 15.8046 54.5868 17.3998C54.6088 18.1863 54.4108 18.5494 53.5252 18.5439C47.5901 18.5109 41.6549 18.5164 35.7143 18.5439C34.8727 18.5439 34.5977 18.2469 34.6197 17.4273C34.6692 15.8321 34.6912 14.2314 34.6142 12.6362C34.5647 11.6186 34.9937 11.4316 35.8958 11.4482C38.8166 11.4922 41.743 11.4646 44.6638 11.4646V11.4591Z" fill="white"></path>
    <path id="Vector_4" d="M44.6262 30.1005C41.6999 30.1005 38.7736 30.062 35.8473 30.1225C34.8627 30.1445 34.5821 29.798 34.6206 28.8629C34.6811 27.3117 34.6866 25.7551 34.6206 24.2039C34.5766 23.2193 34.9507 22.9663 35.8858 22.9718C41.6944 23.0048 47.4975 23.0048 53.3061 22.9718C54.2137 22.9718 54.6373 23.1698 54.5933 24.1764C54.5218 25.7716 54.5328 27.3778 54.5933 28.9729C54.6263 29.8805 54.2963 30.139 53.4052 30.1225C50.4788 30.073 47.5525 30.106 44.6262 30.106V30.1005Z" fill="white"></path>
    <path id="Vector_5" d="M44.6702 41.6398C41.6944 41.6398 38.7241 41.6178 35.7483 41.6563C34.9397 41.6673 34.5932 41.4528 34.6207 40.5837C34.6757 38.939 34.6647 37.2943 34.6207 35.6442C34.5987 34.8466 34.8242 34.5 35.6933 34.5C41.6394 34.5275 47.5855 34.5275 53.5372 34.5C54.3073 34.5 54.5988 34.7475 54.5823 35.5231C54.5438 37.2118 54.5328 38.906 54.5823 40.5947C54.6098 41.4803 54.2413 41.6563 53.4437 41.6453C50.5174 41.6068 47.5855 41.6288 44.6592 41.6288L44.6702 41.6398Z" fill="white"></path>
    <path id="Vector_6" d="M79.7578 41.0861C78.3442 41.0861 76.9305 41.0585 75.5169 41.097C74.8183 41.1135 74.5323 40.8825 74.5433 40.1675C74.5708 37.7527 74.5598 35.3324 74.5433 32.9177C74.5433 32.3071 74.7303 31.9936 75.4069 31.9991C78.2782 32.0156 81.155 32.0156 84.0263 31.9991C84.6699 31.9991 84.9064 32.2301 84.9009 32.8792C84.8789 35.3434 84.8734 37.8022 84.9009 40.2665C84.9064 40.9541 84.6093 41.1135 83.9988 41.1025C82.5851 41.075 81.1715 41.0916 79.7578 41.0916V41.0861Z" fill="white"></path>
    <path id="Vector_7" d="M79.6973 53.8365C78.3276 53.8365 76.958 53.809 75.5883 53.8475C74.8403 53.8695 74.5212 53.633 74.5377 52.841C74.5762 50.5142 74.5707 48.1874 74.5377 45.8607C74.5267 45.1181 74.7412 44.7881 75.5388 44.7991C78.3661 44.8321 81.1989 44.8211 84.0262 44.8046C84.6588 44.8046 84.9118 45.0081 84.9063 45.6737C84.8733 48.0884 84.8678 50.5087 84.9063 52.9234C84.9173 53.6715 84.6148 53.8585 83.9382 53.842C82.5246 53.809 81.1109 53.831 79.6918 53.831L79.6973 53.8365Z" fill="white"></path>
  </g>
</svg>
