<?xml version="1.0" encoding="UTF-8"?>
<svg xmlns="http://www.w3.org/2000/svg" width="84" height="85" viewBox="0 0 84 85" fill="none">
  <g id="Group">
    <path id="Vector" d="M42.2544 48.7545C48.9314 48.7545 55.605 48.7682 62.282 48.7373C63.0433 48.7339 63.2319 48.9496 63.2319 49.6959C63.2079 60.6615 63.2182 71.6271 63.2147 82.5927C63.2147 84.1675 62.7346 84.6537 61.1846 84.6537C48.5473 84.6537 35.9101 84.6537 23.2728 84.6537C21.7708 84.6537 21.2735 84.1572 21.2735 82.6543C21.2735 71.6613 21.2804 60.6649 21.2529 49.672C21.2529 48.888 21.5033 48.7373 22.2269 48.7408C28.9039 48.7682 35.5774 48.7545 42.2544 48.7545Z" fill="white"></path>
    <path id="Vector_2" d="M42.2168 39.7491C39.4767 39.7491 36.7366 39.7388 33.9966 39.7593C33.4787 39.7628 33.273 39.6532 33.2284 39.0712C33.0123 36.2331 31.8429 33.8195 29.8196 31.8099C25.7078 27.7256 23.8628 22.8094 24.3566 17.0236C25.0391 9.02625 31.6303 2.13126 39.6139 1.08023C51.795 -0.521984 61.7745 9.55348 59.9741 21.6762C59.4357 25.2949 57.8856 28.4925 55.3101 31.1012C53.0262 33.4155 51.3869 35.9797 51.26 39.3177C51.2395 39.8928 50.8279 39.7422 50.5227 39.7456C47.7552 39.7559 44.9877 39.7525 42.2168 39.7525V39.7491Z" fill="white"></path>
    <path id="Vector_3" d="M66.1936 52.0514C66.1936 50.7881 66.2039 49.6207 66.1868 48.4533C66.1799 48.0972 66.3274 47.8816 66.5948 47.6727C71.6532 43.6843 76.7081 39.689 81.7527 35.6801C82.1676 35.3514 82.4111 35.3651 82.7026 35.7965C83.1279 36.4264 84.0641 36.9194 83.9955 37.6041C83.9303 38.2306 82.9804 38.5935 82.4077 39.0591C77.3871 43.1434 72.3631 47.2208 67.3322 51.2914C67.0098 51.5516 66.732 51.8905 66.1936 52.048V52.0514Z" fill="white"></path>
    <path id="Vector_4" d="M18.2626 52.1716C17.3161 51.4116 16.5651 50.8125 15.8209 50.2065C10.8689 46.1804 5.92028 42.1475 0.954548 38.1386C0.447001 37.7277 0.302967 37.4402 0.831091 36.9609C1.35236 36.4884 1.66443 35.5059 2.268 35.5059C2.83727 35.5059 3.42027 36.2419 3.97583 36.6801C8.54032 40.2817 13.0945 43.8901 17.6659 47.4814C18.0843 47.81 18.2969 48.1387 18.2729 48.6899C18.2283 49.7649 18.2592 50.8433 18.2592 52.1716H18.2626Z" fill="white"></path>
    <path id="Vector_5" d="M42.2501 45.7632C40.0244 45.7632 37.7988 45.7632 35.5765 45.7632C35.3193 45.7632 35.0621 45.7701 34.8084 45.7529C33.8721 45.6845 33.2754 45.0888 33.2823 44.2466C33.2891 43.4044 33.903 42.8053 34.8461 42.7882C36.0429 42.7642 37.2432 42.7813 38.4401 42.7813C42.1472 42.7813 45.8578 42.7745 49.5649 42.7847C50.5457 42.7847 51.2316 43.4078 51.2453 44.2363C51.2556 45.058 50.5732 45.6982 49.6164 45.7564C49.3901 45.7701 49.1603 45.7632 48.9305 45.7632C46.7049 45.7632 44.4792 45.7632 42.257 45.7632H42.2501Z" fill="white"></path>
    <path id="Vector_6" d="M12.2537 17.3288C13.6804 17.3288 15.107 17.3185 16.5302 17.3288C17.5727 17.3391 18.2449 17.9382 18.2449 18.8249C18.2449 19.7116 17.5933 20.3244 16.5336 20.3312C13.6804 20.3483 10.8305 20.3518 7.97731 20.3312C6.95879 20.3244 6.25234 19.6397 6.2832 18.7872C6.31406 17.9313 7.02394 17.3356 8.05962 17.3288C9.45537 17.3185 10.8546 17.3288 12.2537 17.3288Z" fill="white"></path>
    <path id="Vector_7" d="M72.2119 17.3293C73.6111 17.3293 75.0069 17.3224 76.406 17.3293C77.4691 17.3361 78.1447 17.901 78.179 18.774C78.2099 19.6915 77.5309 20.3249 76.43 20.3317C73.6042 20.3488 70.7784 20.3488 67.9561 20.3317C66.9204 20.3249 66.2139 19.6881 66.2071 18.8391C66.2002 17.9592 66.9341 17.3327 68.0178 17.3259C69.417 17.3156 70.8127 17.3259 72.2119 17.3259V17.3293Z" fill="white"></path>
    <path id="Vector_8" d="M75.2082 32.2453C75.1876 33.423 74.1005 34.0598 72.9585 33.5805C71.4085 32.9301 69.8824 32.2248 68.3426 31.5401C67.2486 31.054 66.1478 30.5815 65.0641 30.0748C64.1279 29.6366 63.785 28.791 64.1725 27.983C64.5463 27.2025 65.335 26.9526 66.2918 27.3737C68.9016 28.5171 71.5045 29.6845 74.1108 30.8383C74.7658 31.1259 75.1773 31.5846 75.2048 32.2522L75.2082 32.2453Z" fill="white"></path>
    <path id="Vector_9" d="M65.4699 10.5069C64.7669 10.4693 64.2731 10.1235 64.0947 9.44223C63.8856 8.65139 64.1736 8.02146 64.9144 7.66884C66.0221 7.14161 67.1469 6.66232 68.2683 6.16248C69.7772 5.48805 71.2827 4.80676 72.8019 4.14944C73.8513 3.69411 74.6812 3.93718 75.0687 4.7691C75.4528 5.59075 75.0687 6.40213 74.0365 6.86431C71.461 8.01804 68.8787 9.15808 66.2998 10.3015C66.0358 10.4179 65.7717 10.5206 65.4733 10.5069H65.4699Z" fill="white"></path>
    <path id="Vector_10" d="M10.8506 33.7638C10.031 33.733 9.54055 33.3564 9.34851 32.6409C9.1496 31.9116 9.52341 31.2235 10.3225 30.8606C12.3218 29.9568 14.328 29.0701 16.3307 28.1766C16.9823 27.8856 17.6304 27.5877 18.2889 27.3173C19.1599 26.9578 19.9453 27.2282 20.3225 27.9951C20.6963 28.7517 20.4357 29.5802 19.5578 29.9842C16.8417 31.2338 14.0982 32.432 11.365 33.644C11.1867 33.7227 10.9809 33.733 10.8506 33.7604V33.7638Z" fill="white"></path>
    <path id="Vector_11" d="M20.4713 9.04209C20.4575 10.1616 19.3773 10.8018 18.2559 10.3191C16.2668 9.45976 14.295 8.56964 12.3162 7.68979C11.6646 7.40222 11.0096 7.11806 10.3649 6.82022C9.46297 6.40255 9.09603 5.61171 9.41496 4.81745C9.74075 4.00607 10.5638 3.66372 11.4829 4.06427C14.1509 5.218 16.8018 6.40939 19.4527 7.59736C20.0597 7.87124 20.4747 8.31973 20.4678 9.04209H20.4713Z" fill="white"></path>
  </g>
</svg>
