<?xml version="1.0" encoding="UTF-8"?>
<svg xmlns="http://www.w3.org/2000/svg" width="104" height="65" viewBox="0 0 104 65" fill="none">
  <path id="Vector" d="M70.9109 37.1565C69.5362 37.1565 68.0045 37.2519 66.355 37.4046C71.8338 41.2786 75.6435 46.5076 75.6435 53.3969V65H104V53.3969C104 42.5763 81.9471 37.1565 70.9109 37.1565ZM33.0891 37.1565C22.0529 37.1565 0 42.5954 0 53.3969V65H66.1782V53.3969C66.1782 42.5763 44.1254 37.1565 33.0891 37.1565ZM33.0891 27.8626C40.9048 27.8626 47.2281 21.6221 47.2281 13.9313C47.2281 6.24046 40.9245 0 33.0891 0C25.2538 0 18.9109 6.24046 18.9109 13.9313C18.9109 21.6221 25.2734 27.8626 33.0891 27.8626ZM70.9109 27.8626C78.7266 27.8626 85.0498 21.6221 85.0498 13.9313C85.0498 6.24046 78.7462 0 70.9109 0C63.0755 0 56.7326 6.24046 56.7326 13.9313C56.7326 21.6221 63.0952 27.8626 70.9109 27.8626Z" fill="white"></path>
</svg>
