<?xml version="1.0" encoding="UTF-8"?>
<svg xmlns="http://www.w3.org/2000/svg" width="92" height="93" viewBox="0 0 92 93" fill="none">
  <path id="Vector" d="M41.6708 60.7234C47.0071 60.7234 51.3495 56.3388 51.3495 50.9505C51.3495 48.996 50.7739 47.1735 49.7799 45.6416L56.2673 39.0911C58.857 42.3399 60.4265 46.4603 60.4265 50.9505C60.4265 61.3837 52.0296 69.8887 41.6708 69.8887C31.3119 69.8887 22.915 61.4101 22.915 50.9505C22.915 40.491 31.3119 32.0125 41.6708 32.0125C46.0393 32.0125 50.0415 33.5445 53.2329 36.0801L46.7455 42.6305C45.2806 41.706 43.528 41.1778 41.6708 41.1778C36.3344 41.1778 31.992 45.5623 31.992 50.9505C31.992 56.3388 36.3344 60.7234 41.6708 60.7234ZM75.8863 50.9505C75.8863 69.9943 60.5312 85.4987 41.6708 85.4987C22.8104 85.4987 7.45523 69.9943 7.45523 50.9505C7.45523 31.9068 22.8104 16.4024 41.6708 16.4024C50.3031 16.4024 58.1769 19.6512 64.2195 24.9866L57.7845 31.4842C53.416 27.7864 47.7919 25.5677 41.6708 25.5677C27.8067 25.5677 16.5323 36.9517 16.5323 50.9505C16.5323 64.9494 27.8067 76.3334 41.6708 76.3334C55.5349 76.3334 66.8092 64.9494 66.8092 50.9505C66.8092 44.6907 64.5334 38.9326 60.7927 34.5217L67.2277 28.0241C72.5903 34.1255 75.8863 42.155 75.8863 50.9505ZM90.9275 9.95766H84.2309C84.2309 9.40299 84.0216 8.87471 83.6031 8.4521C83.2107 8.05591 82.6875 7.84463 82.1644 7.81822V1.08295C82.1644 0.660339 81.9028 0.264132 81.5104 0.0792414C81.118 -0.0792364 80.6471 -7.16322e-06 80.3594 0.316948L73.1134 7.55407C72.9042 7.76538 72.7995 8.02953 72.7995 8.32007V16.2968L69.5036 19.6248C62.1268 12.9159 52.3697 8.84828 41.6708 8.84828C18.6773 8.84828 0 27.7336 0 50.9242C0 74.1148 18.7035 93 41.6708 93C64.6381 93 83.3415 74.1148 83.3415 50.9242C83.3415 40.042 79.2346 30.1371 72.5118 22.6623L75.8078 19.3342H83.7077C83.9954 19.3342 84.2571 19.2022 84.4663 19.0173L91.6861 11.8066C92 11.4896 92.0785 11.0406 91.9215 10.6444C91.7646 10.2482 91.3722 9.9841 90.9275 9.9841V9.95766Z" fill="white"></path>
</svg>
