<svg xmlns="http://www.w3.org/2000/svg" width="340" height="238" viewBox="0 0 340 238" fill="none"><path d="M195.33 3.45C195.33 1.56 193.59 0 191.45 0H137.16C130.72 0 125.53 4.62 125.53 10.34V36.87C125.53 40.8 125.76 44.69 126.15 48.55C126.34 50.31 128.01 51.69 130.03 51.69H195.33V3.45Z" fill="#BCB08A" fill-opacity="0.5"></path><path opacity="0.4" d="M272.26 48.54C272.65 44.68 272.88 40.79 272.88 36.86V10.34C272.88 4.62 267.69 0 261.25 0H206.96C204.82 0 203.08 1.55 203.08 3.45V51.68H268.38C270.4 51.68 272.06 50.34 272.26 48.54Z" fill="#BCB08A" fill-opacity="0.54"></path><path d="M203.09 58.5598V147.23C203.09 148.4 204.56 149.09 205.65 148.44C239.54 128.36 262.38 97.3798 270.02 62.6198C270.48 60.5198 268.62 58.5498 266.18 58.5498H203.09V58.5598Z" fill="#BCB08A" fill-opacity="0.5"></path><path d="M128.39 62.6296C136.03 97.3896 158.87 128.36 192.76 148.45C193.85 149.1 195.32 148.42 195.32 147.24V58.5596H132.23C129.83 58.5596 127.93 60.5196 128.39 62.6296Z" fill="#BCB08A" fill-opacity="0.5"></path><path d="M180.881 38.4804C179.601 38.4804 178.551 37.4404 178.551 36.1504V12.2704C178.551 10.9904 179.591 9.94043 180.881 9.94043C182.171 9.94043 183.211 10.9804 183.211 12.2704V36.1604C183.211 37.4404 182.171 38.4904 180.881 38.4904V38.4804Z" fill="#303030"></path><path d="M164.411 44.6296C163.641 44.6296 162.891 44.2496 162.441 43.5496L152.121 27.3296C151.431 26.2496 151.751 24.8096 152.841 24.1196C153.921 23.4296 155.361 23.7496 156.051 24.8396L166.371 41.0596C167.061 42.1396 166.741 43.5796 165.651 44.2696C165.261 44.5196 164.831 44.6296 164.411 44.6296Z" fill="#303030"></path><path d="M197.35 44.6301C196.92 44.6301 196.49 44.5101 196.11 44.2701C195.03 43.5801 194.71 42.1401 195.39 41.0601L205.71 24.8401C206.4 23.7601 207.84 23.4301 208.92 24.1201C210 24.8101 210.32 26.2501 209.64 27.3301L199.32 43.5501C198.88 44.2501 198.12 44.6301 197.35 44.6301Z" fill="#303030"></path><path d="M246.31 100.25C246.31 107.49 240.48 113.38 233.33 113.38C226.18 113.38 220.35 107.49 220.35 100.25C220.35 93.0101 226.18 87.1201 233.33 87.1201C240.49 87.1201 246.31 93.0101 246.31 100.25Z" fill="#303030"></path><path d="M229.08 122.69C219.09 119.92 211.33 112.1 208.46 109.2C200.43 101.07 189.7 85.8298 192.37 64.0698C192.53 62.7598 191.67 61.5398 190.36 61.3198H190.33C188.98 61.0898 187.67 62.0298 187.51 63.3898C183.49 89.6598 200.3 108.45 200.83 109.01C201.02 109.21 202.41 110.66 204.65 112.63C210.53 118.48 214.25 123.85 215.13 129.93C217.07 143.47 205.96 155.73 204.85 156.84C204.11 157.91 204.2 159.33 205.03 160.26C205.79 161.11 207.04 161.39 208.13 160.95C213.91 153.68 217.15 150.93 222.58 150.93H222.87C228.4 158.98 230.94 172.6 233.08 187.72C233.27 189.46 233.48 191.15 233.7 192.79C234 195.03 234.3 197.27 234.59 199.51C234.85 200.71 235.89 201.57 237.06 201.59C238.1 201.6 239.06 200.95 239.47 199.96C239.63 199.56 239.7 199.12 239.64 198.65L239.32 196.25C238.89 193.02 238.47 189.83 238.02 186.69C235.23 161.48 236.21 135.72 243.81 130.3C244.56 129.76 246.86 128.12 251.9 130.93C254.44 132.34 255.89 134.17 256.34 136.53C257.24 141.26 254.21 148.2 247.83 156.03C246.95 157.11 247.1 158.72 248.17 159.61C249.24 160.5 250.83 160.35 251.71 159.26C256.92 152.87 262.8 143.57 261.28 135.56C260.54 131.67 258.4 128.14 254.52 125.98C254.47 125.95 254.44 125.93 254.4 125.91C252.21 124.68 249.25 123.58 248.53 123.36C244.29 122.01 236.59 124.8 229.05 122.67L229.08 122.69Z" fill="#303030"></path><path d="M13.0404 235.11C59.4104 241.72 105.86 235.11 148.17 214.75C157.71 210.16 166.96 204.97 176.61 200.6C177.65 200.13 178.68 199.66 179.73 199.22C179.02 199.52 176.89 200.31 180.17 199.1C182.53 198.23 184.89 197.37 187.3 196.64C189.71 195.91 192.08 195.29 194.52 194.79C195.59 194.57 196.68 194.37 197.76 194.21C193.87 194.81 199.15 194.21 199.56 194.19C201.79 194.09 203.98 194.22 206.2 194.29C211.3 194.43 204.28 193.64 207.05 194.38C208.31 194.72 209.62 194.89 210.89 195.22C212.91 195.73 214.91 196.36 216.87 197.06C217.85 197.41 218.83 197.79 219.79 198.18C216.28 196.73 220.54 198.61 221.27 198.97C230.19 203.34 238.44 208.92 246.89 214.08C269.48 227.88 294.67 235.84 321.34 234.7C330.66 234.3 339.64 226.77 339.2 216.84C338.78 207.51 331.34 198.55 321.34 198.98C315.94 199.21 310.61 199.04 305.23 198.57C304.72 198.53 301.75 198.06 304.64 198.53C303.46 198.34 302.28 198.15 301.11 197.93C298.17 197.38 295.26 196.7 292.38 195.91C281.67 192.95 276.43 190.21 266.3 184.09C247.96 173.02 230.52 161.26 208.67 158.83C185.91 156.3 164.37 166.51 144.67 176.59C140.34 178.8 136.03 181.05 131.67 183.19C129.32 184.34 126.94 185.43 124.57 186.52C124.18 186.7 121.44 187.88 123.97 186.82C122.34 187.51 120.69 188.15 119.05 188.79C109.16 192.61 98.9604 195.66 88.6104 197.94C85.7304 198.57 82.8404 199.15 79.9404 199.66C78.7804 199.86 77.6204 200.06 76.4504 200.25C75.8004 200.35 71.0604 201 74.2004 200.61C68.3504 201.34 62.4804 201.83 56.5904 202.08C50.4104 202.34 44.2204 202.32 38.0404 202.02C35.1004 201.88 32.1604 201.68 29.2204 201.41C28.0504 201.3 26.8704 201.19 25.7004 201.06C25.0204 200.99 19.1404 200.21 22.5604 200.7C13.3504 199.39 2.92041 202.95 0.590413 213.17C-1.32959 221.61 3.17038 233.73 13.0604 235.14L13.0404 235.11Z" fill="url(#paint0_linear_1557_2876)"></path><path d="M128.191 87.1201C135.341 87.1201 141.171 93.0101 141.171 100.25C141.171 107.49 135.341 113.38 128.191 113.38C121.031 113.38 115.211 107.49 115.211 100.25C115.211 93.0101 121.041 87.1201 128.191 87.1201Z" fill="#303030"></path><path d="M112.951 123.38C112.241 123.61 109.271 124.7 107.081 125.93C107.041 125.95 107.011 125.97 106.961 126C103.081 128.16 100.941 131.69 100.201 135.58C98.6808 143.59 104.561 152.89 109.771 159.28C110.651 160.36 112.241 160.52 113.311 159.63C114.381 158.74 114.541 157.13 113.651 156.05C107.271 148.21 104.241 141.28 105.141 136.55C105.591 134.19 107.041 132.35 109.581 130.95C114.621 128.14 116.911 129.79 117.671 130.32C125.271 135.74 126.261 161.5 123.461 186.71C123.011 189.85 122.591 193.04 122.161 196.27L121.841 198.67C121.781 199.13 121.851 199.58 122.011 199.98C122.421 200.98 123.381 201.63 124.421 201.61C125.591 201.59 126.631 200.74 126.891 199.53C127.191 197.29 127.491 195.05 127.781 192.81C128.001 191.18 128.201 189.48 128.401 187.75C130.541 172.62 133.081 159 138.611 150.95H138.901C144.331 150.95 147.571 153.7 153.351 160.97C154.441 161.41 155.691 161.13 156.451 160.28C157.281 159.35 157.371 157.93 156.631 156.86C155.521 155.75 144.401 143.49 146.351 129.95C147.221 123.87 150.951 118.49 156.831 112.65C159.071 110.68 160.461 109.23 160.651 109.03C161.181 108.47 177.991 89.6798 173.971 63.4098C173.801 62.0498 172.501 61.1098 171.151 61.3298H171.121C169.811 61.5498 168.951 62.7698 169.111 64.0798C171.781 85.8398 161.051 101.07 153.021 109.21C150.161 112.11 142.391 119.93 132.401 122.7C124.861 124.84 117.171 122.04 112.921 123.39L112.951 123.38Z" fill="#303030"></path><defs><linearGradient id="paint0_linear_1557_2876" x1="17.5704" y1="198" x2="321.42" y2="198" gradientUnits="userSpaceOnUse"><stop stop-color="#B19C73"></stop><stop offset="1" stop-color="#ECDAA0"></stop></linearGradient></defs></svg>