<svg xmlns="http://www.w3.org/2000/svg" width="365" height="239" viewBox="0 0 365 239" fill="none"><path d="M138.67 200.47C138.11 200.33 137.79 200.26 137.64 200.23C137.97 200.31 138.3 200.381 138.63 200.461C138.64 200.461 138.65 200.461 138.67 200.461V200.47Z" fill="url(#paint0_linear_1557_2867)"></path><path d="M346.66 201.46C336.38 202.77 325.91 203 315.61 201.75C315.21 201.68 313.51 201.42 313.04 201.34C311.86 201.14 310.69 200.91 309.52 200.68C306.89 200.14 304.27 199.53 301.67 198.83C299.36 198.21 297.07 197.52 294.81 196.76C293.68 196.38 292.55 195.99 291.43 195.58C291.13 195.47 287.46 194.04 288.34 194.43C268.01 185.85 249.68 173.01 226.76 172.69C204.78 172.38 185.44 183.52 166.32 192.89C164.1 193.98 161.87 195.04 159.62 196.06C159.17 196.26 157.82 196.81 157.44 196.97C156.83 197.21 156.22 197.46 155.6 197.68C153.79 198.34 151.95 198.94 150.09 199.43C149.15 199.68 148.19 199.91 147.24 200.12C146.07 200.37 144.59 200.51 144.69 200.51C143.03 200.61 141.38 200.69 139.7 200.61C139.4 200.6 139.03 200.54 138.68 200.48C138.93 200.54 139.2 200.61 139.55 200.7C139.25 200.62 138.95 200.55 138.64 200.48C137.92 200.35 137.31 200.18 137.65 200.25C137.38 200.19 137.12 200.12 136.86 200.07C136.66 200.03 136.44 199.95 136.24 199.87C135.8 199.64 135.37 199.4 134.94 199.17C134.09 198.23 133.51 197.38 133.68 197.71C133.48 197.37 133.28 197.04 133.07 196.72C133.04 196.68 133.02 196.65 133 196.61C132.98 196.49 132.97 196.37 132.94 196.21C132.77 195.32 132.57 193.89 132.18 193.06C132 188.37 132.02 183.76 132.27 179.07C132.85 168 133.35 156.68 129.88 145.98C127.53 138.75 120.69 132.51 112.66 132.87C104.99 133.21 97.2998 138.13 95.4398 145.98C94.8598 148.43 94.1998 150.84 93.3898 153.22C93.0198 154.29 92.5698 155.34 92.2198 156.42C93.5598 152.3 92.2398 156.32 91.8398 157.14C89.8698 161.25 87.4598 165.06 84.9098 168.83C84.7898 169.01 84.6898 169.15 84.6098 169.28C84.5398 169.36 84.4698 169.44 84.3898 169.54C83.6498 170.41 82.9298 171.28 82.1698 172.13C80.4998 174 78.7498 175.8 76.9298 177.52C75.2698 179.09 73.4798 180.5 71.7698 182.02C74.9698 179.18 71.6598 182.08 71.0098 182.54C70.0798 183.2 69.1298 183.84 68.1698 184.47C64.2998 187 60.2498 189.09 56.0798 191.07C55.8698 191.15 55.6398 191.24 55.3698 191.35C54.2998 191.75 53.2298 192.14 52.1498 192.5C49.7798 193.29 47.3698 193.97 44.9298 194.55C43.8298 194.81 42.7198 195.05 41.5998 195.27C41.3398 195.32 41.0698 195.36 40.8098 195.41C39.8398 195.21 34.8998 195.98 34.1998 196.01C31.9298 196.09 29.6598 196.06 27.3898 195.93C27.2798 195.93 25.6298 195.8 24.4598 195.7C23.8498 195.6 23.2398 195.5 22.6398 195.38C13.4798 193.7 2.9398 197.89 0.669796 207.85C-1.3202 216.6 3.31983 228.02 13.1398 229.82C43.7398 235.44 75.5498 225.75 98.6098 205.96C98.8398 206.69 99.0798 207.42 99.3398 208.13C104 220.57 113.36 229.91 126.06 234.08C136.74 237.59 148.88 236.71 159.59 233.86C170.29 231.01 180.43 225.73 190.28 220.76C194.69 218.54 199.09 216.29 203.58 214.24C203.47 214.29 205.05 213.6 205.95 213.2C206.87 212.84 208.36 212.25 208.27 212.28C210.76 211.36 213.29 210.52 215.85 209.84C216.87 209.57 217.89 209.32 218.92 209.09C219.33 209 221.84 208.65 222.05 208.57C223.62 208.45 225.2 208.37 226.78 208.39C228.16 208.41 229.53 208.55 230.9 208.62C230.98 208.62 231.04 208.62 231.11 208.62C231.33 208.69 231.6 208.76 231.91 208.85C234.59 209.58 237.28 210.16 239.91 211.05C240.97 211.41 242 211.82 243.05 212.18C243.36 212.29 243.63 212.38 243.86 212.46C243.96 212.51 244.08 212.56 244.22 212.63C246.53 213.7 248.84 214.75 251.13 215.87C256.23 218.37 261.26 221.02 266.4 223.44C291.43 235.23 319.07 240.69 346.67 237.16C355.9 235.98 365 229.79 364.53 219.3C364.14 210.64 356.6 200.17 346.67 201.44L346.66 201.46ZM23.6498 195.62C23.4198 195.6 23.2798 195.58 23.2798 195.57L23.6498 195.62ZM56.2498 191C57.1098 190.65 57.1898 190.57 56.2498 191V191ZM134.43 198.89C134.43 198.89 134.38 198.86 134.35 198.84C134.38 198.86 134.41 198.88 134.44 198.89H134.43ZM134.34 198.83C133.14 198.18 133.69 198.43 134.34 198.83V198.83ZM136.19 199.84C134.97 199.2 135.48 199.55 136.19 199.84V199.84ZM136.56 200.03C136.77 200.14 137 200.26 137.27 200.42C137.03 200.29 136.79 200.16 136.56 200.03Z" fill="url(#paint1_linear_1557_2867)"></path><path d="M194.659 137.3C194.659 144.54 188.829 150.43 181.679 150.43C174.529 150.43 168.699 144.54 168.699 137.3C168.699 130.06 174.529 124.17 181.679 124.17C188.839 124.17 194.659 130.06 194.659 137.3Z" fill="#303030"></path><path d="M177.439 159.74C167.449 156.97 159.689 149.15 156.819 146.25C148.789 138.12 138.059 122.88 140.729 101.12C140.889 99.8096 140.029 98.5896 138.719 98.3696H138.689C137.339 98.1396 136.029 99.0796 135.869 100.44C131.849 126.71 148.659 145.5 149.189 146.06C149.379 146.26 150.769 147.71 153.009 149.68C158.889 155.53 162.609 160.9 163.489 166.98C165.429 180.52 154.319 192.78 153.209 193.89C152.469 194.96 152.559 196.38 153.389 197.31C154.149 198.16 155.399 198.44 156.489 198C162.269 190.73 165.509 187.98 170.939 187.98H171.229C176.759 196.03 179.299 209.65 181.439 224.77C181.629 226.51 181.84 228.2 182.06 229.84C182.36 232.08 182.659 234.32 182.949 236.56C183.209 237.76 184.25 238.62 185.42 238.64C186.46 238.65 187.419 238 187.829 237.01C187.989 236.61 188.059 236.17 187.999 235.7L187.68 233.3C187.25 230.07 186.829 226.88 186.379 223.74C183.589 198.53 184.57 172.77 192.17 167.35C192.92 166.81 195.219 165.17 200.259 167.98C202.799 169.39 204.249 171.22 204.699 173.58C205.599 178.31 202.569 185.25 196.189 193.08C195.309 194.16 195.459 195.77 196.529 196.66C197.599 197.55 199.189 197.4 200.069 196.31C205.279 189.92 211.159 180.62 209.639 172.61C208.899 168.72 206.759 165.19 202.879 163.03C202.829 163 202.799 162.98 202.759 162.96C200.569 161.73 197.609 160.63 196.889 160.41C192.649 159.06 184.95 161.85 177.41 159.72L177.439 159.74Z" fill="#303030"></path><path d="M133.41 39.15C133.41 40.42 133.35 41.7 133.22 42.96C133.09 44.23 132.91 45.4899 132.66 46.7399C132.41 47.9899 132.1 49.2299 131.73 50.45C131.36 51.67 130.93 52.8699 130.44 54.0499C129.95 55.2299 129.41 56.3799 128.8 57.4999C128.2 58.6199 127.54 59.72 126.83 60.78C126.12 61.84 125.36 62.8599 124.55 63.8499C123.74 64.8399 122.88 65.7799 121.98 66.6799C121.08 67.5799 120.13 68.4399 119.15 69.2499C118.17 70.0599 117.14 70.82 116.08 71.53C115.02 72.24 113.93 72.8899 112.8 73.4899C111.67 74.0899 110.52 74.6399 109.34 75.1199C108.16 75.6099 106.96 76.0399 105.74 76.4099C104.52 76.7799 103.28 77.09 102.03 77.34C100.78 77.59 99.5199 77.78 98.2499 77.9C96.9799 78.02 95.7099 78.09 94.4299 78.09C93.1499 78.09 91.8799 78.03 90.6099 77.9C89.3399 77.78 88.08 77.59 86.83 77.34C85.58 77.09 84.3399 76.7799 83.1199 76.4099C81.8999 76.0399 80.7 75.6099 79.52 75.1199C78.34 74.6299 77.1899 74.0899 76.0599 73.4899C74.9299 72.8899 73.84 72.23 72.78 71.53C71.72 70.82 70.69 70.0599 69.71 69.2499C68.73 68.4399 67.7799 67.5899 66.8799 66.6799C65.9799 65.7799 65.1199 64.8399 64.3099 63.8499C63.4999 62.8599 62.74 61.84 62.03 60.78C61.32 59.72 60.6699 58.6299 60.0599 57.4999C59.4599 56.3799 58.9099 55.2199 58.4299 54.0499C57.9399 52.8699 57.51 51.67 57.14 50.45C56.77 49.2299 56.46 47.9999 56.21 46.7399C55.96 45.4899 55.77 44.23 55.65 42.96C55.52 41.69 55.46 40.42 55.46 39.15C55.46 37.88 55.52 36.6 55.65 35.34C55.78 34.07 55.96 32.8099 56.21 31.5599C56.46 30.3099 56.77 29.0699 57.14 27.8499C57.51 26.6299 57.9399 25.4299 58.4299 24.2499C58.9199 23.0699 59.4599 21.9199 60.0599 20.7999C60.6599 19.6799 61.32 18.58 62.03 17.52C62.74 16.46 63.4999 15.44 64.3099 14.45C65.1199 13.46 65.9799 12.5199 66.8799 11.6199C67.7799 10.7199 68.73 9.85993 69.71 9.04993C70.7 8.23993 71.72 7.47996 72.78 6.76996C73.84 6.05996 74.9299 5.40994 76.0599 4.80994C77.1899 4.20994 78.34 3.65993 79.52 3.17993C80.7 2.68993 81.8999 2.25995 83.1199 1.88995C84.3399 1.51995 85.58 1.20996 86.83 0.959961C88.08 0.709961 89.3399 0.519963 90.6099 0.399963C91.8799 0.279963 93.1499 0.209961 94.4299 0.209961C95.7099 0.209961 96.9799 0.269963 98.2499 0.399963C99.5199 0.529963 100.78 0.709961 102.03 0.959961C103.28 1.20996 104.52 1.51995 105.74 1.88995C106.96 2.25995 108.16 2.68993 109.34 3.17993C110.52 3.66993 111.67 4.20994 112.8 4.80994C113.93 5.40994 115.02 6.06996 116.08 6.76996C117.14 7.47996 118.17 8.23993 119.15 9.04993C120.13 9.85993 121.08 10.7099 121.98 11.6199C122.88 12.5199 123.74 13.46 124.55 14.45C125.36 15.44 126.12 16.46 126.83 17.52C127.54 18.58 128.19 19.6699 128.8 20.7999C129.4 21.9199 129.95 23.0799 130.44 24.2499C130.93 25.4299 131.36 26.6299 131.73 27.8499C132.1 29.0699 132.41 30.2999 132.66 31.5599C132.91 32.8099 133.1 34.07 133.22 35.34C133.34 36.61 133.41 37.88 133.41 39.15Z" fill="#BCB08A" fill-opacity="0.5"></path><path d="M129.94 81.7203C137.84 75.4603 142.38 66.1103 142.38 56.0503C142.38 47.0003 138.58 38.2803 131.96 32.1003C125.24 25.8403 116.47 22.7404 107.27 23.3804C91.6698 24.4604 78.6497 36.9603 76.9997 52.4703C75.7997 63.7503 80.3598 74.6704 89.2098 81.6904C90.7998 82.9504 91.8897 84.6404 92.3497 86.5304L90.7997 86.6404C89.7397 86.7104 88.9398 87.6404 89.0098 88.6904C89.0798 89.7004 89.9197 90.4803 90.9297 90.4803L92.5898 90.3703V92.4303L90.7997 92.5503C90.2897 92.5903 89.8197 92.8204 89.4797 93.2104C89.1397 93.6004 88.9798 94.0903 89.0098 94.6103C89.0798 95.6203 89.9197 96.4004 90.9297 96.4004L92.5898 96.2903V98.3503L90.7997 98.4703C89.7397 98.5403 88.9398 99.4704 89.0098 100.52C89.0798 101.53 89.9197 102.31 90.9297 102.31L92.5898 102.2V105.73C92.5898 106.79 93.4498 107.66 94.5198 107.66H97.0597C98.4897 110.83 103.38 112.98 109.36 112.98C115.34 112.98 120.23 110.83 121.66 107.66H124.66C125.72 107.66 126.59 106.8 126.59 105.73V99.8503L128.38 99.7303C128.89 99.6903 129.36 99.4604 129.7 99.0704C130.04 98.6804 130.2 98.1903 130.17 97.6703C130.1 96.6003 129.17 95.8204 128.11 95.8804L126.58 95.9903V93.9303L128.37 93.8103C128.88 93.7703 129.35 93.5404 129.69 93.1504C130.03 92.7604 130.19 92.2703 130.16 91.7504C130.09 90.6904 129.21 89.9104 128.1 89.9604L126.57 90.0704V88.5403C126.57 88.3703 126.57 88.1904 126.59 88.0004L128.36 87.8804C128.87 87.8404 129.34 87.6103 129.68 87.2203C130.02 86.8303 130.18 86.3404 130.15 85.8204C130.08 84.7504 129.16 83.9804 128.09 84.0304L127.83 84.0503C128.37 83.1603 129.08 82.3604 129.91 81.7004L129.94 81.7203ZM109.36 109.14C106.37 109.14 103.93 108.51 102.36 107.68H116.36C114.79 108.51 112.34 109.14 109.36 109.14ZM122.73 100.13V103.82H96.4397V101.95L122.73 100.13ZM122.73 94.2104V96.2704L96.4397 98.0904V96.0304L122.73 94.2104ZM122.73 88.2903C122.73 88.3803 122.73 88.4704 122.73 88.5603V90.3503L96.4397 92.1703V90.1103L122.73 88.2903ZM96.2197 86.2604C95.6597 83.2804 94.0397 80.6203 91.5997 78.6803C83.7897 72.4803 79.7597 62.8404 80.8197 52.8804C82.2797 39.2104 93.7498 28.1803 107.52 27.2303C108.21 27.1803 108.9 27.1603 109.59 27.1603C116.96 27.1603 123.9 29.8803 129.32 34.9303C135.16 40.3803 138.52 48.0804 138.52 56.0604C138.52 64.9304 134.52 73.1904 127.54 78.7104C125.66 80.2004 124.26 82.1504 123.47 84.3904L96.2197 86.2804V86.2604Z" fill="#303030"></path><defs><linearGradient id="paint0_linear_1557_2867" x1="137.69" y1="200.35" x2="138.62" y2="200.35" gradientUnits="userSpaceOnUse"><stop stop-color="#B19C73"></stop><stop offset="1" stop-color="#ECDAA0"></stop></linearGradient><linearGradient id="paint1_linear_1557_2867" x1="17.5798" y1="185.55" x2="346.86" y2="185.55" gradientUnits="userSpaceOnUse"><stop stop-color="#B19C73"></stop><stop offset="1" stop-color="#ECDAA0"></stop></linearGradient></defs></svg>