<?xml version="1.0" encoding="UTF-8"?>
<svg xmlns="http://www.w3.org/2000/svg" width="944" height="1162" viewBox="0 0 944 1162" fill="none">
  <path opacity="0.43" d="M638.505 608.833C638.505 608.833 471.279 926.172 325.701 1059.7C180.124 1193.23 -4.22623e-07 1156.68 -4.22623e-07 1156.68C3.96718 1157.31 12.6668 1152.69 16.493 1151.37C117.042 1116.95 191.391 1040.87 254.192 961.784C410.472 764.97 507.507 533.277 646.368 326.049C701.859 243.25 762.796 163.068 836.441 94.0805C867.05 65.408 900.238 38.4585 938.893 20.467C970.58 5.72136 1002.42 -0.961265 1036.54 0.123938L1036.54 0.000158412L1318.65 0.000135079C1318.67 5.26442 1434.4 4.16968 1434.4 4.16968C1434.4 4.16968 1441.21 86.979 1442.96 118.983C1319.76 285.002 1094.65 608.823 1094.65 608.823C1094.65 608.823 927.424 926.172 781.847 1059.69C636.259 1193.23 456.135 1156.68 456.135 1156.68C460.102 1157.31 468.802 1152.69 472.628 1151.37C573.177 1116.96 647.526 1040.87 710.317 961.793C866.597 764.98 963.632 533.287 1102.49 326.059C1147.74 258.528 1196.63 192.749 1253.07 133.357C1241.25 120.601 1229.47 108.664 1217.81 97.7455C1053.03 251.998 865.651 608.842 865.651 608.842C865.651 608.842 698.425 926.191 552.848 1059.71C407.27 1193.23 227.146 1156.68 227.146 1156.68C231.113 1157.31 239.813 1152.69 243.639 1151.37C344.188 1116.96 418.537 1040.87 481.328 961.794C637.608 764.98 734.643 533.287 873.505 326.059C928.995 243.259 989.932 163.077 1063.58 94.09C1085.36 73.6899 1108.46 54.1752 1133.9 38.1254C1123.71 33.6894 1113.8 30.6526 1104.24 29.1581C928.522 56.5359 638.494 608.842 638.494 608.842L638.505 608.833Z" fill="url(#paint0_diamond_1436_2198)" fill-opacity="0.2"></path>
  <defs>
    <radialGradient id="paint0_diamond_1436_2198" cx="0" cy="0" r="1" gradientUnits="userSpaceOnUse" gradientTransform="translate(721.473 580.627) rotate(180) scale(721.473 682.094)">
      <stop stop-color="#303030"></stop>
      <stop offset="1" stop-color="white" stop-opacity="0"></stop>
    </radialGradient>
  </defs>
</svg>
