<svg xmlns="http://www.w3.org/2000/svg" width="286" height="219" viewBox="0 0 286 219" fill="none"><path d="M249.26 92.4002C247.82 90.1802 245.77 87.9502 243.12 86.5402C241 85.5002 239.64 83.8002 238.42 81.8002C234.56 75.4202 236.83 67.0502 243.27 63.2702C250.85 59.0402 253.27 49.6302 248.88 42.2902L243.8 33.5402C239.48 26.2002 230.01 23.6102 222.51 27.9102C215.84 31.4702 207.28 29.1002 203.42 22.7902C202.21 20.7102 201.53 18.4902 201.68 16.2702C201.91 13.3802 201 10.6402 199.63 8.41016C196.83 3.81016 191.75 0.700195 186.15 0.700195H175.47C169.94 0.850195 164.86 3.81016 162.06 8.41016C160.62 10.6302 159.79 13.3802 159.94 16.2702C160.09 18.4902 159.41 20.7202 158.2 22.7902C154.34 29.0902 145.78 31.4602 139.18 27.9102C131.6 23.6102 122.21 26.2002 117.81 33.5402L112.73 42.2902C108.41 49.6302 110.83 59.0402 118.33 63.2702C124.77 67.0502 127.04 75.4302 123.25 81.8002C121.96 83.8002 120.6 85.5102 118.48 86.5402C115.9 87.9502 113.63 90.1702 112.42 92.4002C109.62 97.0002 109.77 102.78 112.57 107.6L117.8 116.5C120.6 121.24 125.83 124.21 131.28 124.21C133.86 124.21 136.89 123.47 139.31 121.99C141.2 120.73 143.48 120.28 145.98 120.28C153.48 120.28 159.77 126.43 159.92 133.77C159.92 142.3 166.89 148.97 175.68 148.97H185.99C194.7 148.97 201.67 142.3 201.67 133.77C201.9 126.43 208.19 120.28 215.69 120.28C218.11 120.28 220.39 120.72 222.36 121.99C224.78 123.47 227.74 124.21 230.39 124.21C235.77 124.21 241 121.24 243.8 116.5L249.11 107.6C251.84 102.63 252.06 97.0002 249.26 92.4002ZM180.98 102.44C165.3 102.44 152.61 90.2202 152.61 74.8802C152.61 59.5402 165.29 47.2202 180.98 47.2202C196.67 47.2202 209.04 59.5302 209.04 74.8802C209.04 90.2302 196.66 102.44 180.98 102.44Z" fill="#BCB08A" fill-opacity="0.5"></path><path d="M128.11 93.0101C128.97 92.1101 130.37 92.0601 131.29 92.8901C132.4 93.9001 133.46 94.8901 134.46 95.8801C136.76 97.9201 140.16 100.67 143.98 102.89C146.78 104.46 150.75 106.31 155.75 107.54C160.51 108.71 164.92 109.5 168.04 109.42C172.64 109.31 175.6 111.08 176.6 111.51C180.13 113.47 182.47 116.86 183.14 120.4C184.52 127.67 179.17 136.14 174.43 141.95C173.63 142.94 172.18 143.08 171.21 142.27C170.24 141.46 170.1 140 170.9 139.01C176.71 131.88 179.46 125.57 178.64 121.26C178.23 119.11 176.91 117.44 174.6 116.16C170.02 113.61 167.93 115.1 167.24 115.59C160.32 120.52 159.43 143.95 161.97 166.89C162.37 169.75 162.76 172.65 163.15 175.59L163.44 177.78C163.49 178.2 163.43 178.6 163.28 178.97C162.59 180 161.32 180.4 160.3 179.98C159.52 179.66 158.97 178.89 158.86 178C158.66 176.51 157.64 169.42 157.47 167.84C155.53 154.08 153.21 141.69 148.18 134.36C146.83 134.34 145.62 134.5 144.48 134.87C141.36 135.89 139.04 137.93 137.43 139.74C135.44 138.24 133.69 137.27 133.54 137.22C145.38 119.91 142.81 110.66 131.58 99.4901C129.54 97.7101 128.28 96.3901 128.11 96.2101C127.25 95.3101 127.25 93.8901 128.11 92.9901V93.0101Z" fill="#303030"></path><path d="M157.5 79.4102C164.08 79.4102 169.43 84.8302 169.43 91.4802C169.43 98.1302 164.07 103.55 157.5 103.55C150.93 103.55 145.56 98.1302 145.56 91.4802C145.56 84.8302 150.92 79.4102 157.5 79.4102Z" fill="#303030"></path><path d="M117.719 123.2V87.6302L143.859 76.9702C144.719 76.6202 145.289 75.7702 145.289 74.8202C145.289 73.8702 144.719 73.0202 143.859 72.6702L116.299 61.4202C115.599 61.1302 114.789 61.2203 114.159 61.6503C113.529 62.0803 113.149 62.8002 113.149 63.5702V123.2C113.219 124.38 114.129 125.32 115.199 125.42C116.429 125.54 117.619 124.56 117.719 123.2ZM117.729 67.0102L136.889 74.8303L117.729 82.6503V67.0102Z" fill="#303030"></path><path d="M282.74 159.221C276.36 149.321 261.75 143.581 251.08 150.921C248.12 152.961 245.09 154.881 241.92 156.581C240.33 157.431 238.7 158.241 237.04 158.981C236.73 159.081 236.33 159.201 235.83 159.351C232.46 160.401 229.15 161.301 225.71 162.131C225.2 162.251 224.81 162.351 224.49 162.431C222.06 162.691 219.61 162.811 217.18 162.821C215.75 162.821 214.32 162.791 212.9 162.721C213.05 162.721 210.8 162.511 209.49 162.411C208.17 162.171 205.85 161.781 206.02 161.811C204.58 161.501 203.14 161.171 201.71 160.801C198.12 159.871 194.66 158.651 191.16 157.441C190.59 157.241 190.15 157.101 189.81 156.991C189.49 156.821 189.06 156.601 188.5 156.321C186.51 155.331 184.49 154.391 182.52 153.351C158.65 140.721 130.06 107.551 101.05 125.211C91.3897 131.091 84.9497 141.231 79.4897 150.841C77.5197 154.301 75.6197 157.791 73.6597 161.251C64.8997 153.591 52.8597 150.181 41.3997 153.291C27.3097 157.111 16.3997 168.061 7.36975 178.971C-0.340253 188.281 -2.43025 202.701 7.36975 211.701C15.8897 219.521 31.8497 221.661 40.0997 211.701C40.5397 211.171 44.5897 206.681 48.0797 202.971C51.1297 206.961 54.5997 210.621 58.9097 213.231C69.2097 219.471 81.8697 218.401 91.5197 211.531C101.3 204.571 107.97 194.641 113.82 184.321C116.18 180.151 118.43 175.911 120.86 171.771C121.33 170.981 121.8 170.191 122.28 169.401C123.97 170.401 125.64 171.451 127.28 172.521C139.83 180.691 151.47 189.941 165.14 196.301C182.65 204.451 201.89 210.211 221.42 208.981C240.43 207.781 258.7 201.701 274.42 190.901C284.38 184.061 289.84 170.271 282.72 159.241L282.74 159.221Z" fill="url(#paint0_linear_1557_2857)"></path><path d="M107.37 80.5199C106.51 79.6199 105.11 79.5699 104.19 80.3999C103.08 81.4099 102.02 82.3999 101.02 83.3899C98.72 85.4299 95.32 88.1799 91.5 90.3999C88.7 91.9699 84.73 93.8199 79.73 95.0499C74.97 96.2199 70.56 97.0099 67.44 96.9299C62.84 96.8199 59.88 98.5899 58.88 99.0199C55.35 100.98 53.01 104.37 52.34 107.91C50.96 115.18 56.31 123.65 61.05 129.46C61.85 130.45 63.3 130.59 64.27 129.78C65.24 128.97 65.38 127.51 64.58 126.52C58.77 119.39 56.02 113.08 56.84 108.77C57.25 106.62 58.57 104.95 60.88 103.67C65.46 101.12 67.55 102.61 68.24 103.1C75.16 108.03 76.05 131.46 73.51 154.4C73.11 157.26 72.72 160.16 72.33 163.1L72.04 165.29C71.99 165.71 72.05 166.11 72.2 166.48C72.89 167.51 74.16 167.91 75.18 167.49C75.96 167.17 76.51 166.4 76.62 165.51C76.82 164.02 77.84 156.93 78.01 155.35C79.95 141.59 82.27 129.2 87.3 121.87C88.65 121.85 89.86 122.01 91 122.38C94.12 123.4 96.44 125.44 98.05 127.25C100.04 125.75 101.79 124.78 101.94 124.73C90.1 107.42 92.67 98.1699 103.9 86.9999C105.94 85.2199 107.2 83.8998 107.37 83.7198C108.23 82.8198 108.23 81.3999 107.37 80.4999V80.5199Z" fill="#303030"></path><path d="M89.9198 78.9899C89.9198 85.6399 84.5598 91.0599 77.9798 91.0599C71.3998 91.0599 66.0498 85.6399 66.0498 78.9899C66.0498 72.3399 71.4098 66.9199 77.9798 66.9199C84.5498 66.9199 89.9198 72.3399 89.9198 78.9899Z" fill="#303030"></path><defs><linearGradient id="paint0_linear_1557_2857" x1="22.2597" y1="169.261" x2="263.88" y2="169.261" gradientUnits="userSpaceOnUse"><stop stop-color="#B19C73"></stop><stop offset="1" stop-color="#ECDAA0"></stop></linearGradient></defs></svg>