<?xml version="1.0" encoding="UTF-8"?>
<svg xmlns="http://www.w3.org/2000/svg" width="83" height="84" viewBox="0 0 83 84" fill="none">
  <path id="Vector" d="M51.2291 71.7641C48.5836 74.4415 45.493 76.5183 42.0563 77.9196C38.7432 79.2708 35.2323 79.9714 31.6226 79.9714C28.0128 79.9714 24.5019 79.2708 21.1889 77.9196C17.7522 76.5183 14.6616 74.4415 12.0161 71.7641C9.37057 69.0867 7.31844 65.9589 5.93387 62.4808C4.59875 59.1278 3.90646 55.5746 3.90646 51.9213C3.90646 48.2681 4.59875 44.7149 5.93387 41.3619C7.31844 37.8838 9.37057 34.756 12.0161 32.0787L26.9744 16.9402L36.7653 26.849L21.807 41.9875C16.3923 47.4674 16.3923 56.3503 21.807 61.8052C27.2216 67.2851 35.9988 67.2851 41.3887 61.8052L56.347 46.6667L66.1379 56.5755L51.1796 71.714L51.2291 71.7641ZM82.1099 44.4146L80.5276 42.8133L80.2061 42.488L68.3631 30.5022L67.6214 29.7516L38.669 59.0527C34.812 62.9562 28.532 62.9562 24.675 59.0527C20.818 55.1492 20.818 48.7936 24.675 44.8901L39.6333 29.7516L42.4272 26.9241L53.6273 15.5889L53.1576 15.1135L39.3861 1.17605L38.224 0L9.27167 29.3012C-3.09056 41.8124 -3.09056 62.1055 9.27167 74.6166C21.6339 87.1278 41.6854 87.1278 54.0477 74.6166L83 45.3155L82.1099 44.4146Z" fill="white"></path>
</svg>
