<?xml version="1.0" encoding="UTF-8"?>
<svg xmlns="http://www.w3.org/2000/svg" width="67" height="67" viewBox="0 0 67 67" fill="none">
  <path d="M34.3212 26.5718H22.8197C22.8169 28.3746 22.8113 30.214 22.8057 31.9521H34.3099C34.3155 30.1915 34.3212 28.3549 34.324 26.5718H34.3212Z" fill="#303030"></path>
  <path d="M22.8057 39.0732C24.6536 40.4957 26.7127 41.7689 27.3831 41.8929C28.0817 41.7689 30.231 40.3633 32.0423 38.845C32.6564 38.3295 33.5493 38.3267 34.1662 38.8365C34.2141 38.876 34.2648 38.9154 34.3127 38.9549C34.3155 37.8619 34.3212 36.5154 34.3268 35.0225H22.8226C22.8169 36.6478 22.8113 38.0534 22.8085 39.0732H22.8057Z" fill="#303030"></path>
  <path d="M33.4986 0C14.9972 0 0 14.9972 0 33.4986C0 52 14.9972 66.9972 33.4986 66.9972C52 66.9972 66.9972 52 66.9972 33.4986C66.9972 14.9972 52 0 33.4986 0ZM44.5268 56.8704C44.5268 56.8704 44.5099 56.8592 44.5042 56.8535C42.8479 58.1268 40.5972 59.6028 39.0704 59.6028H39.0507C37.5465 59.5915 35.2901 58.1099 33.6254 56.831C31.9887 58.1014 29.507 59.7972 27.9014 59.8028H27.893C26.3296 59.8028 23.7972 58.1634 21.969 56.8056C21.693 56.9944 21.3887 57.1972 21.0704 57.4C20.5634 57.7239 19.9099 57.7578 19.3831 57.462C19.3718 57.4563 19.3606 57.4479 19.3493 57.4423C18.2535 56.8225 18.2141 55.2732 19.2789 54.6C19.8592 54.2338 20.4563 53.8282 21.0254 53.4113C21.6282 52.969 22.4507 52.9887 23.0394 53.4507C24.9549 54.9606 27.1915 56.3577 27.8958 56.4873C28.5944 56.3634 30.7465 54.9577 32.5577 53.4366C33.169 52.9239 34.0507 52.9127 34.6648 53.4197C36.3746 54.8338 38.4085 56.1521 39.0789 56.2845C39.7437 56.1606 41.7408 54.8704 43.4225 53.4789C44.0282 52.9775 44.8986 52.9606 45.5155 53.4507C45.8986 53.7549 46.2958 54.1099 46.662 54.493C47.9972 55.8817 46.0789 58.0254 44.5296 56.8789L44.5268 56.8704ZM56.307 49.7268C56.0085 49.8141 55.7831 49.8366 55.693 49.7493C54.0479 50.8873 51.6648 52.3268 50.138 52.3408H50.1183C48.5859 52.3408 46.231 50.8394 44.5014 49.5577C42.8366 50.8338 40.569 52.3127 39.0507 52.307C37.5465 52.2958 35.2901 50.8141 33.6254 49.5352C31.9887 50.8056 29.507 52.5014 27.9014 52.507C26.3296 52.5155 23.8 50.8704 21.969 49.5099C20.2225 50.7042 17.4901 52.3437 15.7577 52.2563C14.369 52.1859 12.3493 50.831 10.8085 49.6197C10.7437 49.6789 10.0648 49.0225 9.4338 48.2986C8.91831 47.707 8.97183 46.8197 9.52676 46.262C9.53521 46.2535 9.54085 46.2479 9.5493 46.2394C10.1606 45.6225 11.1493 45.5803 11.8085 46.1465C13.4113 47.5183 15.3268 48.8141 15.9408 48.9408C16.6423 48.907 19.0028 47.5972 21.0141 46.1183C21.6197 45.6732 22.4423 45.6789 23.0338 46.1437C24.9493 47.6535 27.1915 49.0535 27.8958 49.1831C28.5944 49.0592 30.7465 47.6535 32.5577 46.1324C33.169 45.6197 34.0507 45.6085 34.6648 46.1155C36.3746 47.5296 38.4085 48.8479 39.0789 48.9803C39.738 48.8563 41.7803 47.538 43.431 46.1662C44.031 45.6676 44.8901 45.6423 45.4986 46.1296C47.3127 47.5775 49.4648 48.9155 50.1296 49.0169C50.7859 48.9465 53.0648 47.6141 54.9324 46.2028C55.293 45.9296 55.7521 45.8169 56.1972 45.8901C56.6451 45.9634 57.0423 46.2141 57.2986 46.5887C58.1127 47.7099 57.6366 49.3352 56.307 49.7211V49.7268ZM58.6789 44.5944C57.2648 43.9972 56.1831 43.1549 55.4507 42.4535C53.8056 43.5916 51.4225 45.031 49.8958 45.0451H49.8789C48.3465 45.0451 45.9916 43.5437 44.262 42.262C42.6 43.538 40.3296 45.0282 38.8113 45.0113C37.307 45 35.0507 43.5183 33.3859 42.2394C31.7493 43.5099 29.2676 45.2056 27.662 45.2113H27.6535C26.1493 45.2113 23.7549 43.6986 21.9493 42.3746C21.7803 42.431 21.6 42.4648 21.4141 42.4648H21.4085C21.3944 42.4648 21.3775 42.4648 21.3634 42.4648C19.6197 43.6254 17.138 45.0394 15.5211 44.9634C14.1324 44.893 12.1127 43.538 10.5718 42.3268C10.0028 42.8366 9.32394 43.3944 8.61127 43.8761C7.75211 44.4563 6.59155 44.0845 6.17746 43.1352C6.17183 43.1239 6.16901 43.1155 6.16338 43.1042C5.85634 42.4028 6.10704 41.5803 6.73521 41.1408C7.51549 40.5944 8.48451 39.7831 9.30986 38.9521C9.92113 38.3352 10.9099 38.2901 11.5718 38.8563C13.1746 40.2282 15.0901 41.5239 15.707 41.6507C16.2845 41.6225 18.0507 40.6901 19.7662 39.5408C19.7803 36.0113 19.8169 25.893 19.8169 19.8085C19.8169 16.8 20.5859 14.5634 22.1042 13.1606C23.6338 11.7465 25.3577 11.7211 25.7831 11.738C28.2056 11.7718 29.5887 12.8197 30.3211 13.6958C32.231 15.9775 31.7437 19.2704 31.6817 19.6394C31.5296 20.5437 30.6732 21.1521 29.769 21C28.8676 20.8479 28.2592 19.9972 28.4085 19.0958C28.5014 18.5042 28.569 16.7606 27.769 15.8169C27.3437 15.3127 26.6704 15.062 25.7127 15.0535C25.6817 15.0535 25.6704 15.0535 25.6592 15.0535C25.6507 15.0535 25.6394 15.0535 25.6197 15.0507C25.4986 15.0507 24.8704 15.0901 24.3099 15.6338C23.538 16.3859 23.1296 17.8282 23.1296 19.8056C23.1296 20.8282 23.1296 21.9606 23.1268 23.1606H34.6282C34.6282 21.9493 34.631 20.8141 34.631 19.8056C34.631 16.8 35.4 14.5634 36.9183 13.1577C38.4479 11.7437 40.1746 11.7183 40.5972 11.7352C43.0197 11.769 44.4028 12.8169 45.1352 13.693C47.0451 15.9746 46.5577 19.2676 46.4958 19.6366C46.3437 20.5408 45.4873 21.1493 44.5831 20.9972C43.6817 20.8451 43.0732 19.9944 43.2225 19.093C43.3155 18.5014 43.3831 16.7577 42.5831 15.8141C42.1577 15.3099 41.4845 15.0592 40.5268 15.0507C40.4958 15.0507 40.4845 15.0507 40.4732 15.0507C40.4648 15.0507 40.4535 15.0507 40.4338 15.0479C40.3127 15.0479 39.6845 15.0873 39.1239 15.631C38.3521 16.3831 37.9437 17.8254 37.9437 19.8028C37.9437 26.4169 37.9014 38.5662 37.8901 41.2676C38.2986 41.4958 38.631 41.6479 38.8338 41.6873C39.493 41.5606 41.5352 40.2451 43.1859 38.8732C43.7859 38.3746 44.6451 38.3493 45.2535 38.8366C47.0676 40.2845 49.2197 41.6225 49.8845 41.7239C50.5408 41.6535 52.8197 40.3211 54.6873 38.9099C55.0479 38.6366 55.507 38.5239 55.9521 38.5972C56.4 38.6704 56.7972 38.9211 57.0535 39.2958C57.062 39.307 58.1127 40.7634 60 41.5493C60.7155 41.8479 61.0901 42.6423 60.9408 43.4056C60.7408 44.431 59.6394 45 58.6789 44.5916V44.5944Z" fill="#303030"></path>
</svg>
